G04 #@! TF.GenerationSoftware,KiCad,Pcbnew,(5.1.4)-1*
G04 #@! TF.CreationDate,2021-05-06T09:23:44-03:00*
G04 #@! TF.ProjectId,odin_d,6f64696e-5f64-42e6-9b69-6361645f7063,rev?*
G04 #@! TF.SameCoordinates,Original*
G04 #@! TF.FileFunction,Paste,Top*
G04 #@! TF.FilePolarity,Positive*
%FSLAX46Y46*%
G04 Gerber Fmt 4.6, Leading zero omitted, Abs format (unit mm)*
G04 Created by KiCad (PCBNEW (5.1.4)-1) date 2021-05-06 09:23:44*
%MOMM*%
%LPD*%
G04 APERTURE LIST*
%ADD10C,0.100000*%
%ADD11C,0.150000*%
%ADD12C,0.300000*%
%ADD13C,0.400000*%
%ADD14R,2.200000X1.200000*%
%ADD15R,3.050000X2.750000*%
%ADD16C,0.975000*%
%ADD17R,0.800000X0.900000*%
%ADD18R,0.900000X1.200000*%
%ADD19R,0.900000X0.800000*%
%ADD20C,1.250000*%
G04 APERTURE END LIST*
D10*
D11*
X177002200Y-166007200D02*
X177002200Y-198007200D01*
X285002200Y-198007200D01*
X285002200Y-166007200D01*
X177002200Y-166007200D01*
D10*
D11*
X10000000Y-10000000D02*
X10000000Y-200007200D01*
X287002200Y-200007200D01*
X287002200Y-10000000D01*
X10000000Y-10000000D01*
D10*
D11*
X12000000Y-12000000D02*
X12000000Y-198007200D01*
X285002200Y-198007200D01*
X285002200Y-12000000D01*
X12000000Y-12000000D01*
D10*
D11*
X60000000Y-12000000D02*
X60000000Y-10000000D01*
D10*
D11*
X110000000Y-12000000D02*
X110000000Y-10000000D01*
D10*
D11*
X160000000Y-12000000D02*
X160000000Y-10000000D01*
D10*
D11*
X210000000Y-12000000D02*
X210000000Y-10000000D01*
D10*
D11*
X260000000Y-12000000D02*
X260000000Y-10000000D01*
D10*
D11*
X36065476Y-11588095D02*
X35322619Y-11588095D01*
X35694047Y-11588095D02*
X35694047Y-10288095D01*
X35570238Y-10473809D01*
X35446428Y-10597619D01*
X35322619Y-10659523D01*
D10*
D11*
X85322619Y-10411904D02*
X85384523Y-10350000D01*
X85508333Y-10288095D01*
X85817857Y-10288095D01*
X85941666Y-10350000D01*
X86003571Y-10411904D01*
X86065476Y-10535714D01*
X86065476Y-10659523D01*
X86003571Y-10845238D01*
X85260714Y-11588095D01*
X86065476Y-11588095D01*
D10*
D11*
X135260714Y-10288095D02*
X136065476Y-10288095D01*
X135632142Y-10783333D01*
X135817857Y-10783333D01*
X135941666Y-10845238D01*
X136003571Y-10907142D01*
X136065476Y-11030952D01*
X136065476Y-11340476D01*
X136003571Y-11464285D01*
X135941666Y-11526190D01*
X135817857Y-11588095D01*
X135446428Y-11588095D01*
X135322619Y-11526190D01*
X135260714Y-11464285D01*
D10*
D11*
X185941666Y-10721428D02*
X185941666Y-11588095D01*
X185632142Y-10226190D02*
X185322619Y-11154761D01*
X186127380Y-11154761D01*
D10*
D11*
X236003571Y-10288095D02*
X235384523Y-10288095D01*
X235322619Y-10907142D01*
X235384523Y-10845238D01*
X235508333Y-10783333D01*
X235817857Y-10783333D01*
X235941666Y-10845238D01*
X236003571Y-10907142D01*
X236065476Y-11030952D01*
X236065476Y-11340476D01*
X236003571Y-11464285D01*
X235941666Y-11526190D01*
X235817857Y-11588095D01*
X235508333Y-11588095D01*
X235384523Y-11526190D01*
X235322619Y-11464285D01*
D10*
D11*
X285941666Y-10288095D02*
X285694047Y-10288095D01*
X285570238Y-10350000D01*
X285508333Y-10411904D01*
X285384523Y-10597619D01*
X285322619Y-10845238D01*
X285322619Y-11340476D01*
X285384523Y-11464285D01*
X285446428Y-11526190D01*
X285570238Y-11588095D01*
X285817857Y-11588095D01*
X285941666Y-11526190D01*
X286003571Y-11464285D01*
X286065476Y-11340476D01*
X286065476Y-11030952D01*
X286003571Y-10907142D01*
X285941666Y-10845238D01*
X285817857Y-10783333D01*
X285570238Y-10783333D01*
X285446428Y-10845238D01*
X285384523Y-10907142D01*
X285322619Y-11030952D01*
D10*
D11*
X60000000Y-198007200D02*
X60000000Y-200007200D01*
D10*
D11*
X110000000Y-198007200D02*
X110000000Y-200007200D01*
D10*
D11*
X160000000Y-198007200D02*
X160000000Y-200007200D01*
D10*
D11*
X210000000Y-198007200D02*
X210000000Y-200007200D01*
D10*
D11*
X260000000Y-198007200D02*
X260000000Y-200007200D01*
D10*
D11*
X36065476Y-199595295D02*
X35322619Y-199595295D01*
X35694047Y-199595295D02*
X35694047Y-198295295D01*
X35570238Y-198481009D01*
X35446428Y-198604819D01*
X35322619Y-198666723D01*
D10*
D11*
X85322619Y-198419104D02*
X85384523Y-198357200D01*
X85508333Y-198295295D01*
X85817857Y-198295295D01*
X85941666Y-198357200D01*
X86003571Y-198419104D01*
X86065476Y-198542914D01*
X86065476Y-198666723D01*
X86003571Y-198852438D01*
X85260714Y-199595295D01*
X86065476Y-199595295D01*
D10*
D11*
X135260714Y-198295295D02*
X136065476Y-198295295D01*
X135632142Y-198790533D01*
X135817857Y-198790533D01*
X135941666Y-198852438D01*
X136003571Y-198914342D01*
X136065476Y-199038152D01*
X136065476Y-199347676D01*
X136003571Y-199471485D01*
X135941666Y-199533390D01*
X135817857Y-199595295D01*
X135446428Y-199595295D01*
X135322619Y-199533390D01*
X135260714Y-199471485D01*
D10*
D11*
X185941666Y-198728628D02*
X185941666Y-199595295D01*
X185632142Y-198233390D02*
X185322619Y-199161961D01*
X186127380Y-199161961D01*
D10*
D11*
X236003571Y-198295295D02*
X235384523Y-198295295D01*
X235322619Y-198914342D01*
X235384523Y-198852438D01*
X235508333Y-198790533D01*
X235817857Y-198790533D01*
X235941666Y-198852438D01*
X236003571Y-198914342D01*
X236065476Y-199038152D01*
X236065476Y-199347676D01*
X236003571Y-199471485D01*
X235941666Y-199533390D01*
X235817857Y-199595295D01*
X235508333Y-199595295D01*
X235384523Y-199533390D01*
X235322619Y-199471485D01*
D10*
D11*
X285941666Y-198295295D02*
X285694047Y-198295295D01*
X285570238Y-198357200D01*
X285508333Y-198419104D01*
X285384523Y-198604819D01*
X285322619Y-198852438D01*
X285322619Y-199347676D01*
X285384523Y-199471485D01*
X285446428Y-199533390D01*
X285570238Y-199595295D01*
X285817857Y-199595295D01*
X285941666Y-199533390D01*
X286003571Y-199471485D01*
X286065476Y-199347676D01*
X286065476Y-199038152D01*
X286003571Y-198914342D01*
X285941666Y-198852438D01*
X285817857Y-198790533D01*
X285570238Y-198790533D01*
X285446428Y-198852438D01*
X285384523Y-198914342D01*
X285322619Y-199038152D01*
D10*
D11*
X10000000Y-60000000D02*
X12000000Y-60000000D01*
D10*
D11*
X10000000Y-110000000D02*
X12000000Y-110000000D01*
D10*
D11*
X10000000Y-160000000D02*
X12000000Y-160000000D01*
D10*
D11*
X10690476Y-35216666D02*
X11309523Y-35216666D01*
X10566666Y-35588095D02*
X11000000Y-34288095D01*
X11433333Y-35588095D01*
D10*
D11*
X11092857Y-84907142D02*
X11278571Y-84969047D01*
X11340476Y-85030952D01*
X11402380Y-85154761D01*
X11402380Y-85340476D01*
X11340476Y-85464285D01*
X11278571Y-85526190D01*
X11154761Y-85588095D01*
X10659523Y-85588095D01*
X10659523Y-84288095D01*
X11092857Y-84288095D01*
X11216666Y-84350000D01*
X11278571Y-84411904D01*
X11340476Y-84535714D01*
X11340476Y-84659523D01*
X11278571Y-84783333D01*
X11216666Y-84845238D01*
X11092857Y-84907142D01*
X10659523Y-84907142D01*
D10*
D11*
X11402380Y-135464285D02*
X11340476Y-135526190D01*
X11154761Y-135588095D01*
X11030952Y-135588095D01*
X10845238Y-135526190D01*
X10721428Y-135402380D01*
X10659523Y-135278571D01*
X10597619Y-135030952D01*
X10597619Y-134845238D01*
X10659523Y-134597619D01*
X10721428Y-134473809D01*
X10845238Y-134350000D01*
X11030952Y-134288095D01*
X11154761Y-134288095D01*
X11340476Y-134350000D01*
X11402380Y-134411904D01*
D10*
D11*
X10659523Y-185588095D02*
X10659523Y-184288095D01*
X10969047Y-184288095D01*
X11154761Y-184350000D01*
X11278571Y-184473809D01*
X11340476Y-184597619D01*
X11402380Y-184845238D01*
X11402380Y-185030952D01*
X11340476Y-185278571D01*
X11278571Y-185402380D01*
X11154761Y-185526190D01*
X10969047Y-185588095D01*
X10659523Y-185588095D01*
D10*
D11*
X287002200Y-60000000D02*
X285002200Y-60000000D01*
D10*
D11*
X287002200Y-110000000D02*
X285002200Y-110000000D01*
D10*
D11*
X287002200Y-160000000D02*
X285002200Y-160000000D01*
D10*
D11*
X285692676Y-35216666D02*
X286311723Y-35216666D01*
X285568866Y-35588095D02*
X286002200Y-34288095D01*
X286435533Y-35588095D01*
D10*
D11*
X286095057Y-84907142D02*
X286280771Y-84969047D01*
X286342676Y-85030952D01*
X286404580Y-85154761D01*
X286404580Y-85340476D01*
X286342676Y-85464285D01*
X286280771Y-85526190D01*
X286156961Y-85588095D01*
X285661723Y-85588095D01*
X285661723Y-84288095D01*
X286095057Y-84288095D01*
X286218866Y-84350000D01*
X286280771Y-84411904D01*
X286342676Y-84535714D01*
X286342676Y-84659523D01*
X286280771Y-84783333D01*
X286218866Y-84845238D01*
X286095057Y-84907142D01*
X285661723Y-84907142D01*
D10*
D11*
X286404580Y-135464285D02*
X286342676Y-135526190D01*
X286156961Y-135588095D01*
X286033152Y-135588095D01*
X285847438Y-135526190D01*
X285723628Y-135402380D01*
X285661723Y-135278571D01*
X285599819Y-135030952D01*
X285599819Y-134845238D01*
X285661723Y-134597619D01*
X285723628Y-134473809D01*
X285847438Y-134350000D01*
X286033152Y-134288095D01*
X286156961Y-134288095D01*
X286342676Y-134350000D01*
X286404580Y-134411904D01*
D10*
D11*
X285661723Y-185588095D02*
X285661723Y-184288095D01*
X285971247Y-184288095D01*
X286156961Y-184350000D01*
X286280771Y-184473809D01*
X286342676Y-184597619D01*
X286404580Y-184845238D01*
X286404580Y-185030952D01*
X286342676Y-185278571D01*
X286280771Y-185402380D01*
X286156961Y-185526190D01*
X285971247Y-185588095D01*
X285661723Y-185588095D01*
D10*
D11*
X200434342Y-193785771D02*
X200434342Y-192285771D01*
X200791485Y-192285771D01*
X201005771Y-192357200D01*
X201148628Y-192500057D01*
X201220057Y-192642914D01*
X201291485Y-192928628D01*
X201291485Y-193142914D01*
X201220057Y-193428628D01*
X201148628Y-193571485D01*
X201005771Y-193714342D01*
X200791485Y-193785771D01*
X200434342Y-193785771D01*
X202577200Y-193785771D02*
X202577200Y-193000057D01*
X202505771Y-192857200D01*
X202362914Y-192785771D01*
X202077200Y-192785771D01*
X201934342Y-192857200D01*
X202577200Y-193714342D02*
X202434342Y-193785771D01*
X202077200Y-193785771D01*
X201934342Y-193714342D01*
X201862914Y-193571485D01*
X201862914Y-193428628D01*
X201934342Y-193285771D01*
X202077200Y-193214342D01*
X202434342Y-193214342D01*
X202577200Y-193142914D01*
X203077200Y-192785771D02*
X203648628Y-192785771D01*
X203291485Y-192285771D02*
X203291485Y-193571485D01*
X203362914Y-193714342D01*
X203505771Y-193785771D01*
X203648628Y-193785771D01*
X204720057Y-193714342D02*
X204577200Y-193785771D01*
X204291485Y-193785771D01*
X204148628Y-193714342D01*
X204077200Y-193571485D01*
X204077200Y-193000057D01*
X204148628Y-192857200D01*
X204291485Y-192785771D01*
X204577200Y-192785771D01*
X204720057Y-192857200D01*
X204791485Y-193000057D01*
X204791485Y-193142914D01*
X204077200Y-193285771D01*
X205434342Y-193642914D02*
X205505771Y-193714342D01*
X205434342Y-193785771D01*
X205362914Y-193714342D01*
X205434342Y-193642914D01*
X205434342Y-193785771D01*
X205434342Y-192857200D02*
X205505771Y-192928628D01*
X205434342Y-193000057D01*
X205362914Y-192928628D01*
X205434342Y-192857200D01*
X205434342Y-193000057D01*
X207220057Y-192428628D02*
X207291485Y-192357200D01*
X207434342Y-192285771D01*
X207791485Y-192285771D01*
X207934342Y-192357200D01*
X208005771Y-192428628D01*
X208077200Y-192571485D01*
X208077200Y-192714342D01*
X208005771Y-192928628D01*
X207148628Y-193785771D01*
X208077200Y-193785771D01*
X209005771Y-192285771D02*
X209148628Y-192285771D01*
X209291485Y-192357200D01*
X209362914Y-192428628D01*
X209434342Y-192571485D01*
X209505771Y-192857200D01*
X209505771Y-193214342D01*
X209434342Y-193500057D01*
X209362914Y-193642914D01*
X209291485Y-193714342D01*
X209148628Y-193785771D01*
X209005771Y-193785771D01*
X208862914Y-193714342D01*
X208791485Y-193642914D01*
X208720057Y-193500057D01*
X208648628Y-193214342D01*
X208648628Y-192857200D01*
X208720057Y-192571485D01*
X208791485Y-192428628D01*
X208862914Y-192357200D01*
X209005771Y-192285771D01*
X210077200Y-192428628D02*
X210148628Y-192357200D01*
X210291485Y-192285771D01*
X210648628Y-192285771D01*
X210791485Y-192357200D01*
X210862914Y-192428628D01*
X210934342Y-192571485D01*
X210934342Y-192714342D01*
X210862914Y-192928628D01*
X210005771Y-193785771D01*
X210934342Y-193785771D01*
X211862914Y-192285771D02*
X212005771Y-192285771D01*
X212148628Y-192357200D01*
X212220057Y-192428628D01*
X212291485Y-192571485D01*
X212362914Y-192857200D01*
X212362914Y-193214342D01*
X212291485Y-193500057D01*
X212220057Y-193642914D01*
X212148628Y-193714342D01*
X212005771Y-193785771D01*
X211862914Y-193785771D01*
X211720057Y-193714342D01*
X211648628Y-193642914D01*
X211577200Y-193500057D01*
X211505771Y-193214342D01*
X211505771Y-192857200D01*
X211577200Y-192571485D01*
X211648628Y-192428628D01*
X211720057Y-192357200D01*
X211862914Y-192285771D01*
X213005771Y-193214342D02*
X214148628Y-193214342D01*
X215148628Y-192285771D02*
X215291485Y-192285771D01*
X215434342Y-192357200D01*
X215505771Y-192428628D01*
X215577200Y-192571485D01*
X215648628Y-192857200D01*
X215648628Y-193214342D01*
X215577200Y-193500057D01*
X215505771Y-193642914D01*
X215434342Y-193714342D01*
X215291485Y-193785771D01*
X215148628Y-193785771D01*
X215005771Y-193714342D01*
X214934342Y-193642914D01*
X214862914Y-193500057D01*
X214791485Y-193214342D01*
X214791485Y-192857200D01*
X214862914Y-192571485D01*
X214934342Y-192428628D01*
X215005771Y-192357200D01*
X215148628Y-192285771D01*
X216148628Y-192285771D02*
X217148628Y-192285771D01*
X216505771Y-193785771D01*
X217720057Y-193214342D02*
X218862914Y-193214342D01*
X219862914Y-192285771D02*
X220005771Y-192285771D01*
X220148628Y-192357200D01*
X220220057Y-192428628D01*
X220291485Y-192571485D01*
X220362914Y-192857200D01*
X220362914Y-193214342D01*
X220291485Y-193500057D01*
X220220057Y-193642914D01*
X220148628Y-193714342D01*
X220005771Y-193785771D01*
X219862914Y-193785771D01*
X219720057Y-193714342D01*
X219648628Y-193642914D01*
X219577200Y-193500057D01*
X219505771Y-193214342D01*
X219505771Y-192857200D01*
X219577200Y-192571485D01*
X219648628Y-192428628D01*
X219720057Y-192357200D01*
X219862914Y-192285771D01*
X220862914Y-192285771D02*
X221862914Y-192285771D01*
X221220057Y-193785771D01*
D10*
D11*
X177002200Y-194507200D02*
X285002200Y-194507200D01*
D10*
D11*
X178434342Y-196585771D02*
X178434342Y-195085771D01*
X179291485Y-196585771D02*
X178648628Y-195728628D01*
X179291485Y-195085771D02*
X178434342Y-195942914D01*
X179934342Y-196585771D02*
X179934342Y-195585771D01*
X179934342Y-195085771D02*
X179862914Y-195157200D01*
X179934342Y-195228628D01*
X180005771Y-195157200D01*
X179934342Y-195085771D01*
X179934342Y-195228628D01*
X181505771Y-196442914D02*
X181434342Y-196514342D01*
X181220057Y-196585771D01*
X181077200Y-196585771D01*
X180862914Y-196514342D01*
X180720057Y-196371485D01*
X180648628Y-196228628D01*
X180577200Y-195942914D01*
X180577200Y-195728628D01*
X180648628Y-195442914D01*
X180720057Y-195300057D01*
X180862914Y-195157200D01*
X181077200Y-195085771D01*
X181220057Y-195085771D01*
X181434342Y-195157200D01*
X181505771Y-195228628D01*
X182791485Y-196585771D02*
X182791485Y-195800057D01*
X182720057Y-195657200D01*
X182577200Y-195585771D01*
X182291485Y-195585771D01*
X182148628Y-195657200D01*
X182791485Y-196514342D02*
X182648628Y-196585771D01*
X182291485Y-196585771D01*
X182148628Y-196514342D01*
X182077200Y-196371485D01*
X182077200Y-196228628D01*
X182148628Y-196085771D01*
X182291485Y-196014342D01*
X182648628Y-196014342D01*
X182791485Y-195942914D01*
X184148628Y-196585771D02*
X184148628Y-195085771D01*
X184148628Y-196514342D02*
X184005771Y-196585771D01*
X183720057Y-196585771D01*
X183577200Y-196514342D01*
X183505771Y-196442914D01*
X183434342Y-196300057D01*
X183434342Y-195871485D01*
X183505771Y-195728628D01*
X183577200Y-195657200D01*
X183720057Y-195585771D01*
X184005771Y-195585771D01*
X184148628Y-195657200D01*
X186005771Y-195800057D02*
X186505771Y-195800057D01*
X186720057Y-196585771D02*
X186005771Y-196585771D01*
X186005771Y-195085771D01*
X186720057Y-195085771D01*
X187362914Y-196442914D02*
X187434342Y-196514342D01*
X187362914Y-196585771D01*
X187291485Y-196514342D01*
X187362914Y-196442914D01*
X187362914Y-196585771D01*
X188077200Y-196585771D02*
X188077200Y-195085771D01*
X188434342Y-195085771D01*
X188648628Y-195157200D01*
X188791485Y-195300057D01*
X188862914Y-195442914D01*
X188934342Y-195728628D01*
X188934342Y-195942914D01*
X188862914Y-196228628D01*
X188791485Y-196371485D01*
X188648628Y-196514342D01*
X188434342Y-196585771D01*
X188077200Y-196585771D01*
X189577200Y-196442914D02*
X189648628Y-196514342D01*
X189577200Y-196585771D01*
X189505771Y-196514342D01*
X189577200Y-196442914D01*
X189577200Y-196585771D01*
X190220057Y-196157200D02*
X190934342Y-196157200D01*
X190077200Y-196585771D02*
X190577200Y-195085771D01*
X191077200Y-196585771D01*
X191577200Y-196442914D02*
X191648628Y-196514342D01*
X191577200Y-196585771D01*
X191505771Y-196514342D01*
X191577200Y-196442914D01*
X191577200Y-196585771D01*
X194577200Y-196585771D02*
X194577200Y-195085771D01*
X194720057Y-196014342D02*
X195148628Y-196585771D01*
X195148628Y-195585771D02*
X194577200Y-196157200D01*
X195791485Y-196585771D02*
X195791485Y-195585771D01*
X195791485Y-195085771D02*
X195720057Y-195157200D01*
X195791485Y-195228628D01*
X195862914Y-195157200D01*
X195791485Y-195085771D01*
X195791485Y-195228628D01*
X197148628Y-196514342D02*
X197005771Y-196585771D01*
X196720057Y-196585771D01*
X196577200Y-196514342D01*
X196505771Y-196442914D01*
X196434342Y-196300057D01*
X196434342Y-195871485D01*
X196505771Y-195728628D01*
X196577200Y-195657200D01*
X196720057Y-195585771D01*
X197005771Y-195585771D01*
X197148628Y-195657200D01*
X198434342Y-196585771D02*
X198434342Y-195800057D01*
X198362914Y-195657200D01*
X198220057Y-195585771D01*
X197934342Y-195585771D01*
X197791485Y-195657200D01*
X198434342Y-196514342D02*
X198291485Y-196585771D01*
X197934342Y-196585771D01*
X197791485Y-196514342D01*
X197720057Y-196371485D01*
X197720057Y-196228628D01*
X197791485Y-196085771D01*
X197934342Y-196014342D01*
X198291485Y-196014342D01*
X198434342Y-195942914D01*
X199791485Y-196585771D02*
X199791485Y-195085771D01*
X199791485Y-196514342D02*
X199648628Y-196585771D01*
X199362914Y-196585771D01*
X199220057Y-196514342D01*
X199148628Y-196442914D01*
X199077200Y-196300057D01*
X199077200Y-195871485D01*
X199148628Y-195728628D01*
X199220057Y-195657200D01*
X199362914Y-195585771D01*
X199648628Y-195585771D01*
X199791485Y-195657200D01*
X202077200Y-197157200D02*
X202005771Y-197085771D01*
X201862914Y-196871485D01*
X201791485Y-196728628D01*
X201720057Y-196514342D01*
X201648628Y-196157200D01*
X201648628Y-195871485D01*
X201720057Y-195514342D01*
X201791485Y-195300057D01*
X201862914Y-195157200D01*
X202005771Y-194942914D01*
X202077200Y-194871485D01*
X203362914Y-195085771D02*
X202648628Y-195085771D01*
X202577200Y-195800057D01*
X202648628Y-195728628D01*
X202791485Y-195657200D01*
X203148628Y-195657200D01*
X203291485Y-195728628D01*
X203362914Y-195800057D01*
X203434342Y-195942914D01*
X203434342Y-196300057D01*
X203362914Y-196442914D01*
X203291485Y-196514342D01*
X203148628Y-196585771D01*
X202791485Y-196585771D01*
X202648628Y-196514342D01*
X202577200Y-196442914D01*
X204077200Y-196442914D02*
X204148628Y-196514342D01*
X204077200Y-196585771D01*
X204005771Y-196514342D01*
X204077200Y-196442914D01*
X204077200Y-196585771D01*
X205577200Y-196585771D02*
X204720057Y-196585771D01*
X205148628Y-196585771D02*
X205148628Y-195085771D01*
X205005771Y-195300057D01*
X204862914Y-195442914D01*
X204720057Y-195514342D01*
X206220057Y-196442914D02*
X206291485Y-196514342D01*
X206220057Y-196585771D01*
X206148628Y-196514342D01*
X206220057Y-196442914D01*
X206220057Y-196585771D01*
X207577200Y-195585771D02*
X207577200Y-196585771D01*
X207220057Y-195014342D02*
X206862914Y-196085771D01*
X207791485Y-196085771D01*
X208220057Y-197157200D02*
X208291485Y-197085771D01*
X208434342Y-196871485D01*
X208505771Y-196728628D01*
X208577200Y-196514342D01*
X208648628Y-196157200D01*
X208648628Y-195871485D01*
X208577200Y-195514342D01*
X208505771Y-195300057D01*
X208434342Y-195157200D01*
X208291485Y-194942914D01*
X208220057Y-194871485D01*
X209362914Y-196014342D02*
X210505771Y-196014342D01*
X212005771Y-196585771D02*
X211148628Y-196585771D01*
X211577200Y-196585771D02*
X211577200Y-195085771D01*
X211434342Y-195300057D01*
X211291485Y-195442914D01*
X211148628Y-195514342D01*
D10*
D11*
X177002200Y-191507200D02*
X285002200Y-191507200D01*
D10*
D12*
X264411485Y-193785771D02*
X263911485Y-193071485D01*
X263554342Y-193785771D02*
X263554342Y-192285771D01*
X264125771Y-192285771D01*
X264268628Y-192357200D01*
X264340057Y-192428628D01*
X264411485Y-192571485D01*
X264411485Y-192785771D01*
X264340057Y-192928628D01*
X264268628Y-193000057D01*
X264125771Y-193071485D01*
X263554342Y-193071485D01*
X265625771Y-193714342D02*
X265482914Y-193785771D01*
X265197200Y-193785771D01*
X265054342Y-193714342D01*
X264982914Y-193571485D01*
X264982914Y-193000057D01*
X265054342Y-192857200D01*
X265197200Y-192785771D01*
X265482914Y-192785771D01*
X265625771Y-192857200D01*
X265697200Y-193000057D01*
X265697200Y-193142914D01*
X264982914Y-193285771D01*
X266197200Y-192785771D02*
X266554342Y-193785771D01*
X266911485Y-192785771D01*
X267482914Y-193642914D02*
X267554342Y-193714342D01*
X267482914Y-193785771D01*
X267411485Y-193714342D01*
X267482914Y-193642914D01*
X267482914Y-193785771D01*
X267482914Y-192857200D02*
X267554342Y-192928628D01*
X267482914Y-193000057D01*
X267411485Y-192928628D01*
X267482914Y-192857200D01*
X267482914Y-193000057D01*
D10*
D11*
X178362914Y-193714342D02*
X178577200Y-193785771D01*
X178934342Y-193785771D01*
X179077200Y-193714342D01*
X179148628Y-193642914D01*
X179220057Y-193500057D01*
X179220057Y-193357200D01*
X179148628Y-193214342D01*
X179077200Y-193142914D01*
X178934342Y-193071485D01*
X178648628Y-193000057D01*
X178505771Y-192928628D01*
X178434342Y-192857200D01*
X178362914Y-192714342D01*
X178362914Y-192571485D01*
X178434342Y-192428628D01*
X178505771Y-192357200D01*
X178648628Y-192285771D01*
X179005771Y-192285771D01*
X179220057Y-192357200D01*
X179862914Y-193785771D02*
X179862914Y-192785771D01*
X179862914Y-192285771D02*
X179791485Y-192357200D01*
X179862914Y-192428628D01*
X179934342Y-192357200D01*
X179862914Y-192285771D01*
X179862914Y-192428628D01*
X180434342Y-192785771D02*
X181220057Y-192785771D01*
X180434342Y-193785771D01*
X181220057Y-193785771D01*
X182362914Y-193714342D02*
X182220057Y-193785771D01*
X181934342Y-193785771D01*
X181791485Y-193714342D01*
X181720057Y-193571485D01*
X181720057Y-193000057D01*
X181791485Y-192857200D01*
X181934342Y-192785771D01*
X182220057Y-192785771D01*
X182362914Y-192857200D01*
X182434342Y-193000057D01*
X182434342Y-193142914D01*
X181720057Y-193285771D01*
X183077200Y-193642914D02*
X183148628Y-193714342D01*
X183077200Y-193785771D01*
X183005771Y-193714342D01*
X183077200Y-193642914D01*
X183077200Y-193785771D01*
X183077200Y-192857200D02*
X183148628Y-192928628D01*
X183077200Y-193000057D01*
X183005771Y-192928628D01*
X183077200Y-192857200D01*
X183077200Y-193000057D01*
X184862914Y-193357200D02*
X185577200Y-193357200D01*
X184720057Y-193785771D02*
X185220057Y-192285771D01*
X185720057Y-193785771D01*
X186862914Y-192785771D02*
X186862914Y-193785771D01*
X186505771Y-192214342D02*
X186148628Y-193285771D01*
X187077200Y-193285771D01*
D10*
D11*
X263434342Y-196585771D02*
X263434342Y-195085771D01*
X264791485Y-196585771D02*
X264791485Y-195085771D01*
X264791485Y-196514342D02*
X264648628Y-196585771D01*
X264362914Y-196585771D01*
X264220057Y-196514342D01*
X264148628Y-196442914D01*
X264077200Y-196300057D01*
X264077200Y-195871485D01*
X264148628Y-195728628D01*
X264220057Y-195657200D01*
X264362914Y-195585771D01*
X264648628Y-195585771D01*
X264791485Y-195657200D01*
X265505771Y-196442914D02*
X265577200Y-196514342D01*
X265505771Y-196585771D01*
X265434342Y-196514342D01*
X265505771Y-196442914D01*
X265505771Y-196585771D01*
X265505771Y-195657200D02*
X265577200Y-195728628D01*
X265505771Y-195800057D01*
X265434342Y-195728628D01*
X265505771Y-195657200D01*
X265505771Y-195800057D01*
X268148628Y-196585771D02*
X267291485Y-196585771D01*
X267720057Y-196585771D02*
X267720057Y-195085771D01*
X267577200Y-195300057D01*
X267434342Y-195442914D01*
X267291485Y-195514342D01*
X269862914Y-195014342D02*
X268577200Y-196942914D01*
X271148628Y-196585771D02*
X270291485Y-196585771D01*
X270720057Y-196585771D02*
X270720057Y-195085771D01*
X270577200Y-195300057D01*
X270434342Y-195442914D01*
X270291485Y-195514342D01*
D10*
D11*
X177002200Y-187507200D02*
X285002200Y-187507200D01*
D10*
D13*
X178714580Y-188211961D02*
X179857438Y-188211961D01*
X179036009Y-190211961D02*
X179286009Y-188211961D01*
X180274104Y-190211961D02*
X180440771Y-188878628D01*
X180524104Y-188211961D02*
X180416961Y-188307200D01*
X180500295Y-188402438D01*
X180607438Y-188307200D01*
X180524104Y-188211961D01*
X180500295Y-188402438D01*
X181107438Y-188878628D02*
X181869342Y-188878628D01*
X181476485Y-188211961D02*
X181262200Y-189926247D01*
X181333628Y-190116723D01*
X181512200Y-190211961D01*
X181702676Y-190211961D01*
X182655057Y-190211961D02*
X182476485Y-190116723D01*
X182405057Y-189926247D01*
X182619342Y-188211961D01*
X184190771Y-190116723D02*
X183988390Y-190211961D01*
X183607438Y-190211961D01*
X183428866Y-190116723D01*
X183357438Y-189926247D01*
X183452676Y-189164342D01*
X183571723Y-188973866D01*
X183774104Y-188878628D01*
X184155057Y-188878628D01*
X184333628Y-188973866D01*
X184405057Y-189164342D01*
X184381247Y-189354819D01*
X183405057Y-189545295D01*
X185155057Y-190021485D02*
X185238390Y-190116723D01*
X185131247Y-190211961D01*
X185047914Y-190116723D01*
X185155057Y-190021485D01*
X185131247Y-190211961D01*
X185286009Y-188973866D02*
X185369342Y-189069104D01*
X185262200Y-189164342D01*
X185178866Y-189069104D01*
X185286009Y-188973866D01*
X185262200Y-189164342D01*
X188750295Y-190211961D02*
X188202676Y-189259580D01*
X187607438Y-190211961D02*
X187857438Y-188211961D01*
X188619342Y-188211961D01*
X188797914Y-188307200D01*
X188881247Y-188402438D01*
X188952676Y-188592914D01*
X188916961Y-188878628D01*
X188797914Y-189069104D01*
X188690771Y-189164342D01*
X188488390Y-189259580D01*
X187726485Y-189259580D01*
X189738390Y-189164342D02*
X190405057Y-189164342D01*
X190559819Y-190211961D02*
X189607438Y-190211961D01*
X189857438Y-188211961D01*
X190809819Y-188211961D01*
X192369342Y-190211961D02*
X191416961Y-190211961D01*
X191666961Y-188211961D01*
X193012200Y-189640533D02*
X193964580Y-189640533D01*
X192750295Y-190211961D02*
X193666961Y-188211961D01*
X194083628Y-190211961D01*
X195250295Y-189259580D02*
X195131247Y-190211961D01*
X194714580Y-188211961D02*
X195250295Y-189259580D01*
X196047914Y-188211961D01*
D10*
D11*
X178934342Y-185600057D02*
X178434342Y-185600057D01*
X178434342Y-186385771D02*
X178434342Y-184885771D01*
X179148628Y-184885771D01*
X179720057Y-186385771D02*
X179720057Y-185385771D01*
X179720057Y-184885771D02*
X179648628Y-184957200D01*
X179720057Y-185028628D01*
X179791485Y-184957200D01*
X179720057Y-184885771D01*
X179720057Y-185028628D01*
X180648628Y-186385771D02*
X180505771Y-186314342D01*
X180434342Y-186171485D01*
X180434342Y-184885771D01*
X181791485Y-186314342D02*
X181648628Y-186385771D01*
X181362914Y-186385771D01*
X181220057Y-186314342D01*
X181148628Y-186171485D01*
X181148628Y-185600057D01*
X181220057Y-185457200D01*
X181362914Y-185385771D01*
X181648628Y-185385771D01*
X181791485Y-185457200D01*
X181862914Y-185600057D01*
X181862914Y-185742914D01*
X181148628Y-185885771D01*
X182505771Y-186242914D02*
X182577200Y-186314342D01*
X182505771Y-186385771D01*
X182434342Y-186314342D01*
X182505771Y-186242914D01*
X182505771Y-186385771D01*
X182505771Y-185457200D02*
X182577200Y-185528628D01*
X182505771Y-185600057D01*
X182434342Y-185528628D01*
X182505771Y-185457200D01*
X182505771Y-185600057D01*
X184577200Y-186385771D02*
X184434342Y-186314342D01*
X184362914Y-186242914D01*
X184291485Y-186100057D01*
X184291485Y-185671485D01*
X184362914Y-185528628D01*
X184434342Y-185457200D01*
X184577200Y-185385771D01*
X184791485Y-185385771D01*
X184934342Y-185457200D01*
X185005771Y-185528628D01*
X185077200Y-185671485D01*
X185077200Y-186100057D01*
X185005771Y-186242914D01*
X184934342Y-186314342D01*
X184791485Y-186385771D01*
X184577200Y-186385771D01*
X186362914Y-186385771D02*
X186362914Y-184885771D01*
X186362914Y-186314342D02*
X186220057Y-186385771D01*
X185934342Y-186385771D01*
X185791485Y-186314342D01*
X185720057Y-186242914D01*
X185648628Y-186100057D01*
X185648628Y-185671485D01*
X185720057Y-185528628D01*
X185791485Y-185457200D01*
X185934342Y-185385771D01*
X186220057Y-185385771D01*
X186362914Y-185457200D01*
X187077200Y-186385771D02*
X187077200Y-185385771D01*
X187077200Y-184885771D02*
X187005771Y-184957200D01*
X187077200Y-185028628D01*
X187148628Y-184957200D01*
X187077200Y-184885771D01*
X187077200Y-185028628D01*
X187791485Y-185385771D02*
X187791485Y-186385771D01*
X187791485Y-185528628D02*
X187862914Y-185457200D01*
X188005771Y-185385771D01*
X188220057Y-185385771D01*
X188362914Y-185457200D01*
X188434342Y-185600057D01*
X188434342Y-186385771D01*
X188791485Y-186528628D02*
X189934342Y-186528628D01*
X190934342Y-186385771D02*
X190934342Y-184885771D01*
X190934342Y-186314342D02*
X190791485Y-186385771D01*
X190505771Y-186385771D01*
X190362914Y-186314342D01*
X190291485Y-186242914D01*
X190220057Y-186100057D01*
X190220057Y-185671485D01*
X190291485Y-185528628D01*
X190362914Y-185457200D01*
X190505771Y-185385771D01*
X190791485Y-185385771D01*
X190934342Y-185457200D01*
X191648628Y-186242914D02*
X191720057Y-186314342D01*
X191648628Y-186385771D01*
X191577200Y-186314342D01*
X191648628Y-186242914D01*
X191648628Y-186385771D01*
X192362914Y-186385771D02*
X192362914Y-184885771D01*
X192505771Y-185814342D02*
X192934342Y-186385771D01*
X192934342Y-185385771D02*
X192362914Y-185957200D01*
X193577200Y-186385771D02*
X193577200Y-185385771D01*
X193577200Y-184885771D02*
X193505771Y-184957200D01*
X193577200Y-185028628D01*
X193648628Y-184957200D01*
X193577200Y-184885771D01*
X193577200Y-185028628D01*
X194934342Y-186314342D02*
X194791485Y-186385771D01*
X194505771Y-186385771D01*
X194362914Y-186314342D01*
X194291485Y-186242914D01*
X194220057Y-186100057D01*
X194220057Y-185671485D01*
X194291485Y-185528628D01*
X194362914Y-185457200D01*
X194505771Y-185385771D01*
X194791485Y-185385771D01*
X194934342Y-185457200D01*
X196220057Y-186385771D02*
X196220057Y-185600057D01*
X196148628Y-185457200D01*
X196005771Y-185385771D01*
X195720057Y-185385771D01*
X195577200Y-185457200D01*
X196220057Y-186314342D02*
X196077200Y-186385771D01*
X195720057Y-186385771D01*
X195577200Y-186314342D01*
X195505771Y-186171485D01*
X195505771Y-186028628D01*
X195577200Y-185885771D01*
X195720057Y-185814342D01*
X196077200Y-185814342D01*
X196220057Y-185742914D01*
X197577200Y-186385771D02*
X197577200Y-184885771D01*
X197577200Y-186314342D02*
X197434342Y-186385771D01*
X197148628Y-186385771D01*
X197005771Y-186314342D01*
X196934342Y-186242914D01*
X196862914Y-186100057D01*
X196862914Y-185671485D01*
X196934342Y-185528628D01*
X197005771Y-185457200D01*
X197148628Y-185385771D01*
X197434342Y-185385771D01*
X197577200Y-185457200D01*
X197934342Y-186528628D02*
X199077200Y-186528628D01*
X199434342Y-185385771D02*
X199434342Y-186885771D01*
X199434342Y-185457200D02*
X199577200Y-185385771D01*
X199862914Y-185385771D01*
X200005771Y-185457200D01*
X200077200Y-185528628D01*
X200148628Y-185671485D01*
X200148628Y-186100057D01*
X200077200Y-186242914D01*
X200005771Y-186314342D01*
X199862914Y-186385771D01*
X199577200Y-186385771D01*
X199434342Y-186314342D01*
X201434342Y-186314342D02*
X201291485Y-186385771D01*
X201005771Y-186385771D01*
X200862914Y-186314342D01*
X200791485Y-186242914D01*
X200720057Y-186100057D01*
X200720057Y-185671485D01*
X200791485Y-185528628D01*
X200862914Y-185457200D01*
X201005771Y-185385771D01*
X201291485Y-185385771D01*
X201434342Y-185457200D01*
X202077200Y-186385771D02*
X202077200Y-184885771D01*
X202077200Y-185457200D02*
X202220057Y-185385771D01*
X202505771Y-185385771D01*
X202648628Y-185457200D01*
X202720057Y-185528628D01*
X202791485Y-185671485D01*
X202791485Y-186100057D01*
X202720057Y-186242914D01*
X202648628Y-186314342D01*
X202505771Y-186385771D01*
X202220057Y-186385771D01*
X202077200Y-186314342D01*
D10*
D11*
X177002200Y-181507200D02*
X285002200Y-181507200D01*
D10*
D11*
X178362914Y-183614342D02*
X178577200Y-183685771D01*
X178934342Y-183685771D01*
X179077200Y-183614342D01*
X179148628Y-183542914D01*
X179220057Y-183400057D01*
X179220057Y-183257200D01*
X179148628Y-183114342D01*
X179077200Y-183042914D01*
X178934342Y-182971485D01*
X178648628Y-182900057D01*
X178505771Y-182828628D01*
X178434342Y-182757200D01*
X178362914Y-182614342D01*
X178362914Y-182471485D01*
X178434342Y-182328628D01*
X178505771Y-182257200D01*
X178648628Y-182185771D01*
X179005771Y-182185771D01*
X179220057Y-182257200D01*
X179862914Y-183685771D02*
X179862914Y-182185771D01*
X180505771Y-183685771D02*
X180505771Y-182900057D01*
X180434342Y-182757200D01*
X180291485Y-182685771D01*
X180077200Y-182685771D01*
X179934342Y-182757200D01*
X179862914Y-182828628D01*
X181791485Y-183614342D02*
X181648628Y-183685771D01*
X181362914Y-183685771D01*
X181220057Y-183614342D01*
X181148628Y-183471485D01*
X181148628Y-182900057D01*
X181220057Y-182757200D01*
X181362914Y-182685771D01*
X181648628Y-182685771D01*
X181791485Y-182757200D01*
X181862914Y-182900057D01*
X181862914Y-183042914D01*
X181148628Y-183185771D01*
X183077200Y-183614342D02*
X182934342Y-183685771D01*
X182648628Y-183685771D01*
X182505771Y-183614342D01*
X182434342Y-183471485D01*
X182434342Y-182900057D01*
X182505771Y-182757200D01*
X182648628Y-182685771D01*
X182934342Y-182685771D01*
X183077200Y-182757200D01*
X183148628Y-182900057D01*
X183148628Y-183042914D01*
X182434342Y-183185771D01*
X183577200Y-182685771D02*
X184148628Y-182685771D01*
X183791485Y-182185771D02*
X183791485Y-183471485D01*
X183862914Y-183614342D01*
X184005771Y-183685771D01*
X184148628Y-183685771D01*
X184648628Y-183542914D02*
X184720057Y-183614342D01*
X184648628Y-183685771D01*
X184577200Y-183614342D01*
X184648628Y-183542914D01*
X184648628Y-183685771D01*
X184648628Y-182757200D02*
X184720057Y-182828628D01*
X184648628Y-182900057D01*
X184577200Y-182828628D01*
X184648628Y-182757200D01*
X184648628Y-182900057D01*
D10*
D12*
X178411485Y-179185771D02*
X178768628Y-180685771D01*
X179054342Y-179614342D01*
X179340057Y-180685771D01*
X179697200Y-179185771D01*
X180911485Y-179685771D02*
X180911485Y-180685771D01*
X180554342Y-179114342D02*
X180197200Y-180185771D01*
X181125771Y-180185771D01*
X182554342Y-180542914D02*
X182482914Y-180614342D01*
X182268628Y-180685771D01*
X182125771Y-180685771D01*
X181911485Y-180614342D01*
X181768628Y-180471485D01*
X181697200Y-180328628D01*
X181625771Y-180042914D01*
X181625771Y-179828628D01*
X181697200Y-179542914D01*
X181768628Y-179400057D01*
X181911485Y-179257200D01*
X182125771Y-179185771D01*
X182268628Y-179185771D01*
X182482914Y-179257200D01*
X182554342Y-179328628D01*
X183482914Y-179185771D02*
X183768628Y-179185771D01*
X183911485Y-179257200D01*
X184054342Y-179400057D01*
X184125771Y-179685771D01*
X184125771Y-180185771D01*
X184054342Y-180471485D01*
X183911485Y-180614342D01*
X183768628Y-180685771D01*
X183482914Y-180685771D01*
X183340057Y-180614342D01*
X183197200Y-180471485D01*
X183125771Y-180185771D01*
X183125771Y-179685771D01*
X183197200Y-179400057D01*
X183340057Y-179257200D01*
X183482914Y-179185771D01*
X184768628Y-180685771D02*
X184768628Y-179185771D01*
X185268628Y-180257200D01*
X185768628Y-179185771D01*
X185768628Y-180685771D01*
X188482914Y-180542914D02*
X188411485Y-180614342D01*
X188197200Y-180685771D01*
X188054342Y-180685771D01*
X187840057Y-180614342D01*
X187697200Y-180471485D01*
X187625771Y-180328628D01*
X187554342Y-180042914D01*
X187554342Y-179828628D01*
X187625771Y-179542914D01*
X187697200Y-179400057D01*
X187840057Y-179257200D01*
X188054342Y-179185771D01*
X188197200Y-179185771D01*
X188411485Y-179257200D01*
X188482914Y-179328628D01*
X189411485Y-179185771D02*
X189697200Y-179185771D01*
X189840057Y-179257200D01*
X189982914Y-179400057D01*
X190054342Y-179685771D01*
X190054342Y-180185771D01*
X189982914Y-180471485D01*
X189840057Y-180614342D01*
X189697200Y-180685771D01*
X189411485Y-180685771D01*
X189268628Y-180614342D01*
X189125771Y-180471485D01*
X189054342Y-180185771D01*
X189054342Y-179685771D01*
X189125771Y-179400057D01*
X189268628Y-179257200D01*
X189411485Y-179185771D01*
X190697200Y-180685771D02*
X190697200Y-179185771D01*
X191554342Y-180685771D01*
X191554342Y-179185771D01*
X192768628Y-179900057D02*
X192268628Y-179900057D01*
X192268628Y-180685771D02*
X192268628Y-179185771D01*
X192982914Y-179185771D01*
X193554342Y-180685771D02*
X193554342Y-179185771D01*
X194268628Y-180685771D02*
X194268628Y-179185771D01*
X194625771Y-179185771D01*
X194840057Y-179257200D01*
X194982914Y-179400057D01*
X195054342Y-179542914D01*
X195125771Y-179828628D01*
X195125771Y-180042914D01*
X195054342Y-180328628D01*
X194982914Y-180471485D01*
X194840057Y-180614342D01*
X194625771Y-180685771D01*
X194268628Y-180685771D01*
X195768628Y-179900057D02*
X196268628Y-179900057D01*
X196482914Y-180685771D02*
X195768628Y-180685771D01*
X195768628Y-179185771D01*
X196482914Y-179185771D01*
X197125771Y-180685771D02*
X197125771Y-179185771D01*
X197982914Y-180685771D01*
X197982914Y-179185771D01*
X199554342Y-180542914D02*
X199482914Y-180614342D01*
X199268628Y-180685771D01*
X199125771Y-180685771D01*
X198911485Y-180614342D01*
X198768628Y-180471485D01*
X198697200Y-180328628D01*
X198625771Y-180042914D01*
X198625771Y-179828628D01*
X198697200Y-179542914D01*
X198768628Y-179400057D01*
X198911485Y-179257200D01*
X199125771Y-179185771D01*
X199268628Y-179185771D01*
X199482914Y-179257200D01*
X199554342Y-179328628D01*
X200197200Y-180685771D02*
X200197200Y-179185771D01*
X200840057Y-180257200D02*
X201554342Y-180257200D01*
X200697200Y-180685771D02*
X201197200Y-179185771D01*
X201697200Y-180685771D01*
X202911485Y-180685771D02*
X202197200Y-180685771D01*
X202197200Y-179185771D01*
D10*
D11*
X197002200Y-191507200D02*
X197002200Y-194507200D01*
D10*
D11*
X261002200Y-191507200D02*
X261002200Y-198007200D01*
D14*
X160380000Y-86990000D03*
X160380000Y-91550000D03*
D15*
X168355000Y-90795000D03*
X165005000Y-87745000D03*
X168355000Y-87745000D03*
X165005000Y-90795000D03*
D10*
G36*
X142745142Y-88451174D02*
G01*
X142768803Y-88454684D01*
X142792007Y-88460496D01*
X142814529Y-88468554D01*
X142836153Y-88478782D01*
X142856670Y-88491079D01*
X142875883Y-88505329D01*
X142893607Y-88521393D01*
X142909671Y-88539117D01*
X142923921Y-88558330D01*
X142936218Y-88578847D01*
X142946446Y-88600471D01*
X142954504Y-88622993D01*
X142960316Y-88646197D01*
X142963826Y-88669858D01*
X142965000Y-88693750D01*
X142965000Y-89606250D01*
X142963826Y-89630142D01*
X142960316Y-89653803D01*
X142954504Y-89677007D01*
X142946446Y-89699529D01*
X142936218Y-89721153D01*
X142923921Y-89741670D01*
X142909671Y-89760883D01*
X142893607Y-89778607D01*
X142875883Y-89794671D01*
X142856670Y-89808921D01*
X142836153Y-89821218D01*
X142814529Y-89831446D01*
X142792007Y-89839504D01*
X142768803Y-89845316D01*
X142745142Y-89848826D01*
X142721250Y-89850000D01*
X142233750Y-89850000D01*
X142209858Y-89848826D01*
X142186197Y-89845316D01*
X142162993Y-89839504D01*
X142140471Y-89831446D01*
X142118847Y-89821218D01*
X142098330Y-89808921D01*
X142079117Y-89794671D01*
X142061393Y-89778607D01*
X142045329Y-89760883D01*
X142031079Y-89741670D01*
X142018782Y-89721153D01*
X142008554Y-89699529D01*
X142000496Y-89677007D01*
X141994684Y-89653803D01*
X141991174Y-89630142D01*
X141990000Y-89606250D01*
X141990000Y-88693750D01*
X141991174Y-88669858D01*
X141994684Y-88646197D01*
X142000496Y-88622993D01*
X142008554Y-88600471D01*
X142018782Y-88578847D01*
X142031079Y-88558330D01*
X142045329Y-88539117D01*
X142061393Y-88521393D01*
X142079117Y-88505329D01*
X142098330Y-88491079D01*
X142118847Y-88478782D01*
X142140471Y-88468554D01*
X142162993Y-88460496D01*
X142186197Y-88454684D01*
X142209858Y-88451174D01*
X142233750Y-88450000D01*
X142721250Y-88450000D01*
X142745142Y-88451174D01*
X142745142Y-88451174D01*
G37*
D16*
X142477500Y-89150000D03*
D10*
G36*
X140870142Y-88451174D02*
G01*
X140893803Y-88454684D01*
X140917007Y-88460496D01*
X140939529Y-88468554D01*
X140961153Y-88478782D01*
X140981670Y-88491079D01*
X141000883Y-88505329D01*
X141018607Y-88521393D01*
X141034671Y-88539117D01*
X141048921Y-88558330D01*
X141061218Y-88578847D01*
X141071446Y-88600471D01*
X141079504Y-88622993D01*
X141085316Y-88646197D01*
X141088826Y-88669858D01*
X141090000Y-88693750D01*
X141090000Y-89606250D01*
X141088826Y-89630142D01*
X141085316Y-89653803D01*
X141079504Y-89677007D01*
X141071446Y-89699529D01*
X141061218Y-89721153D01*
X141048921Y-89741670D01*
X141034671Y-89760883D01*
X141018607Y-89778607D01*
X141000883Y-89794671D01*
X140981670Y-89808921D01*
X140961153Y-89821218D01*
X140939529Y-89831446D01*
X140917007Y-89839504D01*
X140893803Y-89845316D01*
X140870142Y-89848826D01*
X140846250Y-89850000D01*
X140358750Y-89850000D01*
X140334858Y-89848826D01*
X140311197Y-89845316D01*
X140287993Y-89839504D01*
X140265471Y-89831446D01*
X140243847Y-89821218D01*
X140223330Y-89808921D01*
X140204117Y-89794671D01*
X140186393Y-89778607D01*
X140170329Y-89760883D01*
X140156079Y-89741670D01*
X140143782Y-89721153D01*
X140133554Y-89699529D01*
X140125496Y-89677007D01*
X140119684Y-89653803D01*
X140116174Y-89630142D01*
X140115000Y-89606250D01*
X140115000Y-88693750D01*
X140116174Y-88669858D01*
X140119684Y-88646197D01*
X140125496Y-88622993D01*
X140133554Y-88600471D01*
X140143782Y-88578847D01*
X140156079Y-88558330D01*
X140170329Y-88539117D01*
X140186393Y-88521393D01*
X140204117Y-88505329D01*
X140223330Y-88491079D01*
X140243847Y-88478782D01*
X140265471Y-88468554D01*
X140287993Y-88460496D01*
X140311197Y-88454684D01*
X140334858Y-88451174D01*
X140358750Y-88450000D01*
X140846250Y-88450000D01*
X140870142Y-88451174D01*
X140870142Y-88451174D01*
G37*
D16*
X140602500Y-89150000D03*
D10*
G36*
X140870142Y-86171174D02*
G01*
X140893803Y-86174684D01*
X140917007Y-86180496D01*
X140939529Y-86188554D01*
X140961153Y-86198782D01*
X140981670Y-86211079D01*
X141000883Y-86225329D01*
X141018607Y-86241393D01*
X141034671Y-86259117D01*
X141048921Y-86278330D01*
X141061218Y-86298847D01*
X141071446Y-86320471D01*
X141079504Y-86342993D01*
X141085316Y-86366197D01*
X141088826Y-86389858D01*
X141090000Y-86413750D01*
X141090000Y-87326250D01*
X141088826Y-87350142D01*
X141085316Y-87373803D01*
X141079504Y-87397007D01*
X141071446Y-87419529D01*
X141061218Y-87441153D01*
X141048921Y-87461670D01*
X141034671Y-87480883D01*
X141018607Y-87498607D01*
X141000883Y-87514671D01*
X140981670Y-87528921D01*
X140961153Y-87541218D01*
X140939529Y-87551446D01*
X140917007Y-87559504D01*
X140893803Y-87565316D01*
X140870142Y-87568826D01*
X140846250Y-87570000D01*
X140358750Y-87570000D01*
X140334858Y-87568826D01*
X140311197Y-87565316D01*
X140287993Y-87559504D01*
X140265471Y-87551446D01*
X140243847Y-87541218D01*
X140223330Y-87528921D01*
X140204117Y-87514671D01*
X140186393Y-87498607D01*
X140170329Y-87480883D01*
X140156079Y-87461670D01*
X140143782Y-87441153D01*
X140133554Y-87419529D01*
X140125496Y-87397007D01*
X140119684Y-87373803D01*
X140116174Y-87350142D01*
X140115000Y-87326250D01*
X140115000Y-86413750D01*
X140116174Y-86389858D01*
X140119684Y-86366197D01*
X140125496Y-86342993D01*
X140133554Y-86320471D01*
X140143782Y-86298847D01*
X140156079Y-86278330D01*
X140170329Y-86259117D01*
X140186393Y-86241393D01*
X140204117Y-86225329D01*
X140223330Y-86211079D01*
X140243847Y-86198782D01*
X140265471Y-86188554D01*
X140287993Y-86180496D01*
X140311197Y-86174684D01*
X140334858Y-86171174D01*
X140358750Y-86170000D01*
X140846250Y-86170000D01*
X140870142Y-86171174D01*
X140870142Y-86171174D01*
G37*
D16*
X140602500Y-86870000D03*
D10*
G36*
X142745142Y-86171174D02*
G01*
X142768803Y-86174684D01*
X142792007Y-86180496D01*
X142814529Y-86188554D01*
X142836153Y-86198782D01*
X142856670Y-86211079D01*
X142875883Y-86225329D01*
X142893607Y-86241393D01*
X142909671Y-86259117D01*
X142923921Y-86278330D01*
X142936218Y-86298847D01*
X142946446Y-86320471D01*
X142954504Y-86342993D01*
X142960316Y-86366197D01*
X142963826Y-86389858D01*
X142965000Y-86413750D01*
X142965000Y-87326250D01*
X142963826Y-87350142D01*
X142960316Y-87373803D01*
X142954504Y-87397007D01*
X142946446Y-87419529D01*
X142936218Y-87441153D01*
X142923921Y-87461670D01*
X142909671Y-87480883D01*
X142893607Y-87498607D01*
X142875883Y-87514671D01*
X142856670Y-87528921D01*
X142836153Y-87541218D01*
X142814529Y-87551446D01*
X142792007Y-87559504D01*
X142768803Y-87565316D01*
X142745142Y-87568826D01*
X142721250Y-87570000D01*
X142233750Y-87570000D01*
X142209858Y-87568826D01*
X142186197Y-87565316D01*
X142162993Y-87559504D01*
X142140471Y-87551446D01*
X142118847Y-87541218D01*
X142098330Y-87528921D01*
X142079117Y-87514671D01*
X142061393Y-87498607D01*
X142045329Y-87480883D01*
X142031079Y-87461670D01*
X142018782Y-87441153D01*
X142008554Y-87419529D01*
X142000496Y-87397007D01*
X141994684Y-87373803D01*
X141991174Y-87350142D01*
X141990000Y-87326250D01*
X141990000Y-86413750D01*
X141991174Y-86389858D01*
X141994684Y-86366197D01*
X142000496Y-86342993D01*
X142008554Y-86320471D01*
X142018782Y-86298847D01*
X142031079Y-86278330D01*
X142045329Y-86259117D01*
X142061393Y-86241393D01*
X142079117Y-86225329D01*
X142098330Y-86211079D01*
X142118847Y-86198782D01*
X142140471Y-86188554D01*
X142162993Y-86180496D01*
X142186197Y-86174684D01*
X142209858Y-86171174D01*
X142233750Y-86170000D01*
X142721250Y-86170000D01*
X142745142Y-86171174D01*
X142745142Y-86171174D01*
G37*
D16*
X142477500Y-86870000D03*
D10*
G36*
X142745142Y-83951174D02*
G01*
X142768803Y-83954684D01*
X142792007Y-83960496D01*
X142814529Y-83968554D01*
X142836153Y-83978782D01*
X142856670Y-83991079D01*
X142875883Y-84005329D01*
X142893607Y-84021393D01*
X142909671Y-84039117D01*
X142923921Y-84058330D01*
X142936218Y-84078847D01*
X142946446Y-84100471D01*
X142954504Y-84122993D01*
X142960316Y-84146197D01*
X142963826Y-84169858D01*
X142965000Y-84193750D01*
X142965000Y-85106250D01*
X142963826Y-85130142D01*
X142960316Y-85153803D01*
X142954504Y-85177007D01*
X142946446Y-85199529D01*
X142936218Y-85221153D01*
X142923921Y-85241670D01*
X142909671Y-85260883D01*
X142893607Y-85278607D01*
X142875883Y-85294671D01*
X142856670Y-85308921D01*
X142836153Y-85321218D01*
X142814529Y-85331446D01*
X142792007Y-85339504D01*
X142768803Y-85345316D01*
X142745142Y-85348826D01*
X142721250Y-85350000D01*
X142233750Y-85350000D01*
X142209858Y-85348826D01*
X142186197Y-85345316D01*
X142162993Y-85339504D01*
X142140471Y-85331446D01*
X142118847Y-85321218D01*
X142098330Y-85308921D01*
X142079117Y-85294671D01*
X142061393Y-85278607D01*
X142045329Y-85260883D01*
X142031079Y-85241670D01*
X142018782Y-85221153D01*
X142008554Y-85199529D01*
X142000496Y-85177007D01*
X141994684Y-85153803D01*
X141991174Y-85130142D01*
X141990000Y-85106250D01*
X141990000Y-84193750D01*
X141991174Y-84169858D01*
X141994684Y-84146197D01*
X142000496Y-84122993D01*
X142008554Y-84100471D01*
X142018782Y-84078847D01*
X142031079Y-84058330D01*
X142045329Y-84039117D01*
X142061393Y-84021393D01*
X142079117Y-84005329D01*
X142098330Y-83991079D01*
X142118847Y-83978782D01*
X142140471Y-83968554D01*
X142162993Y-83960496D01*
X142186197Y-83954684D01*
X142209858Y-83951174D01*
X142233750Y-83950000D01*
X142721250Y-83950000D01*
X142745142Y-83951174D01*
X142745142Y-83951174D01*
G37*
D16*
X142477500Y-84650000D03*
D10*
G36*
X140870142Y-83951174D02*
G01*
X140893803Y-83954684D01*
X140917007Y-83960496D01*
X140939529Y-83968554D01*
X140961153Y-83978782D01*
X140981670Y-83991079D01*
X141000883Y-84005329D01*
X141018607Y-84021393D01*
X141034671Y-84039117D01*
X141048921Y-84058330D01*
X141061218Y-84078847D01*
X141071446Y-84100471D01*
X141079504Y-84122993D01*
X141085316Y-84146197D01*
X141088826Y-84169858D01*
X141090000Y-84193750D01*
X141090000Y-85106250D01*
X141088826Y-85130142D01*
X141085316Y-85153803D01*
X141079504Y-85177007D01*
X141071446Y-85199529D01*
X141061218Y-85221153D01*
X141048921Y-85241670D01*
X141034671Y-85260883D01*
X141018607Y-85278607D01*
X141000883Y-85294671D01*
X140981670Y-85308921D01*
X140961153Y-85321218D01*
X140939529Y-85331446D01*
X140917007Y-85339504D01*
X140893803Y-85345316D01*
X140870142Y-85348826D01*
X140846250Y-85350000D01*
X140358750Y-85350000D01*
X140334858Y-85348826D01*
X140311197Y-85345316D01*
X140287993Y-85339504D01*
X140265471Y-85331446D01*
X140243847Y-85321218D01*
X140223330Y-85308921D01*
X140204117Y-85294671D01*
X140186393Y-85278607D01*
X140170329Y-85260883D01*
X140156079Y-85241670D01*
X140143782Y-85221153D01*
X140133554Y-85199529D01*
X140125496Y-85177007D01*
X140119684Y-85153803D01*
X140116174Y-85130142D01*
X140115000Y-85106250D01*
X140115000Y-84193750D01*
X140116174Y-84169858D01*
X140119684Y-84146197D01*
X140125496Y-84122993D01*
X140133554Y-84100471D01*
X140143782Y-84078847D01*
X140156079Y-84058330D01*
X140170329Y-84039117D01*
X140186393Y-84021393D01*
X140204117Y-84005329D01*
X140223330Y-83991079D01*
X140243847Y-83978782D01*
X140265471Y-83968554D01*
X140287993Y-83960496D01*
X140311197Y-83954684D01*
X140334858Y-83951174D01*
X140358750Y-83950000D01*
X140846250Y-83950000D01*
X140870142Y-83951174D01*
X140870142Y-83951174D01*
G37*
D16*
X140602500Y-84650000D03*
D10*
G36*
X149490142Y-103041174D02*
G01*
X149513803Y-103044684D01*
X149537007Y-103050496D01*
X149559529Y-103058554D01*
X149581153Y-103068782D01*
X149601670Y-103081079D01*
X149620883Y-103095329D01*
X149638607Y-103111393D01*
X149654671Y-103129117D01*
X149668921Y-103148330D01*
X149681218Y-103168847D01*
X149691446Y-103190471D01*
X149699504Y-103212993D01*
X149705316Y-103236197D01*
X149708826Y-103259858D01*
X149710000Y-103283750D01*
X149710000Y-103771250D01*
X149708826Y-103795142D01*
X149705316Y-103818803D01*
X149699504Y-103842007D01*
X149691446Y-103864529D01*
X149681218Y-103886153D01*
X149668921Y-103906670D01*
X149654671Y-103925883D01*
X149638607Y-103943607D01*
X149620883Y-103959671D01*
X149601670Y-103973921D01*
X149581153Y-103986218D01*
X149559529Y-103996446D01*
X149537007Y-104004504D01*
X149513803Y-104010316D01*
X149490142Y-104013826D01*
X149466250Y-104015000D01*
X148553750Y-104015000D01*
X148529858Y-104013826D01*
X148506197Y-104010316D01*
X148482993Y-104004504D01*
X148460471Y-103996446D01*
X148438847Y-103986218D01*
X148418330Y-103973921D01*
X148399117Y-103959671D01*
X148381393Y-103943607D01*
X148365329Y-103925883D01*
X148351079Y-103906670D01*
X148338782Y-103886153D01*
X148328554Y-103864529D01*
X148320496Y-103842007D01*
X148314684Y-103818803D01*
X148311174Y-103795142D01*
X148310000Y-103771250D01*
X148310000Y-103283750D01*
X148311174Y-103259858D01*
X148314684Y-103236197D01*
X148320496Y-103212993D01*
X148328554Y-103190471D01*
X148338782Y-103168847D01*
X148351079Y-103148330D01*
X148365329Y-103129117D01*
X148381393Y-103111393D01*
X148399117Y-103095329D01*
X148418330Y-103081079D01*
X148438847Y-103068782D01*
X148460471Y-103058554D01*
X148482993Y-103050496D01*
X148506197Y-103044684D01*
X148529858Y-103041174D01*
X148553750Y-103040000D01*
X149466250Y-103040000D01*
X149490142Y-103041174D01*
X149490142Y-103041174D01*
G37*
D16*
X149010000Y-103527500D03*
D10*
G36*
X149490142Y-101166174D02*
G01*
X149513803Y-101169684D01*
X149537007Y-101175496D01*
X149559529Y-101183554D01*
X149581153Y-101193782D01*
X149601670Y-101206079D01*
X149620883Y-101220329D01*
X149638607Y-101236393D01*
X149654671Y-101254117D01*
X149668921Y-101273330D01*
X149681218Y-101293847D01*
X149691446Y-101315471D01*
X149699504Y-101337993D01*
X149705316Y-101361197D01*
X149708826Y-101384858D01*
X149710000Y-101408750D01*
X149710000Y-101896250D01*
X149708826Y-101920142D01*
X149705316Y-101943803D01*
X149699504Y-101967007D01*
X149691446Y-101989529D01*
X149681218Y-102011153D01*
X149668921Y-102031670D01*
X149654671Y-102050883D01*
X149638607Y-102068607D01*
X149620883Y-102084671D01*
X149601670Y-102098921D01*
X149581153Y-102111218D01*
X149559529Y-102121446D01*
X149537007Y-102129504D01*
X149513803Y-102135316D01*
X149490142Y-102138826D01*
X149466250Y-102140000D01*
X148553750Y-102140000D01*
X148529858Y-102138826D01*
X148506197Y-102135316D01*
X148482993Y-102129504D01*
X148460471Y-102121446D01*
X148438847Y-102111218D01*
X148418330Y-102098921D01*
X148399117Y-102084671D01*
X148381393Y-102068607D01*
X148365329Y-102050883D01*
X148351079Y-102031670D01*
X148338782Y-102011153D01*
X148328554Y-101989529D01*
X148320496Y-101967007D01*
X148314684Y-101943803D01*
X148311174Y-101920142D01*
X148310000Y-101896250D01*
X148310000Y-101408750D01*
X148311174Y-101384858D01*
X148314684Y-101361197D01*
X148320496Y-101337993D01*
X148328554Y-101315471D01*
X148338782Y-101293847D01*
X148351079Y-101273330D01*
X148365329Y-101254117D01*
X148381393Y-101236393D01*
X148399117Y-101220329D01*
X148418330Y-101206079D01*
X148438847Y-101193782D01*
X148460471Y-101183554D01*
X148482993Y-101175496D01*
X148506197Y-101169684D01*
X148529858Y-101166174D01*
X148553750Y-101165000D01*
X149466250Y-101165000D01*
X149490142Y-101166174D01*
X149490142Y-101166174D01*
G37*
D16*
X149010000Y-101652500D03*
D17*
X153870000Y-101240000D03*
X155770000Y-101240000D03*
X154820000Y-99240000D03*
D18*
X136150000Y-82280000D03*
X139450000Y-82280000D03*
X142270000Y-82230000D03*
X145570000Y-82230000D03*
D19*
X157940000Y-102250000D03*
X159940000Y-101300000D03*
X159940000Y-103200000D03*
D10*
G36*
X148315142Y-92141174D02*
G01*
X148338803Y-92144684D01*
X148362007Y-92150496D01*
X148384529Y-92158554D01*
X148406153Y-92168782D01*
X148426670Y-92181079D01*
X148445883Y-92195329D01*
X148463607Y-92211393D01*
X148479671Y-92229117D01*
X148493921Y-92248330D01*
X148506218Y-92268847D01*
X148516446Y-92290471D01*
X148524504Y-92312993D01*
X148530316Y-92336197D01*
X148533826Y-92359858D01*
X148535000Y-92383750D01*
X148535000Y-93296250D01*
X148533826Y-93320142D01*
X148530316Y-93343803D01*
X148524504Y-93367007D01*
X148516446Y-93389529D01*
X148506218Y-93411153D01*
X148493921Y-93431670D01*
X148479671Y-93450883D01*
X148463607Y-93468607D01*
X148445883Y-93484671D01*
X148426670Y-93498921D01*
X148406153Y-93511218D01*
X148384529Y-93521446D01*
X148362007Y-93529504D01*
X148338803Y-93535316D01*
X148315142Y-93538826D01*
X148291250Y-93540000D01*
X147803750Y-93540000D01*
X147779858Y-93538826D01*
X147756197Y-93535316D01*
X147732993Y-93529504D01*
X147710471Y-93521446D01*
X147688847Y-93511218D01*
X147668330Y-93498921D01*
X147649117Y-93484671D01*
X147631393Y-93468607D01*
X147615329Y-93450883D01*
X147601079Y-93431670D01*
X147588782Y-93411153D01*
X147578554Y-93389529D01*
X147570496Y-93367007D01*
X147564684Y-93343803D01*
X147561174Y-93320142D01*
X147560000Y-93296250D01*
X147560000Y-92383750D01*
X147561174Y-92359858D01*
X147564684Y-92336197D01*
X147570496Y-92312993D01*
X147578554Y-92290471D01*
X147588782Y-92268847D01*
X147601079Y-92248330D01*
X147615329Y-92229117D01*
X147631393Y-92211393D01*
X147649117Y-92195329D01*
X147668330Y-92181079D01*
X147688847Y-92168782D01*
X147710471Y-92158554D01*
X147732993Y-92150496D01*
X147756197Y-92144684D01*
X147779858Y-92141174D01*
X147803750Y-92140000D01*
X148291250Y-92140000D01*
X148315142Y-92141174D01*
X148315142Y-92141174D01*
G37*
D16*
X148047500Y-92840000D03*
D10*
G36*
X146440142Y-92141174D02*
G01*
X146463803Y-92144684D01*
X146487007Y-92150496D01*
X146509529Y-92158554D01*
X146531153Y-92168782D01*
X146551670Y-92181079D01*
X146570883Y-92195329D01*
X146588607Y-92211393D01*
X146604671Y-92229117D01*
X146618921Y-92248330D01*
X146631218Y-92268847D01*
X146641446Y-92290471D01*
X146649504Y-92312993D01*
X146655316Y-92336197D01*
X146658826Y-92359858D01*
X146660000Y-92383750D01*
X146660000Y-93296250D01*
X146658826Y-93320142D01*
X146655316Y-93343803D01*
X146649504Y-93367007D01*
X146641446Y-93389529D01*
X146631218Y-93411153D01*
X146618921Y-93431670D01*
X146604671Y-93450883D01*
X146588607Y-93468607D01*
X146570883Y-93484671D01*
X146551670Y-93498921D01*
X146531153Y-93511218D01*
X146509529Y-93521446D01*
X146487007Y-93529504D01*
X146463803Y-93535316D01*
X146440142Y-93538826D01*
X146416250Y-93540000D01*
X145928750Y-93540000D01*
X145904858Y-93538826D01*
X145881197Y-93535316D01*
X145857993Y-93529504D01*
X145835471Y-93521446D01*
X145813847Y-93511218D01*
X145793330Y-93498921D01*
X145774117Y-93484671D01*
X145756393Y-93468607D01*
X145740329Y-93450883D01*
X145726079Y-93431670D01*
X145713782Y-93411153D01*
X145703554Y-93389529D01*
X145695496Y-93367007D01*
X145689684Y-93343803D01*
X145686174Y-93320142D01*
X145685000Y-93296250D01*
X145685000Y-92383750D01*
X145686174Y-92359858D01*
X145689684Y-92336197D01*
X145695496Y-92312993D01*
X145703554Y-92290471D01*
X145713782Y-92268847D01*
X145726079Y-92248330D01*
X145740329Y-92229117D01*
X145756393Y-92211393D01*
X145774117Y-92195329D01*
X145793330Y-92181079D01*
X145813847Y-92168782D01*
X145835471Y-92158554D01*
X145857993Y-92150496D01*
X145881197Y-92144684D01*
X145904858Y-92141174D01*
X145928750Y-92140000D01*
X146416250Y-92140000D01*
X146440142Y-92141174D01*
X146440142Y-92141174D01*
G37*
D16*
X146172500Y-92840000D03*
D10*
G36*
X149470142Y-97596174D02*
G01*
X149493803Y-97599684D01*
X149517007Y-97605496D01*
X149539529Y-97613554D01*
X149561153Y-97623782D01*
X149581670Y-97636079D01*
X149600883Y-97650329D01*
X149618607Y-97666393D01*
X149634671Y-97684117D01*
X149648921Y-97703330D01*
X149661218Y-97723847D01*
X149671446Y-97745471D01*
X149679504Y-97767993D01*
X149685316Y-97791197D01*
X149688826Y-97814858D01*
X149690000Y-97838750D01*
X149690000Y-98326250D01*
X149688826Y-98350142D01*
X149685316Y-98373803D01*
X149679504Y-98397007D01*
X149671446Y-98419529D01*
X149661218Y-98441153D01*
X149648921Y-98461670D01*
X149634671Y-98480883D01*
X149618607Y-98498607D01*
X149600883Y-98514671D01*
X149581670Y-98528921D01*
X149561153Y-98541218D01*
X149539529Y-98551446D01*
X149517007Y-98559504D01*
X149493803Y-98565316D01*
X149470142Y-98568826D01*
X149446250Y-98570000D01*
X148533750Y-98570000D01*
X148509858Y-98568826D01*
X148486197Y-98565316D01*
X148462993Y-98559504D01*
X148440471Y-98551446D01*
X148418847Y-98541218D01*
X148398330Y-98528921D01*
X148379117Y-98514671D01*
X148361393Y-98498607D01*
X148345329Y-98480883D01*
X148331079Y-98461670D01*
X148318782Y-98441153D01*
X148308554Y-98419529D01*
X148300496Y-98397007D01*
X148294684Y-98373803D01*
X148291174Y-98350142D01*
X148290000Y-98326250D01*
X148290000Y-97838750D01*
X148291174Y-97814858D01*
X148294684Y-97791197D01*
X148300496Y-97767993D01*
X148308554Y-97745471D01*
X148318782Y-97723847D01*
X148331079Y-97703330D01*
X148345329Y-97684117D01*
X148361393Y-97666393D01*
X148379117Y-97650329D01*
X148398330Y-97636079D01*
X148418847Y-97623782D01*
X148440471Y-97613554D01*
X148462993Y-97605496D01*
X148486197Y-97599684D01*
X148509858Y-97596174D01*
X148533750Y-97595000D01*
X149446250Y-97595000D01*
X149470142Y-97596174D01*
X149470142Y-97596174D01*
G37*
D16*
X148990000Y-98082500D03*
D10*
G36*
X149470142Y-99471174D02*
G01*
X149493803Y-99474684D01*
X149517007Y-99480496D01*
X149539529Y-99488554D01*
X149561153Y-99498782D01*
X149581670Y-99511079D01*
X149600883Y-99525329D01*
X149618607Y-99541393D01*
X149634671Y-99559117D01*
X149648921Y-99578330D01*
X149661218Y-99598847D01*
X149671446Y-99620471D01*
X149679504Y-99642993D01*
X149685316Y-99666197D01*
X149688826Y-99689858D01*
X149690000Y-99713750D01*
X149690000Y-100201250D01*
X149688826Y-100225142D01*
X149685316Y-100248803D01*
X149679504Y-100272007D01*
X149671446Y-100294529D01*
X149661218Y-100316153D01*
X149648921Y-100336670D01*
X149634671Y-100355883D01*
X149618607Y-100373607D01*
X149600883Y-100389671D01*
X149581670Y-100403921D01*
X149561153Y-100416218D01*
X149539529Y-100426446D01*
X149517007Y-100434504D01*
X149493803Y-100440316D01*
X149470142Y-100443826D01*
X149446250Y-100445000D01*
X148533750Y-100445000D01*
X148509858Y-100443826D01*
X148486197Y-100440316D01*
X148462993Y-100434504D01*
X148440471Y-100426446D01*
X148418847Y-100416218D01*
X148398330Y-100403921D01*
X148379117Y-100389671D01*
X148361393Y-100373607D01*
X148345329Y-100355883D01*
X148331079Y-100336670D01*
X148318782Y-100316153D01*
X148308554Y-100294529D01*
X148300496Y-100272007D01*
X148294684Y-100248803D01*
X148291174Y-100225142D01*
X148290000Y-100201250D01*
X148290000Y-99713750D01*
X148291174Y-99689858D01*
X148294684Y-99666197D01*
X148300496Y-99642993D01*
X148308554Y-99620471D01*
X148318782Y-99598847D01*
X148331079Y-99578330D01*
X148345329Y-99559117D01*
X148361393Y-99541393D01*
X148379117Y-99525329D01*
X148398330Y-99511079D01*
X148418847Y-99498782D01*
X148440471Y-99488554D01*
X148462993Y-99480496D01*
X148486197Y-99474684D01*
X148509858Y-99471174D01*
X148533750Y-99470000D01*
X149446250Y-99470000D01*
X149470142Y-99471174D01*
X149470142Y-99471174D01*
G37*
D16*
X148990000Y-99957500D03*
D10*
G36*
X162620142Y-100786174D02*
G01*
X162643803Y-100789684D01*
X162667007Y-100795496D01*
X162689529Y-100803554D01*
X162711153Y-100813782D01*
X162731670Y-100826079D01*
X162750883Y-100840329D01*
X162768607Y-100856393D01*
X162784671Y-100874117D01*
X162798921Y-100893330D01*
X162811218Y-100913847D01*
X162821446Y-100935471D01*
X162829504Y-100957993D01*
X162835316Y-100981197D01*
X162838826Y-101004858D01*
X162840000Y-101028750D01*
X162840000Y-101516250D01*
X162838826Y-101540142D01*
X162835316Y-101563803D01*
X162829504Y-101587007D01*
X162821446Y-101609529D01*
X162811218Y-101631153D01*
X162798921Y-101651670D01*
X162784671Y-101670883D01*
X162768607Y-101688607D01*
X162750883Y-101704671D01*
X162731670Y-101718921D01*
X162711153Y-101731218D01*
X162689529Y-101741446D01*
X162667007Y-101749504D01*
X162643803Y-101755316D01*
X162620142Y-101758826D01*
X162596250Y-101760000D01*
X161683750Y-101760000D01*
X161659858Y-101758826D01*
X161636197Y-101755316D01*
X161612993Y-101749504D01*
X161590471Y-101741446D01*
X161568847Y-101731218D01*
X161548330Y-101718921D01*
X161529117Y-101704671D01*
X161511393Y-101688607D01*
X161495329Y-101670883D01*
X161481079Y-101651670D01*
X161468782Y-101631153D01*
X161458554Y-101609529D01*
X161450496Y-101587007D01*
X161444684Y-101563803D01*
X161441174Y-101540142D01*
X161440000Y-101516250D01*
X161440000Y-101028750D01*
X161441174Y-101004858D01*
X161444684Y-100981197D01*
X161450496Y-100957993D01*
X161458554Y-100935471D01*
X161468782Y-100913847D01*
X161481079Y-100893330D01*
X161495329Y-100874117D01*
X161511393Y-100856393D01*
X161529117Y-100840329D01*
X161548330Y-100826079D01*
X161568847Y-100813782D01*
X161590471Y-100803554D01*
X161612993Y-100795496D01*
X161636197Y-100789684D01*
X161659858Y-100786174D01*
X161683750Y-100785000D01*
X162596250Y-100785000D01*
X162620142Y-100786174D01*
X162620142Y-100786174D01*
G37*
D16*
X162140000Y-101272500D03*
D10*
G36*
X162620142Y-102661174D02*
G01*
X162643803Y-102664684D01*
X162667007Y-102670496D01*
X162689529Y-102678554D01*
X162711153Y-102688782D01*
X162731670Y-102701079D01*
X162750883Y-102715329D01*
X162768607Y-102731393D01*
X162784671Y-102749117D01*
X162798921Y-102768330D01*
X162811218Y-102788847D01*
X162821446Y-102810471D01*
X162829504Y-102832993D01*
X162835316Y-102856197D01*
X162838826Y-102879858D01*
X162840000Y-102903750D01*
X162840000Y-103391250D01*
X162838826Y-103415142D01*
X162835316Y-103438803D01*
X162829504Y-103462007D01*
X162821446Y-103484529D01*
X162811218Y-103506153D01*
X162798921Y-103526670D01*
X162784671Y-103545883D01*
X162768607Y-103563607D01*
X162750883Y-103579671D01*
X162731670Y-103593921D01*
X162711153Y-103606218D01*
X162689529Y-103616446D01*
X162667007Y-103624504D01*
X162643803Y-103630316D01*
X162620142Y-103633826D01*
X162596250Y-103635000D01*
X161683750Y-103635000D01*
X161659858Y-103633826D01*
X161636197Y-103630316D01*
X161612993Y-103624504D01*
X161590471Y-103616446D01*
X161568847Y-103606218D01*
X161548330Y-103593921D01*
X161529117Y-103579671D01*
X161511393Y-103563607D01*
X161495329Y-103545883D01*
X161481079Y-103526670D01*
X161468782Y-103506153D01*
X161458554Y-103484529D01*
X161450496Y-103462007D01*
X161444684Y-103438803D01*
X161441174Y-103415142D01*
X161440000Y-103391250D01*
X161440000Y-102903750D01*
X161441174Y-102879858D01*
X161444684Y-102856197D01*
X161450496Y-102832993D01*
X161458554Y-102810471D01*
X161468782Y-102788847D01*
X161481079Y-102768330D01*
X161495329Y-102749117D01*
X161511393Y-102731393D01*
X161529117Y-102715329D01*
X161548330Y-102701079D01*
X161568847Y-102688782D01*
X161590471Y-102678554D01*
X161612993Y-102670496D01*
X161636197Y-102664684D01*
X161659858Y-102661174D01*
X161683750Y-102660000D01*
X162596250Y-102660000D01*
X162620142Y-102661174D01*
X162620142Y-102661174D01*
G37*
D16*
X162140000Y-103147500D03*
D10*
G36*
X152270142Y-99491174D02*
G01*
X152293803Y-99494684D01*
X152317007Y-99500496D01*
X152339529Y-99508554D01*
X152361153Y-99518782D01*
X152381670Y-99531079D01*
X152400883Y-99545329D01*
X152418607Y-99561393D01*
X152434671Y-99579117D01*
X152448921Y-99598330D01*
X152461218Y-99618847D01*
X152471446Y-99640471D01*
X152479504Y-99662993D01*
X152485316Y-99686197D01*
X152488826Y-99709858D01*
X152490000Y-99733750D01*
X152490000Y-100221250D01*
X152488826Y-100245142D01*
X152485316Y-100268803D01*
X152479504Y-100292007D01*
X152471446Y-100314529D01*
X152461218Y-100336153D01*
X152448921Y-100356670D01*
X152434671Y-100375883D01*
X152418607Y-100393607D01*
X152400883Y-100409671D01*
X152381670Y-100423921D01*
X152361153Y-100436218D01*
X152339529Y-100446446D01*
X152317007Y-100454504D01*
X152293803Y-100460316D01*
X152270142Y-100463826D01*
X152246250Y-100465000D01*
X151333750Y-100465000D01*
X151309858Y-100463826D01*
X151286197Y-100460316D01*
X151262993Y-100454504D01*
X151240471Y-100446446D01*
X151218847Y-100436218D01*
X151198330Y-100423921D01*
X151179117Y-100409671D01*
X151161393Y-100393607D01*
X151145329Y-100375883D01*
X151131079Y-100356670D01*
X151118782Y-100336153D01*
X151108554Y-100314529D01*
X151100496Y-100292007D01*
X151094684Y-100268803D01*
X151091174Y-100245142D01*
X151090000Y-100221250D01*
X151090000Y-99733750D01*
X151091174Y-99709858D01*
X151094684Y-99686197D01*
X151100496Y-99662993D01*
X151108554Y-99640471D01*
X151118782Y-99618847D01*
X151131079Y-99598330D01*
X151145329Y-99579117D01*
X151161393Y-99561393D01*
X151179117Y-99545329D01*
X151198330Y-99531079D01*
X151218847Y-99518782D01*
X151240471Y-99508554D01*
X151262993Y-99500496D01*
X151286197Y-99494684D01*
X151309858Y-99491174D01*
X151333750Y-99490000D01*
X152246250Y-99490000D01*
X152270142Y-99491174D01*
X152270142Y-99491174D01*
G37*
D16*
X151790000Y-99977500D03*
D10*
G36*
X152270142Y-97616174D02*
G01*
X152293803Y-97619684D01*
X152317007Y-97625496D01*
X152339529Y-97633554D01*
X152361153Y-97643782D01*
X152381670Y-97656079D01*
X152400883Y-97670329D01*
X152418607Y-97686393D01*
X152434671Y-97704117D01*
X152448921Y-97723330D01*
X152461218Y-97743847D01*
X152471446Y-97765471D01*
X152479504Y-97787993D01*
X152485316Y-97811197D01*
X152488826Y-97834858D01*
X152490000Y-97858750D01*
X152490000Y-98346250D01*
X152488826Y-98370142D01*
X152485316Y-98393803D01*
X152479504Y-98417007D01*
X152471446Y-98439529D01*
X152461218Y-98461153D01*
X152448921Y-98481670D01*
X152434671Y-98500883D01*
X152418607Y-98518607D01*
X152400883Y-98534671D01*
X152381670Y-98548921D01*
X152361153Y-98561218D01*
X152339529Y-98571446D01*
X152317007Y-98579504D01*
X152293803Y-98585316D01*
X152270142Y-98588826D01*
X152246250Y-98590000D01*
X151333750Y-98590000D01*
X151309858Y-98588826D01*
X151286197Y-98585316D01*
X151262993Y-98579504D01*
X151240471Y-98571446D01*
X151218847Y-98561218D01*
X151198330Y-98548921D01*
X151179117Y-98534671D01*
X151161393Y-98518607D01*
X151145329Y-98500883D01*
X151131079Y-98481670D01*
X151118782Y-98461153D01*
X151108554Y-98439529D01*
X151100496Y-98417007D01*
X151094684Y-98393803D01*
X151091174Y-98370142D01*
X151090000Y-98346250D01*
X151090000Y-97858750D01*
X151091174Y-97834858D01*
X151094684Y-97811197D01*
X151100496Y-97787993D01*
X151108554Y-97765471D01*
X151118782Y-97743847D01*
X151131079Y-97723330D01*
X151145329Y-97704117D01*
X151161393Y-97686393D01*
X151179117Y-97670329D01*
X151198330Y-97656079D01*
X151218847Y-97643782D01*
X151240471Y-97633554D01*
X151262993Y-97625496D01*
X151286197Y-97619684D01*
X151309858Y-97616174D01*
X151333750Y-97615000D01*
X152246250Y-97615000D01*
X152270142Y-97616174D01*
X152270142Y-97616174D01*
G37*
D16*
X151790000Y-98102500D03*
D10*
G36*
X157095142Y-90681174D02*
G01*
X157118803Y-90684684D01*
X157142007Y-90690496D01*
X157164529Y-90698554D01*
X157186153Y-90708782D01*
X157206670Y-90721079D01*
X157225883Y-90735329D01*
X157243607Y-90751393D01*
X157259671Y-90769117D01*
X157273921Y-90788330D01*
X157286218Y-90808847D01*
X157296446Y-90830471D01*
X157304504Y-90852993D01*
X157310316Y-90876197D01*
X157313826Y-90899858D01*
X157315000Y-90923750D01*
X157315000Y-91836250D01*
X157313826Y-91860142D01*
X157310316Y-91883803D01*
X157304504Y-91907007D01*
X157296446Y-91929529D01*
X157286218Y-91951153D01*
X157273921Y-91971670D01*
X157259671Y-91990883D01*
X157243607Y-92008607D01*
X157225883Y-92024671D01*
X157206670Y-92038921D01*
X157186153Y-92051218D01*
X157164529Y-92061446D01*
X157142007Y-92069504D01*
X157118803Y-92075316D01*
X157095142Y-92078826D01*
X157071250Y-92080000D01*
X156583750Y-92080000D01*
X156559858Y-92078826D01*
X156536197Y-92075316D01*
X156512993Y-92069504D01*
X156490471Y-92061446D01*
X156468847Y-92051218D01*
X156448330Y-92038921D01*
X156429117Y-92024671D01*
X156411393Y-92008607D01*
X156395329Y-91990883D01*
X156381079Y-91971670D01*
X156368782Y-91951153D01*
X156358554Y-91929529D01*
X156350496Y-91907007D01*
X156344684Y-91883803D01*
X156341174Y-91860142D01*
X156340000Y-91836250D01*
X156340000Y-90923750D01*
X156341174Y-90899858D01*
X156344684Y-90876197D01*
X156350496Y-90852993D01*
X156358554Y-90830471D01*
X156368782Y-90808847D01*
X156381079Y-90788330D01*
X156395329Y-90769117D01*
X156411393Y-90751393D01*
X156429117Y-90735329D01*
X156448330Y-90721079D01*
X156468847Y-90708782D01*
X156490471Y-90698554D01*
X156512993Y-90690496D01*
X156536197Y-90684684D01*
X156559858Y-90681174D01*
X156583750Y-90680000D01*
X157071250Y-90680000D01*
X157095142Y-90681174D01*
X157095142Y-90681174D01*
G37*
D16*
X156827500Y-91380000D03*
D10*
G36*
X155220142Y-90681174D02*
G01*
X155243803Y-90684684D01*
X155267007Y-90690496D01*
X155289529Y-90698554D01*
X155311153Y-90708782D01*
X155331670Y-90721079D01*
X155350883Y-90735329D01*
X155368607Y-90751393D01*
X155384671Y-90769117D01*
X155398921Y-90788330D01*
X155411218Y-90808847D01*
X155421446Y-90830471D01*
X155429504Y-90852993D01*
X155435316Y-90876197D01*
X155438826Y-90899858D01*
X155440000Y-90923750D01*
X155440000Y-91836250D01*
X155438826Y-91860142D01*
X155435316Y-91883803D01*
X155429504Y-91907007D01*
X155421446Y-91929529D01*
X155411218Y-91951153D01*
X155398921Y-91971670D01*
X155384671Y-91990883D01*
X155368607Y-92008607D01*
X155350883Y-92024671D01*
X155331670Y-92038921D01*
X155311153Y-92051218D01*
X155289529Y-92061446D01*
X155267007Y-92069504D01*
X155243803Y-92075316D01*
X155220142Y-92078826D01*
X155196250Y-92080000D01*
X154708750Y-92080000D01*
X154684858Y-92078826D01*
X154661197Y-92075316D01*
X154637993Y-92069504D01*
X154615471Y-92061446D01*
X154593847Y-92051218D01*
X154573330Y-92038921D01*
X154554117Y-92024671D01*
X154536393Y-92008607D01*
X154520329Y-91990883D01*
X154506079Y-91971670D01*
X154493782Y-91951153D01*
X154483554Y-91929529D01*
X154475496Y-91907007D01*
X154469684Y-91883803D01*
X154466174Y-91860142D01*
X154465000Y-91836250D01*
X154465000Y-90923750D01*
X154466174Y-90899858D01*
X154469684Y-90876197D01*
X154475496Y-90852993D01*
X154483554Y-90830471D01*
X154493782Y-90808847D01*
X154506079Y-90788330D01*
X154520329Y-90769117D01*
X154536393Y-90751393D01*
X154554117Y-90735329D01*
X154573330Y-90721079D01*
X154593847Y-90708782D01*
X154615471Y-90698554D01*
X154637993Y-90690496D01*
X154661197Y-90684684D01*
X154684858Y-90681174D01*
X154708750Y-90680000D01*
X155196250Y-90680000D01*
X155220142Y-90681174D01*
X155220142Y-90681174D01*
G37*
D16*
X154952500Y-91380000D03*
D10*
G36*
X150122642Y-92111174D02*
G01*
X150146303Y-92114684D01*
X150169507Y-92120496D01*
X150192029Y-92128554D01*
X150213653Y-92138782D01*
X150234170Y-92151079D01*
X150253383Y-92165329D01*
X150271107Y-92181393D01*
X150287171Y-92199117D01*
X150301421Y-92218330D01*
X150313718Y-92238847D01*
X150323946Y-92260471D01*
X150332004Y-92282993D01*
X150337816Y-92306197D01*
X150341326Y-92329858D01*
X150342500Y-92353750D01*
X150342500Y-93266250D01*
X150341326Y-93290142D01*
X150337816Y-93313803D01*
X150332004Y-93337007D01*
X150323946Y-93359529D01*
X150313718Y-93381153D01*
X150301421Y-93401670D01*
X150287171Y-93420883D01*
X150271107Y-93438607D01*
X150253383Y-93454671D01*
X150234170Y-93468921D01*
X150213653Y-93481218D01*
X150192029Y-93491446D01*
X150169507Y-93499504D01*
X150146303Y-93505316D01*
X150122642Y-93508826D01*
X150098750Y-93510000D01*
X149611250Y-93510000D01*
X149587358Y-93508826D01*
X149563697Y-93505316D01*
X149540493Y-93499504D01*
X149517971Y-93491446D01*
X149496347Y-93481218D01*
X149475830Y-93468921D01*
X149456617Y-93454671D01*
X149438893Y-93438607D01*
X149422829Y-93420883D01*
X149408579Y-93401670D01*
X149396282Y-93381153D01*
X149386054Y-93359529D01*
X149377996Y-93337007D01*
X149372184Y-93313803D01*
X149368674Y-93290142D01*
X149367500Y-93266250D01*
X149367500Y-92353750D01*
X149368674Y-92329858D01*
X149372184Y-92306197D01*
X149377996Y-92282993D01*
X149386054Y-92260471D01*
X149396282Y-92238847D01*
X149408579Y-92218330D01*
X149422829Y-92199117D01*
X149438893Y-92181393D01*
X149456617Y-92165329D01*
X149475830Y-92151079D01*
X149496347Y-92138782D01*
X149517971Y-92128554D01*
X149540493Y-92120496D01*
X149563697Y-92114684D01*
X149587358Y-92111174D01*
X149611250Y-92110000D01*
X150098750Y-92110000D01*
X150122642Y-92111174D01*
X150122642Y-92111174D01*
G37*
D16*
X149855000Y-92810000D03*
D10*
G36*
X151997642Y-92111174D02*
G01*
X152021303Y-92114684D01*
X152044507Y-92120496D01*
X152067029Y-92128554D01*
X152088653Y-92138782D01*
X152109170Y-92151079D01*
X152128383Y-92165329D01*
X152146107Y-92181393D01*
X152162171Y-92199117D01*
X152176421Y-92218330D01*
X152188718Y-92238847D01*
X152198946Y-92260471D01*
X152207004Y-92282993D01*
X152212816Y-92306197D01*
X152216326Y-92329858D01*
X152217500Y-92353750D01*
X152217500Y-93266250D01*
X152216326Y-93290142D01*
X152212816Y-93313803D01*
X152207004Y-93337007D01*
X152198946Y-93359529D01*
X152188718Y-93381153D01*
X152176421Y-93401670D01*
X152162171Y-93420883D01*
X152146107Y-93438607D01*
X152128383Y-93454671D01*
X152109170Y-93468921D01*
X152088653Y-93481218D01*
X152067029Y-93491446D01*
X152044507Y-93499504D01*
X152021303Y-93505316D01*
X151997642Y-93508826D01*
X151973750Y-93510000D01*
X151486250Y-93510000D01*
X151462358Y-93508826D01*
X151438697Y-93505316D01*
X151415493Y-93499504D01*
X151392971Y-93491446D01*
X151371347Y-93481218D01*
X151350830Y-93468921D01*
X151331617Y-93454671D01*
X151313893Y-93438607D01*
X151297829Y-93420883D01*
X151283579Y-93401670D01*
X151271282Y-93381153D01*
X151261054Y-93359529D01*
X151252996Y-93337007D01*
X151247184Y-93313803D01*
X151243674Y-93290142D01*
X151242500Y-93266250D01*
X151242500Y-92353750D01*
X151243674Y-92329858D01*
X151247184Y-92306197D01*
X151252996Y-92282993D01*
X151261054Y-92260471D01*
X151271282Y-92238847D01*
X151283579Y-92218330D01*
X151297829Y-92199117D01*
X151313893Y-92181393D01*
X151331617Y-92165329D01*
X151350830Y-92151079D01*
X151371347Y-92138782D01*
X151392971Y-92128554D01*
X151415493Y-92120496D01*
X151438697Y-92114684D01*
X151462358Y-92111174D01*
X151486250Y-92110000D01*
X151973750Y-92110000D01*
X151997642Y-92111174D01*
X151997642Y-92111174D01*
G37*
D16*
X151730000Y-92810000D03*
D10*
G36*
X149319504Y-94816204D02*
G01*
X149343773Y-94819804D01*
X149367571Y-94825765D01*
X149390671Y-94834030D01*
X149412849Y-94844520D01*
X149433893Y-94857133D01*
X149453598Y-94871747D01*
X149471777Y-94888223D01*
X149488253Y-94906402D01*
X149502867Y-94926107D01*
X149515480Y-94947151D01*
X149525970Y-94969329D01*
X149534235Y-94992429D01*
X149540196Y-95016227D01*
X149543796Y-95040496D01*
X149545000Y-95065000D01*
X149545000Y-96315000D01*
X149543796Y-96339504D01*
X149540196Y-96363773D01*
X149534235Y-96387571D01*
X149525970Y-96410671D01*
X149515480Y-96432849D01*
X149502867Y-96453893D01*
X149488253Y-96473598D01*
X149471777Y-96491777D01*
X149453598Y-96508253D01*
X149433893Y-96522867D01*
X149412849Y-96535480D01*
X149390671Y-96545970D01*
X149367571Y-96554235D01*
X149343773Y-96560196D01*
X149319504Y-96563796D01*
X149295000Y-96565000D01*
X148545000Y-96565000D01*
X148520496Y-96563796D01*
X148496227Y-96560196D01*
X148472429Y-96554235D01*
X148449329Y-96545970D01*
X148427151Y-96535480D01*
X148406107Y-96522867D01*
X148386402Y-96508253D01*
X148368223Y-96491777D01*
X148351747Y-96473598D01*
X148337133Y-96453893D01*
X148324520Y-96432849D01*
X148314030Y-96410671D01*
X148305765Y-96387571D01*
X148299804Y-96363773D01*
X148296204Y-96339504D01*
X148295000Y-96315000D01*
X148295000Y-95065000D01*
X148296204Y-95040496D01*
X148299804Y-95016227D01*
X148305765Y-94992429D01*
X148314030Y-94969329D01*
X148324520Y-94947151D01*
X148337133Y-94926107D01*
X148351747Y-94906402D01*
X148368223Y-94888223D01*
X148386402Y-94871747D01*
X148406107Y-94857133D01*
X148427151Y-94844520D01*
X148449329Y-94834030D01*
X148472429Y-94825765D01*
X148496227Y-94819804D01*
X148520496Y-94816204D01*
X148545000Y-94815000D01*
X149295000Y-94815000D01*
X149319504Y-94816204D01*
X149319504Y-94816204D01*
G37*
D20*
X148920000Y-95690000D03*
D10*
G36*
X152119504Y-94816204D02*
G01*
X152143773Y-94819804D01*
X152167571Y-94825765D01*
X152190671Y-94834030D01*
X152212849Y-94844520D01*
X152233893Y-94857133D01*
X152253598Y-94871747D01*
X152271777Y-94888223D01*
X152288253Y-94906402D01*
X152302867Y-94926107D01*
X152315480Y-94947151D01*
X152325970Y-94969329D01*
X152334235Y-94992429D01*
X152340196Y-95016227D01*
X152343796Y-95040496D01*
X152345000Y-95065000D01*
X152345000Y-96315000D01*
X152343796Y-96339504D01*
X152340196Y-96363773D01*
X152334235Y-96387571D01*
X152325970Y-96410671D01*
X152315480Y-96432849D01*
X152302867Y-96453893D01*
X152288253Y-96473598D01*
X152271777Y-96491777D01*
X152253598Y-96508253D01*
X152233893Y-96522867D01*
X152212849Y-96535480D01*
X152190671Y-96545970D01*
X152167571Y-96554235D01*
X152143773Y-96560196D01*
X152119504Y-96563796D01*
X152095000Y-96565000D01*
X151345000Y-96565000D01*
X151320496Y-96563796D01*
X151296227Y-96560196D01*
X151272429Y-96554235D01*
X151249329Y-96545970D01*
X151227151Y-96535480D01*
X151206107Y-96522867D01*
X151186402Y-96508253D01*
X151168223Y-96491777D01*
X151151747Y-96473598D01*
X151137133Y-96453893D01*
X151124520Y-96432849D01*
X151114030Y-96410671D01*
X151105765Y-96387571D01*
X151099804Y-96363773D01*
X151096204Y-96339504D01*
X151095000Y-96315000D01*
X151095000Y-95065000D01*
X151096204Y-95040496D01*
X151099804Y-95016227D01*
X151105765Y-94992429D01*
X151114030Y-94969329D01*
X151124520Y-94947151D01*
X151137133Y-94926107D01*
X151151747Y-94906402D01*
X151168223Y-94888223D01*
X151186402Y-94871747D01*
X151206107Y-94857133D01*
X151227151Y-94844520D01*
X151249329Y-94834030D01*
X151272429Y-94825765D01*
X151296227Y-94819804D01*
X151320496Y-94816204D01*
X151345000Y-94815000D01*
X152095000Y-94815000D01*
X152119504Y-94816204D01*
X152119504Y-94816204D01*
G37*
D20*
X151720000Y-95690000D03*
D10*
G36*
X141499504Y-102276204D02*
G01*
X141523773Y-102279804D01*
X141547571Y-102285765D01*
X141570671Y-102294030D01*
X141592849Y-102304520D01*
X141613893Y-102317133D01*
X141633598Y-102331747D01*
X141651777Y-102348223D01*
X141668253Y-102366402D01*
X141682867Y-102386107D01*
X141695480Y-102407151D01*
X141705970Y-102429329D01*
X141714235Y-102452429D01*
X141720196Y-102476227D01*
X141723796Y-102500496D01*
X141725000Y-102525000D01*
X141725000Y-104675000D01*
X141723796Y-104699504D01*
X141720196Y-104723773D01*
X141714235Y-104747571D01*
X141705970Y-104770671D01*
X141695480Y-104792849D01*
X141682867Y-104813893D01*
X141668253Y-104833598D01*
X141651777Y-104851777D01*
X141633598Y-104868253D01*
X141613893Y-104882867D01*
X141592849Y-104895480D01*
X141570671Y-104905970D01*
X141547571Y-104914235D01*
X141523773Y-104920196D01*
X141499504Y-104923796D01*
X141475000Y-104925000D01*
X140725000Y-104925000D01*
X140700496Y-104923796D01*
X140676227Y-104920196D01*
X140652429Y-104914235D01*
X140629329Y-104905970D01*
X140607151Y-104895480D01*
X140586107Y-104882867D01*
X140566402Y-104868253D01*
X140548223Y-104851777D01*
X140531747Y-104833598D01*
X140517133Y-104813893D01*
X140504520Y-104792849D01*
X140494030Y-104770671D01*
X140485765Y-104747571D01*
X140479804Y-104723773D01*
X140476204Y-104699504D01*
X140475000Y-104675000D01*
X140475000Y-102525000D01*
X140476204Y-102500496D01*
X140479804Y-102476227D01*
X140485765Y-102452429D01*
X140494030Y-102429329D01*
X140504520Y-102407151D01*
X140517133Y-102386107D01*
X140531747Y-102366402D01*
X140548223Y-102348223D01*
X140566402Y-102331747D01*
X140586107Y-102317133D01*
X140607151Y-102304520D01*
X140629329Y-102294030D01*
X140652429Y-102285765D01*
X140676227Y-102279804D01*
X140700496Y-102276204D01*
X140725000Y-102275000D01*
X141475000Y-102275000D01*
X141499504Y-102276204D01*
X141499504Y-102276204D01*
G37*
D20*
X141100000Y-103600000D03*
D10*
G36*
X144299504Y-102276204D02*
G01*
X144323773Y-102279804D01*
X144347571Y-102285765D01*
X144370671Y-102294030D01*
X144392849Y-102304520D01*
X144413893Y-102317133D01*
X144433598Y-102331747D01*
X144451777Y-102348223D01*
X144468253Y-102366402D01*
X144482867Y-102386107D01*
X144495480Y-102407151D01*
X144505970Y-102429329D01*
X144514235Y-102452429D01*
X144520196Y-102476227D01*
X144523796Y-102500496D01*
X144525000Y-102525000D01*
X144525000Y-104675000D01*
X144523796Y-104699504D01*
X144520196Y-104723773D01*
X144514235Y-104747571D01*
X144505970Y-104770671D01*
X144495480Y-104792849D01*
X144482867Y-104813893D01*
X144468253Y-104833598D01*
X144451777Y-104851777D01*
X144433598Y-104868253D01*
X144413893Y-104882867D01*
X144392849Y-104895480D01*
X144370671Y-104905970D01*
X144347571Y-104914235D01*
X144323773Y-104920196D01*
X144299504Y-104923796D01*
X144275000Y-104925000D01*
X143525000Y-104925000D01*
X143500496Y-104923796D01*
X143476227Y-104920196D01*
X143452429Y-104914235D01*
X143429329Y-104905970D01*
X143407151Y-104895480D01*
X143386107Y-104882867D01*
X143366402Y-104868253D01*
X143348223Y-104851777D01*
X143331747Y-104833598D01*
X143317133Y-104813893D01*
X143304520Y-104792849D01*
X143294030Y-104770671D01*
X143285765Y-104747571D01*
X143279804Y-104723773D01*
X143276204Y-104699504D01*
X143275000Y-104675000D01*
X143275000Y-102525000D01*
X143276204Y-102500496D01*
X143279804Y-102476227D01*
X143285765Y-102452429D01*
X143294030Y-102429329D01*
X143304520Y-102407151D01*
X143317133Y-102386107D01*
X143331747Y-102366402D01*
X143348223Y-102348223D01*
X143366402Y-102331747D01*
X143386107Y-102317133D01*
X143407151Y-102304520D01*
X143429329Y-102294030D01*
X143452429Y-102285765D01*
X143476227Y-102279804D01*
X143500496Y-102276204D01*
X143525000Y-102275000D01*
X144275000Y-102275000D01*
X144299504Y-102276204D01*
X144299504Y-102276204D01*
G37*
D20*
X143900000Y-103600000D03*
D10*
G36*
X133999504Y-100836204D02*
G01*
X134023773Y-100839804D01*
X134047571Y-100845765D01*
X134070671Y-100854030D01*
X134092849Y-100864520D01*
X134113893Y-100877133D01*
X134133598Y-100891747D01*
X134151777Y-100908223D01*
X134168253Y-100926402D01*
X134182867Y-100946107D01*
X134195480Y-100967151D01*
X134205970Y-100989329D01*
X134214235Y-101012429D01*
X134220196Y-101036227D01*
X134223796Y-101060496D01*
X134225000Y-101085000D01*
X134225000Y-101835000D01*
X134223796Y-101859504D01*
X134220196Y-101883773D01*
X134214235Y-101907571D01*
X134205970Y-101930671D01*
X134195480Y-101952849D01*
X134182867Y-101973893D01*
X134168253Y-101993598D01*
X134151777Y-102011777D01*
X134133598Y-102028253D01*
X134113893Y-102042867D01*
X134092849Y-102055480D01*
X134070671Y-102065970D01*
X134047571Y-102074235D01*
X134023773Y-102080196D01*
X133999504Y-102083796D01*
X133975000Y-102085000D01*
X131825000Y-102085000D01*
X131800496Y-102083796D01*
X131776227Y-102080196D01*
X131752429Y-102074235D01*
X131729329Y-102065970D01*
X131707151Y-102055480D01*
X131686107Y-102042867D01*
X131666402Y-102028253D01*
X131648223Y-102011777D01*
X131631747Y-101993598D01*
X131617133Y-101973893D01*
X131604520Y-101952849D01*
X131594030Y-101930671D01*
X131585765Y-101907571D01*
X131579804Y-101883773D01*
X131576204Y-101859504D01*
X131575000Y-101835000D01*
X131575000Y-101085000D01*
X131576204Y-101060496D01*
X131579804Y-101036227D01*
X131585765Y-101012429D01*
X131594030Y-100989329D01*
X131604520Y-100967151D01*
X131617133Y-100946107D01*
X131631747Y-100926402D01*
X131648223Y-100908223D01*
X131666402Y-100891747D01*
X131686107Y-100877133D01*
X131707151Y-100864520D01*
X131729329Y-100854030D01*
X131752429Y-100845765D01*
X131776227Y-100839804D01*
X131800496Y-100836204D01*
X131825000Y-100835000D01*
X133975000Y-100835000D01*
X133999504Y-100836204D01*
X133999504Y-100836204D01*
G37*
D20*
X132900000Y-101460000D03*
D10*
G36*
X133999504Y-103636204D02*
G01*
X134023773Y-103639804D01*
X134047571Y-103645765D01*
X134070671Y-103654030D01*
X134092849Y-103664520D01*
X134113893Y-103677133D01*
X134133598Y-103691747D01*
X134151777Y-103708223D01*
X134168253Y-103726402D01*
X134182867Y-103746107D01*
X134195480Y-103767151D01*
X134205970Y-103789329D01*
X134214235Y-103812429D01*
X134220196Y-103836227D01*
X134223796Y-103860496D01*
X134225000Y-103885000D01*
X134225000Y-104635000D01*
X134223796Y-104659504D01*
X134220196Y-104683773D01*
X134214235Y-104707571D01*
X134205970Y-104730671D01*
X134195480Y-104752849D01*
X134182867Y-104773893D01*
X134168253Y-104793598D01*
X134151777Y-104811777D01*
X134133598Y-104828253D01*
X134113893Y-104842867D01*
X134092849Y-104855480D01*
X134070671Y-104865970D01*
X134047571Y-104874235D01*
X134023773Y-104880196D01*
X133999504Y-104883796D01*
X133975000Y-104885000D01*
X131825000Y-104885000D01*
X131800496Y-104883796D01*
X131776227Y-104880196D01*
X131752429Y-104874235D01*
X131729329Y-104865970D01*
X131707151Y-104855480D01*
X131686107Y-104842867D01*
X131666402Y-104828253D01*
X131648223Y-104811777D01*
X131631747Y-104793598D01*
X131617133Y-104773893D01*
X131604520Y-104752849D01*
X131594030Y-104730671D01*
X131585765Y-104707571D01*
X131579804Y-104683773D01*
X131576204Y-104659504D01*
X131575000Y-104635000D01*
X131575000Y-103885000D01*
X131576204Y-103860496D01*
X131579804Y-103836227D01*
X131585765Y-103812429D01*
X131594030Y-103789329D01*
X131604520Y-103767151D01*
X131617133Y-103746107D01*
X131631747Y-103726402D01*
X131648223Y-103708223D01*
X131666402Y-103691747D01*
X131686107Y-103677133D01*
X131707151Y-103664520D01*
X131729329Y-103654030D01*
X131752429Y-103645765D01*
X131776227Y-103639804D01*
X131800496Y-103636204D01*
X131825000Y-103635000D01*
X133975000Y-103635000D01*
X133999504Y-103636204D01*
X133999504Y-103636204D01*
G37*
D20*
X132900000Y-104260000D03*
D10*
G36*
X137759504Y-98436204D02*
G01*
X137783773Y-98439804D01*
X137807571Y-98445765D01*
X137830671Y-98454030D01*
X137852849Y-98464520D01*
X137873893Y-98477133D01*
X137893598Y-98491747D01*
X137911777Y-98508223D01*
X137928253Y-98526402D01*
X137942867Y-98546107D01*
X137955480Y-98567151D01*
X137965970Y-98589329D01*
X137974235Y-98612429D01*
X137980196Y-98636227D01*
X137983796Y-98660496D01*
X137985000Y-98685000D01*
X137985000Y-99435000D01*
X137983796Y-99459504D01*
X137980196Y-99483773D01*
X137974235Y-99507571D01*
X137965970Y-99530671D01*
X137955480Y-99552849D01*
X137942867Y-99573893D01*
X137928253Y-99593598D01*
X137911777Y-99611777D01*
X137893598Y-99628253D01*
X137873893Y-99642867D01*
X137852849Y-99655480D01*
X137830671Y-99665970D01*
X137807571Y-99674235D01*
X137783773Y-99680196D01*
X137759504Y-99683796D01*
X137735000Y-99685000D01*
X135585000Y-99685000D01*
X135560496Y-99683796D01*
X135536227Y-99680196D01*
X135512429Y-99674235D01*
X135489329Y-99665970D01*
X135467151Y-99655480D01*
X135446107Y-99642867D01*
X135426402Y-99628253D01*
X135408223Y-99611777D01*
X135391747Y-99593598D01*
X135377133Y-99573893D01*
X135364520Y-99552849D01*
X135354030Y-99530671D01*
X135345765Y-99507571D01*
X135339804Y-99483773D01*
X135336204Y-99459504D01*
X135335000Y-99435000D01*
X135335000Y-98685000D01*
X135336204Y-98660496D01*
X135339804Y-98636227D01*
X135345765Y-98612429D01*
X135354030Y-98589329D01*
X135364520Y-98567151D01*
X135377133Y-98546107D01*
X135391747Y-98526402D01*
X135408223Y-98508223D01*
X135426402Y-98491747D01*
X135446107Y-98477133D01*
X135467151Y-98464520D01*
X135489329Y-98454030D01*
X135512429Y-98445765D01*
X135536227Y-98439804D01*
X135560496Y-98436204D01*
X135585000Y-98435000D01*
X137735000Y-98435000D01*
X137759504Y-98436204D01*
X137759504Y-98436204D01*
G37*
D20*
X136660000Y-99060000D03*
D10*
G36*
X137759504Y-95636204D02*
G01*
X137783773Y-95639804D01*
X137807571Y-95645765D01*
X137830671Y-95654030D01*
X137852849Y-95664520D01*
X137873893Y-95677133D01*
X137893598Y-95691747D01*
X137911777Y-95708223D01*
X137928253Y-95726402D01*
X137942867Y-95746107D01*
X137955480Y-95767151D01*
X137965970Y-95789329D01*
X137974235Y-95812429D01*
X137980196Y-95836227D01*
X137983796Y-95860496D01*
X137985000Y-95885000D01*
X137985000Y-96635000D01*
X137983796Y-96659504D01*
X137980196Y-96683773D01*
X137974235Y-96707571D01*
X137965970Y-96730671D01*
X137955480Y-96752849D01*
X137942867Y-96773893D01*
X137928253Y-96793598D01*
X137911777Y-96811777D01*
X137893598Y-96828253D01*
X137873893Y-96842867D01*
X137852849Y-96855480D01*
X137830671Y-96865970D01*
X137807571Y-96874235D01*
X137783773Y-96880196D01*
X137759504Y-96883796D01*
X137735000Y-96885000D01*
X135585000Y-96885000D01*
X135560496Y-96883796D01*
X135536227Y-96880196D01*
X135512429Y-96874235D01*
X135489329Y-96865970D01*
X135467151Y-96855480D01*
X135446107Y-96842867D01*
X135426402Y-96828253D01*
X135408223Y-96811777D01*
X135391747Y-96793598D01*
X135377133Y-96773893D01*
X135364520Y-96752849D01*
X135354030Y-96730671D01*
X135345765Y-96707571D01*
X135339804Y-96683773D01*
X135336204Y-96659504D01*
X135335000Y-96635000D01*
X135335000Y-95885000D01*
X135336204Y-95860496D01*
X135339804Y-95836227D01*
X135345765Y-95812429D01*
X135354030Y-95789329D01*
X135364520Y-95767151D01*
X135377133Y-95746107D01*
X135391747Y-95726402D01*
X135408223Y-95708223D01*
X135426402Y-95691747D01*
X135446107Y-95677133D01*
X135467151Y-95664520D01*
X135489329Y-95654030D01*
X135512429Y-95645765D01*
X135536227Y-95639804D01*
X135560496Y-95636204D01*
X135585000Y-95635000D01*
X137735000Y-95635000D01*
X137759504Y-95636204D01*
X137759504Y-95636204D01*
G37*
D20*
X136660000Y-96260000D03*
D10*
G36*
X133949504Y-91206204D02*
G01*
X133973773Y-91209804D01*
X133997571Y-91215765D01*
X134020671Y-91224030D01*
X134042849Y-91234520D01*
X134063893Y-91247133D01*
X134083598Y-91261747D01*
X134101777Y-91278223D01*
X134118253Y-91296402D01*
X134132867Y-91316107D01*
X134145480Y-91337151D01*
X134155970Y-91359329D01*
X134164235Y-91382429D01*
X134170196Y-91406227D01*
X134173796Y-91430496D01*
X134175000Y-91455000D01*
X134175000Y-92205000D01*
X134173796Y-92229504D01*
X134170196Y-92253773D01*
X134164235Y-92277571D01*
X134155970Y-92300671D01*
X134145480Y-92322849D01*
X134132867Y-92343893D01*
X134118253Y-92363598D01*
X134101777Y-92381777D01*
X134083598Y-92398253D01*
X134063893Y-92412867D01*
X134042849Y-92425480D01*
X134020671Y-92435970D01*
X133997571Y-92444235D01*
X133973773Y-92450196D01*
X133949504Y-92453796D01*
X133925000Y-92455000D01*
X131775000Y-92455000D01*
X131750496Y-92453796D01*
X131726227Y-92450196D01*
X131702429Y-92444235D01*
X131679329Y-92435970D01*
X131657151Y-92425480D01*
X131636107Y-92412867D01*
X131616402Y-92398253D01*
X131598223Y-92381777D01*
X131581747Y-92363598D01*
X131567133Y-92343893D01*
X131554520Y-92322849D01*
X131544030Y-92300671D01*
X131535765Y-92277571D01*
X131529804Y-92253773D01*
X131526204Y-92229504D01*
X131525000Y-92205000D01*
X131525000Y-91455000D01*
X131526204Y-91430496D01*
X131529804Y-91406227D01*
X131535765Y-91382429D01*
X131544030Y-91359329D01*
X131554520Y-91337151D01*
X131567133Y-91316107D01*
X131581747Y-91296402D01*
X131598223Y-91278223D01*
X131616402Y-91261747D01*
X131636107Y-91247133D01*
X131657151Y-91234520D01*
X131679329Y-91224030D01*
X131702429Y-91215765D01*
X131726227Y-91209804D01*
X131750496Y-91206204D01*
X131775000Y-91205000D01*
X133925000Y-91205000D01*
X133949504Y-91206204D01*
X133949504Y-91206204D01*
G37*
D20*
X132850000Y-91830000D03*
D10*
G36*
X133949504Y-94006204D02*
G01*
X133973773Y-94009804D01*
X133997571Y-94015765D01*
X134020671Y-94024030D01*
X134042849Y-94034520D01*
X134063893Y-94047133D01*
X134083598Y-94061747D01*
X134101777Y-94078223D01*
X134118253Y-94096402D01*
X134132867Y-94116107D01*
X134145480Y-94137151D01*
X134155970Y-94159329D01*
X134164235Y-94182429D01*
X134170196Y-94206227D01*
X134173796Y-94230496D01*
X134175000Y-94255000D01*
X134175000Y-95005000D01*
X134173796Y-95029504D01*
X134170196Y-95053773D01*
X134164235Y-95077571D01*
X134155970Y-95100671D01*
X134145480Y-95122849D01*
X134132867Y-95143893D01*
X134118253Y-95163598D01*
X134101777Y-95181777D01*
X134083598Y-95198253D01*
X134063893Y-95212867D01*
X134042849Y-95225480D01*
X134020671Y-95235970D01*
X133997571Y-95244235D01*
X133973773Y-95250196D01*
X133949504Y-95253796D01*
X133925000Y-95255000D01*
X131775000Y-95255000D01*
X131750496Y-95253796D01*
X131726227Y-95250196D01*
X131702429Y-95244235D01*
X131679329Y-95235970D01*
X131657151Y-95225480D01*
X131636107Y-95212867D01*
X131616402Y-95198253D01*
X131598223Y-95181777D01*
X131581747Y-95163598D01*
X131567133Y-95143893D01*
X131554520Y-95122849D01*
X131544030Y-95100671D01*
X131535765Y-95077571D01*
X131529804Y-95053773D01*
X131526204Y-95029504D01*
X131525000Y-95005000D01*
X131525000Y-94255000D01*
X131526204Y-94230496D01*
X131529804Y-94206227D01*
X131535765Y-94182429D01*
X131544030Y-94159329D01*
X131554520Y-94137151D01*
X131567133Y-94116107D01*
X131581747Y-94096402D01*
X131598223Y-94078223D01*
X131616402Y-94061747D01*
X131636107Y-94047133D01*
X131657151Y-94034520D01*
X131679329Y-94024030D01*
X131702429Y-94015765D01*
X131726227Y-94009804D01*
X131750496Y-94006204D01*
X131775000Y-94005000D01*
X133925000Y-94005000D01*
X133949504Y-94006204D01*
X133949504Y-94006204D01*
G37*
D20*
X132850000Y-94630000D03*
D10*
G36*
X137759504Y-89016204D02*
G01*
X137783773Y-89019804D01*
X137807571Y-89025765D01*
X137830671Y-89034030D01*
X137852849Y-89044520D01*
X137873893Y-89057133D01*
X137893598Y-89071747D01*
X137911777Y-89088223D01*
X137928253Y-89106402D01*
X137942867Y-89126107D01*
X137955480Y-89147151D01*
X137965970Y-89169329D01*
X137974235Y-89192429D01*
X137980196Y-89216227D01*
X137983796Y-89240496D01*
X137985000Y-89265000D01*
X137985000Y-90015000D01*
X137983796Y-90039504D01*
X137980196Y-90063773D01*
X137974235Y-90087571D01*
X137965970Y-90110671D01*
X137955480Y-90132849D01*
X137942867Y-90153893D01*
X137928253Y-90173598D01*
X137911777Y-90191777D01*
X137893598Y-90208253D01*
X137873893Y-90222867D01*
X137852849Y-90235480D01*
X137830671Y-90245970D01*
X137807571Y-90254235D01*
X137783773Y-90260196D01*
X137759504Y-90263796D01*
X137735000Y-90265000D01*
X135585000Y-90265000D01*
X135560496Y-90263796D01*
X135536227Y-90260196D01*
X135512429Y-90254235D01*
X135489329Y-90245970D01*
X135467151Y-90235480D01*
X135446107Y-90222867D01*
X135426402Y-90208253D01*
X135408223Y-90191777D01*
X135391747Y-90173598D01*
X135377133Y-90153893D01*
X135364520Y-90132849D01*
X135354030Y-90110671D01*
X135345765Y-90087571D01*
X135339804Y-90063773D01*
X135336204Y-90039504D01*
X135335000Y-90015000D01*
X135335000Y-89265000D01*
X135336204Y-89240496D01*
X135339804Y-89216227D01*
X135345765Y-89192429D01*
X135354030Y-89169329D01*
X135364520Y-89147151D01*
X135377133Y-89126107D01*
X135391747Y-89106402D01*
X135408223Y-89088223D01*
X135426402Y-89071747D01*
X135446107Y-89057133D01*
X135467151Y-89044520D01*
X135489329Y-89034030D01*
X135512429Y-89025765D01*
X135536227Y-89019804D01*
X135560496Y-89016204D01*
X135585000Y-89015000D01*
X137735000Y-89015000D01*
X137759504Y-89016204D01*
X137759504Y-89016204D01*
G37*
D20*
X136660000Y-89640000D03*
D10*
G36*
X137759504Y-86216204D02*
G01*
X137783773Y-86219804D01*
X137807571Y-86225765D01*
X137830671Y-86234030D01*
X137852849Y-86244520D01*
X137873893Y-86257133D01*
X137893598Y-86271747D01*
X137911777Y-86288223D01*
X137928253Y-86306402D01*
X137942867Y-86326107D01*
X137955480Y-86347151D01*
X137965970Y-86369329D01*
X137974235Y-86392429D01*
X137980196Y-86416227D01*
X137983796Y-86440496D01*
X137985000Y-86465000D01*
X137985000Y-87215000D01*
X137983796Y-87239504D01*
X137980196Y-87263773D01*
X137974235Y-87287571D01*
X137965970Y-87310671D01*
X137955480Y-87332849D01*
X137942867Y-87353893D01*
X137928253Y-87373598D01*
X137911777Y-87391777D01*
X137893598Y-87408253D01*
X137873893Y-87422867D01*
X137852849Y-87435480D01*
X137830671Y-87445970D01*
X137807571Y-87454235D01*
X137783773Y-87460196D01*
X137759504Y-87463796D01*
X137735000Y-87465000D01*
X135585000Y-87465000D01*
X135560496Y-87463796D01*
X135536227Y-87460196D01*
X135512429Y-87454235D01*
X135489329Y-87445970D01*
X135467151Y-87435480D01*
X135446107Y-87422867D01*
X135426402Y-87408253D01*
X135408223Y-87391777D01*
X135391747Y-87373598D01*
X135377133Y-87353893D01*
X135364520Y-87332849D01*
X135354030Y-87310671D01*
X135345765Y-87287571D01*
X135339804Y-87263773D01*
X135336204Y-87239504D01*
X135335000Y-87215000D01*
X135335000Y-86465000D01*
X135336204Y-86440496D01*
X135339804Y-86416227D01*
X135345765Y-86392429D01*
X135354030Y-86369329D01*
X135364520Y-86347151D01*
X135377133Y-86326107D01*
X135391747Y-86306402D01*
X135408223Y-86288223D01*
X135426402Y-86271747D01*
X135446107Y-86257133D01*
X135467151Y-86244520D01*
X135489329Y-86234030D01*
X135512429Y-86225765D01*
X135536227Y-86219804D01*
X135560496Y-86216204D01*
X135585000Y-86215000D01*
X137735000Y-86215000D01*
X137759504Y-86216204D01*
X137759504Y-86216204D01*
G37*
D20*
X136660000Y-86840000D03*
D10*
G36*
X133999504Y-81646204D02*
G01*
X134023773Y-81649804D01*
X134047571Y-81655765D01*
X134070671Y-81664030D01*
X134092849Y-81674520D01*
X134113893Y-81687133D01*
X134133598Y-81701747D01*
X134151777Y-81718223D01*
X134168253Y-81736402D01*
X134182867Y-81756107D01*
X134195480Y-81777151D01*
X134205970Y-81799329D01*
X134214235Y-81822429D01*
X134220196Y-81846227D01*
X134223796Y-81870496D01*
X134225000Y-81895000D01*
X134225000Y-82645000D01*
X134223796Y-82669504D01*
X134220196Y-82693773D01*
X134214235Y-82717571D01*
X134205970Y-82740671D01*
X134195480Y-82762849D01*
X134182867Y-82783893D01*
X134168253Y-82803598D01*
X134151777Y-82821777D01*
X134133598Y-82838253D01*
X134113893Y-82852867D01*
X134092849Y-82865480D01*
X134070671Y-82875970D01*
X134047571Y-82884235D01*
X134023773Y-82890196D01*
X133999504Y-82893796D01*
X133975000Y-82895000D01*
X131825000Y-82895000D01*
X131800496Y-82893796D01*
X131776227Y-82890196D01*
X131752429Y-82884235D01*
X131729329Y-82875970D01*
X131707151Y-82865480D01*
X131686107Y-82852867D01*
X131666402Y-82838253D01*
X131648223Y-82821777D01*
X131631747Y-82803598D01*
X131617133Y-82783893D01*
X131604520Y-82762849D01*
X131594030Y-82740671D01*
X131585765Y-82717571D01*
X131579804Y-82693773D01*
X131576204Y-82669504D01*
X131575000Y-82645000D01*
X131575000Y-81895000D01*
X131576204Y-81870496D01*
X131579804Y-81846227D01*
X131585765Y-81822429D01*
X131594030Y-81799329D01*
X131604520Y-81777151D01*
X131617133Y-81756107D01*
X131631747Y-81736402D01*
X131648223Y-81718223D01*
X131666402Y-81701747D01*
X131686107Y-81687133D01*
X131707151Y-81674520D01*
X131729329Y-81664030D01*
X131752429Y-81655765D01*
X131776227Y-81649804D01*
X131800496Y-81646204D01*
X131825000Y-81645000D01*
X133975000Y-81645000D01*
X133999504Y-81646204D01*
X133999504Y-81646204D01*
G37*
D20*
X132900000Y-82270000D03*
D10*
G36*
X133999504Y-84446204D02*
G01*
X134023773Y-84449804D01*
X134047571Y-84455765D01*
X134070671Y-84464030D01*
X134092849Y-84474520D01*
X134113893Y-84487133D01*
X134133598Y-84501747D01*
X134151777Y-84518223D01*
X134168253Y-84536402D01*
X134182867Y-84556107D01*
X134195480Y-84577151D01*
X134205970Y-84599329D01*
X134214235Y-84622429D01*
X134220196Y-84646227D01*
X134223796Y-84670496D01*
X134225000Y-84695000D01*
X134225000Y-85445000D01*
X134223796Y-85469504D01*
X134220196Y-85493773D01*
X134214235Y-85517571D01*
X134205970Y-85540671D01*
X134195480Y-85562849D01*
X134182867Y-85583893D01*
X134168253Y-85603598D01*
X134151777Y-85621777D01*
X134133598Y-85638253D01*
X134113893Y-85652867D01*
X134092849Y-85665480D01*
X134070671Y-85675970D01*
X134047571Y-85684235D01*
X134023773Y-85690196D01*
X133999504Y-85693796D01*
X133975000Y-85695000D01*
X131825000Y-85695000D01*
X131800496Y-85693796D01*
X131776227Y-85690196D01*
X131752429Y-85684235D01*
X131729329Y-85675970D01*
X131707151Y-85665480D01*
X131686107Y-85652867D01*
X131666402Y-85638253D01*
X131648223Y-85621777D01*
X131631747Y-85603598D01*
X131617133Y-85583893D01*
X131604520Y-85562849D01*
X131594030Y-85540671D01*
X131585765Y-85517571D01*
X131579804Y-85493773D01*
X131576204Y-85469504D01*
X131575000Y-85445000D01*
X131575000Y-84695000D01*
X131576204Y-84670496D01*
X131579804Y-84646227D01*
X131585765Y-84622429D01*
X131594030Y-84599329D01*
X131604520Y-84577151D01*
X131617133Y-84556107D01*
X131631747Y-84536402D01*
X131648223Y-84518223D01*
X131666402Y-84501747D01*
X131686107Y-84487133D01*
X131707151Y-84474520D01*
X131729329Y-84464030D01*
X131752429Y-84455765D01*
X131776227Y-84449804D01*
X131800496Y-84446204D01*
X131825000Y-84445000D01*
X133975000Y-84445000D01*
X133999504Y-84446204D01*
X133999504Y-84446204D01*
G37*
D20*
X132900000Y-85070000D03*
M02*
