G04 #@! TF.GenerationSoftware,KiCad,Pcbnew,(5.1.4)-1*
G04 #@! TF.CreationDate,2021-05-07T09:09:23-03:00*
G04 #@! TF.ProjectId,odin_d,6f64696e-5f64-42e6-9b69-6361645f7063,rev?*
G04 #@! TF.SameCoordinates,Original*
G04 #@! TF.FileFunction,Legend,Top*
G04 #@! TF.FilePolarity,Positive*
%FSLAX46Y46*%
G04 Gerber Fmt 4.6, Leading zero omitted, Abs format (unit mm)*
G04 Created by KiCad (PCBNEW (5.1.4)-1) date 2021-05-07 09:09:23*
%MOMM*%
%LPD*%
G04 APERTURE LIST*
%ADD10C,0.100000*%
%ADD11C,0.150000*%
%ADD12C,0.300000*%
%ADD13C,0.400000*%
%ADD14C,0.120000*%
G04 APERTURE END LIST*
D10*
D11*
X177002200Y-166007200D02*
X177002200Y-198007200D01*
X285002200Y-198007200D01*
X285002200Y-166007200D01*
X177002200Y-166007200D01*
D10*
D11*
X10000000Y-10000000D02*
X10000000Y-200007200D01*
X287002200Y-200007200D01*
X287002200Y-10000000D01*
X10000000Y-10000000D01*
D10*
D11*
X12000000Y-12000000D02*
X12000000Y-198007200D01*
X285002200Y-198007200D01*
X285002200Y-12000000D01*
X12000000Y-12000000D01*
D10*
D11*
X60000000Y-12000000D02*
X60000000Y-10000000D01*
D10*
D11*
X110000000Y-12000000D02*
X110000000Y-10000000D01*
D10*
D11*
X160000000Y-12000000D02*
X160000000Y-10000000D01*
D10*
D11*
X210000000Y-12000000D02*
X210000000Y-10000000D01*
D10*
D11*
X260000000Y-12000000D02*
X260000000Y-10000000D01*
D10*
D11*
X36065476Y-11588095D02*
X35322619Y-11588095D01*
X35694047Y-11588095D02*
X35694047Y-10288095D01*
X35570238Y-10473809D01*
X35446428Y-10597619D01*
X35322619Y-10659523D01*
D10*
D11*
X85322619Y-10411904D02*
X85384523Y-10350000D01*
X85508333Y-10288095D01*
X85817857Y-10288095D01*
X85941666Y-10350000D01*
X86003571Y-10411904D01*
X86065476Y-10535714D01*
X86065476Y-10659523D01*
X86003571Y-10845238D01*
X85260714Y-11588095D01*
X86065476Y-11588095D01*
D10*
D11*
X135260714Y-10288095D02*
X136065476Y-10288095D01*
X135632142Y-10783333D01*
X135817857Y-10783333D01*
X135941666Y-10845238D01*
X136003571Y-10907142D01*
X136065476Y-11030952D01*
X136065476Y-11340476D01*
X136003571Y-11464285D01*
X135941666Y-11526190D01*
X135817857Y-11588095D01*
X135446428Y-11588095D01*
X135322619Y-11526190D01*
X135260714Y-11464285D01*
D10*
D11*
X185941666Y-10721428D02*
X185941666Y-11588095D01*
X185632142Y-10226190D02*
X185322619Y-11154761D01*
X186127380Y-11154761D01*
D10*
D11*
X236003571Y-10288095D02*
X235384523Y-10288095D01*
X235322619Y-10907142D01*
X235384523Y-10845238D01*
X235508333Y-10783333D01*
X235817857Y-10783333D01*
X235941666Y-10845238D01*
X236003571Y-10907142D01*
X236065476Y-11030952D01*
X236065476Y-11340476D01*
X236003571Y-11464285D01*
X235941666Y-11526190D01*
X235817857Y-11588095D01*
X235508333Y-11588095D01*
X235384523Y-11526190D01*
X235322619Y-11464285D01*
D10*
D11*
X285941666Y-10288095D02*
X285694047Y-10288095D01*
X285570238Y-10350000D01*
X285508333Y-10411904D01*
X285384523Y-10597619D01*
X285322619Y-10845238D01*
X285322619Y-11340476D01*
X285384523Y-11464285D01*
X285446428Y-11526190D01*
X285570238Y-11588095D01*
X285817857Y-11588095D01*
X285941666Y-11526190D01*
X286003571Y-11464285D01*
X286065476Y-11340476D01*
X286065476Y-11030952D01*
X286003571Y-10907142D01*
X285941666Y-10845238D01*
X285817857Y-10783333D01*
X285570238Y-10783333D01*
X285446428Y-10845238D01*
X285384523Y-10907142D01*
X285322619Y-11030952D01*
D10*
D11*
X60000000Y-198007200D02*
X60000000Y-200007200D01*
D10*
D11*
X110000000Y-198007200D02*
X110000000Y-200007200D01*
D10*
D11*
X160000000Y-198007200D02*
X160000000Y-200007200D01*
D10*
D11*
X210000000Y-198007200D02*
X210000000Y-200007200D01*
D10*
D11*
X260000000Y-198007200D02*
X260000000Y-200007200D01*
D10*
D11*
X36065476Y-199595295D02*
X35322619Y-199595295D01*
X35694047Y-199595295D02*
X35694047Y-198295295D01*
X35570238Y-198481009D01*
X35446428Y-198604819D01*
X35322619Y-198666723D01*
D10*
D11*
X85322619Y-198419104D02*
X85384523Y-198357200D01*
X85508333Y-198295295D01*
X85817857Y-198295295D01*
X85941666Y-198357200D01*
X86003571Y-198419104D01*
X86065476Y-198542914D01*
X86065476Y-198666723D01*
X86003571Y-198852438D01*
X85260714Y-199595295D01*
X86065476Y-199595295D01*
D10*
D11*
X135260714Y-198295295D02*
X136065476Y-198295295D01*
X135632142Y-198790533D01*
X135817857Y-198790533D01*
X135941666Y-198852438D01*
X136003571Y-198914342D01*
X136065476Y-199038152D01*
X136065476Y-199347676D01*
X136003571Y-199471485D01*
X135941666Y-199533390D01*
X135817857Y-199595295D01*
X135446428Y-199595295D01*
X135322619Y-199533390D01*
X135260714Y-199471485D01*
D10*
D11*
X185941666Y-198728628D02*
X185941666Y-199595295D01*
X185632142Y-198233390D02*
X185322619Y-199161961D01*
X186127380Y-199161961D01*
D10*
D11*
X236003571Y-198295295D02*
X235384523Y-198295295D01*
X235322619Y-198914342D01*
X235384523Y-198852438D01*
X235508333Y-198790533D01*
X235817857Y-198790533D01*
X235941666Y-198852438D01*
X236003571Y-198914342D01*
X236065476Y-199038152D01*
X236065476Y-199347676D01*
X236003571Y-199471485D01*
X235941666Y-199533390D01*
X235817857Y-199595295D01*
X235508333Y-199595295D01*
X235384523Y-199533390D01*
X235322619Y-199471485D01*
D10*
D11*
X285941666Y-198295295D02*
X285694047Y-198295295D01*
X285570238Y-198357200D01*
X285508333Y-198419104D01*
X285384523Y-198604819D01*
X285322619Y-198852438D01*
X285322619Y-199347676D01*
X285384523Y-199471485D01*
X285446428Y-199533390D01*
X285570238Y-199595295D01*
X285817857Y-199595295D01*
X285941666Y-199533390D01*
X286003571Y-199471485D01*
X286065476Y-199347676D01*
X286065476Y-199038152D01*
X286003571Y-198914342D01*
X285941666Y-198852438D01*
X285817857Y-198790533D01*
X285570238Y-198790533D01*
X285446428Y-198852438D01*
X285384523Y-198914342D01*
X285322619Y-199038152D01*
D10*
D11*
X10000000Y-60000000D02*
X12000000Y-60000000D01*
D10*
D11*
X10000000Y-110000000D02*
X12000000Y-110000000D01*
D10*
D11*
X10000000Y-160000000D02*
X12000000Y-160000000D01*
D10*
D11*
X10690476Y-35216666D02*
X11309523Y-35216666D01*
X10566666Y-35588095D02*
X11000000Y-34288095D01*
X11433333Y-35588095D01*
D10*
D11*
X11092857Y-84907142D02*
X11278571Y-84969047D01*
X11340476Y-85030952D01*
X11402380Y-85154761D01*
X11402380Y-85340476D01*
X11340476Y-85464285D01*
X11278571Y-85526190D01*
X11154761Y-85588095D01*
X10659523Y-85588095D01*
X10659523Y-84288095D01*
X11092857Y-84288095D01*
X11216666Y-84350000D01*
X11278571Y-84411904D01*
X11340476Y-84535714D01*
X11340476Y-84659523D01*
X11278571Y-84783333D01*
X11216666Y-84845238D01*
X11092857Y-84907142D01*
X10659523Y-84907142D01*
D10*
D11*
X11402380Y-135464285D02*
X11340476Y-135526190D01*
X11154761Y-135588095D01*
X11030952Y-135588095D01*
X10845238Y-135526190D01*
X10721428Y-135402380D01*
X10659523Y-135278571D01*
X10597619Y-135030952D01*
X10597619Y-134845238D01*
X10659523Y-134597619D01*
X10721428Y-134473809D01*
X10845238Y-134350000D01*
X11030952Y-134288095D01*
X11154761Y-134288095D01*
X11340476Y-134350000D01*
X11402380Y-134411904D01*
D10*
D11*
X10659523Y-185588095D02*
X10659523Y-184288095D01*
X10969047Y-184288095D01*
X11154761Y-184350000D01*
X11278571Y-184473809D01*
X11340476Y-184597619D01*
X11402380Y-184845238D01*
X11402380Y-185030952D01*
X11340476Y-185278571D01*
X11278571Y-185402380D01*
X11154761Y-185526190D01*
X10969047Y-185588095D01*
X10659523Y-185588095D01*
D10*
D11*
X287002200Y-60000000D02*
X285002200Y-60000000D01*
D10*
D11*
X287002200Y-110000000D02*
X285002200Y-110000000D01*
D10*
D11*
X287002200Y-160000000D02*
X285002200Y-160000000D01*
D10*
D11*
X285692676Y-35216666D02*
X286311723Y-35216666D01*
X285568866Y-35588095D02*
X286002200Y-34288095D01*
X286435533Y-35588095D01*
D10*
D11*
X286095057Y-84907142D02*
X286280771Y-84969047D01*
X286342676Y-85030952D01*
X286404580Y-85154761D01*
X286404580Y-85340476D01*
X286342676Y-85464285D01*
X286280771Y-85526190D01*
X286156961Y-85588095D01*
X285661723Y-85588095D01*
X285661723Y-84288095D01*
X286095057Y-84288095D01*
X286218866Y-84350000D01*
X286280771Y-84411904D01*
X286342676Y-84535714D01*
X286342676Y-84659523D01*
X286280771Y-84783333D01*
X286218866Y-84845238D01*
X286095057Y-84907142D01*
X285661723Y-84907142D01*
D10*
D11*
X286404580Y-135464285D02*
X286342676Y-135526190D01*
X286156961Y-135588095D01*
X286033152Y-135588095D01*
X285847438Y-135526190D01*
X285723628Y-135402380D01*
X285661723Y-135278571D01*
X285599819Y-135030952D01*
X285599819Y-134845238D01*
X285661723Y-134597619D01*
X285723628Y-134473809D01*
X285847438Y-134350000D01*
X286033152Y-134288095D01*
X286156961Y-134288095D01*
X286342676Y-134350000D01*
X286404580Y-134411904D01*
D10*
D11*
X285661723Y-185588095D02*
X285661723Y-184288095D01*
X285971247Y-184288095D01*
X286156961Y-184350000D01*
X286280771Y-184473809D01*
X286342676Y-184597619D01*
X286404580Y-184845238D01*
X286404580Y-185030952D01*
X286342676Y-185278571D01*
X286280771Y-185402380D01*
X286156961Y-185526190D01*
X285971247Y-185588095D01*
X285661723Y-185588095D01*
D10*
D11*
X200434342Y-193785771D02*
X200434342Y-192285771D01*
X200791485Y-192285771D01*
X201005771Y-192357200D01*
X201148628Y-192500057D01*
X201220057Y-192642914D01*
X201291485Y-192928628D01*
X201291485Y-193142914D01*
X201220057Y-193428628D01*
X201148628Y-193571485D01*
X201005771Y-193714342D01*
X200791485Y-193785771D01*
X200434342Y-193785771D01*
X202577200Y-193785771D02*
X202577200Y-193000057D01*
X202505771Y-192857200D01*
X202362914Y-192785771D01*
X202077200Y-192785771D01*
X201934342Y-192857200D01*
X202577200Y-193714342D02*
X202434342Y-193785771D01*
X202077200Y-193785771D01*
X201934342Y-193714342D01*
X201862914Y-193571485D01*
X201862914Y-193428628D01*
X201934342Y-193285771D01*
X202077200Y-193214342D01*
X202434342Y-193214342D01*
X202577200Y-193142914D01*
X203077200Y-192785771D02*
X203648628Y-192785771D01*
X203291485Y-192285771D02*
X203291485Y-193571485D01*
X203362914Y-193714342D01*
X203505771Y-193785771D01*
X203648628Y-193785771D01*
X204720057Y-193714342D02*
X204577200Y-193785771D01*
X204291485Y-193785771D01*
X204148628Y-193714342D01*
X204077200Y-193571485D01*
X204077200Y-193000057D01*
X204148628Y-192857200D01*
X204291485Y-192785771D01*
X204577200Y-192785771D01*
X204720057Y-192857200D01*
X204791485Y-193000057D01*
X204791485Y-193142914D01*
X204077200Y-193285771D01*
X205434342Y-193642914D02*
X205505771Y-193714342D01*
X205434342Y-193785771D01*
X205362914Y-193714342D01*
X205434342Y-193642914D01*
X205434342Y-193785771D01*
X205434342Y-192857200D02*
X205505771Y-192928628D01*
X205434342Y-193000057D01*
X205362914Y-192928628D01*
X205434342Y-192857200D01*
X205434342Y-193000057D01*
X207220057Y-192428628D02*
X207291485Y-192357200D01*
X207434342Y-192285771D01*
X207791485Y-192285771D01*
X207934342Y-192357200D01*
X208005771Y-192428628D01*
X208077200Y-192571485D01*
X208077200Y-192714342D01*
X208005771Y-192928628D01*
X207148628Y-193785771D01*
X208077200Y-193785771D01*
X209005771Y-192285771D02*
X209148628Y-192285771D01*
X209291485Y-192357200D01*
X209362914Y-192428628D01*
X209434342Y-192571485D01*
X209505771Y-192857200D01*
X209505771Y-193214342D01*
X209434342Y-193500057D01*
X209362914Y-193642914D01*
X209291485Y-193714342D01*
X209148628Y-193785771D01*
X209005771Y-193785771D01*
X208862914Y-193714342D01*
X208791485Y-193642914D01*
X208720057Y-193500057D01*
X208648628Y-193214342D01*
X208648628Y-192857200D01*
X208720057Y-192571485D01*
X208791485Y-192428628D01*
X208862914Y-192357200D01*
X209005771Y-192285771D01*
X210077200Y-192428628D02*
X210148628Y-192357200D01*
X210291485Y-192285771D01*
X210648628Y-192285771D01*
X210791485Y-192357200D01*
X210862914Y-192428628D01*
X210934342Y-192571485D01*
X210934342Y-192714342D01*
X210862914Y-192928628D01*
X210005771Y-193785771D01*
X210934342Y-193785771D01*
X211862914Y-192285771D02*
X212005771Y-192285771D01*
X212148628Y-192357200D01*
X212220057Y-192428628D01*
X212291485Y-192571485D01*
X212362914Y-192857200D01*
X212362914Y-193214342D01*
X212291485Y-193500057D01*
X212220057Y-193642914D01*
X212148628Y-193714342D01*
X212005771Y-193785771D01*
X211862914Y-193785771D01*
X211720057Y-193714342D01*
X211648628Y-193642914D01*
X211577200Y-193500057D01*
X211505771Y-193214342D01*
X211505771Y-192857200D01*
X211577200Y-192571485D01*
X211648628Y-192428628D01*
X211720057Y-192357200D01*
X211862914Y-192285771D01*
X213005771Y-193214342D02*
X214148628Y-193214342D01*
X215148628Y-192285771D02*
X215291485Y-192285771D01*
X215434342Y-192357200D01*
X215505771Y-192428628D01*
X215577200Y-192571485D01*
X215648628Y-192857200D01*
X215648628Y-193214342D01*
X215577200Y-193500057D01*
X215505771Y-193642914D01*
X215434342Y-193714342D01*
X215291485Y-193785771D01*
X215148628Y-193785771D01*
X215005771Y-193714342D01*
X214934342Y-193642914D01*
X214862914Y-193500057D01*
X214791485Y-193214342D01*
X214791485Y-192857200D01*
X214862914Y-192571485D01*
X214934342Y-192428628D01*
X215005771Y-192357200D01*
X215148628Y-192285771D01*
X216148628Y-192285771D02*
X217148628Y-192285771D01*
X216505771Y-193785771D01*
X217720057Y-193214342D02*
X218862914Y-193214342D01*
X219862914Y-192285771D02*
X220005771Y-192285771D01*
X220148628Y-192357200D01*
X220220057Y-192428628D01*
X220291485Y-192571485D01*
X220362914Y-192857200D01*
X220362914Y-193214342D01*
X220291485Y-193500057D01*
X220220057Y-193642914D01*
X220148628Y-193714342D01*
X220005771Y-193785771D01*
X219862914Y-193785771D01*
X219720057Y-193714342D01*
X219648628Y-193642914D01*
X219577200Y-193500057D01*
X219505771Y-193214342D01*
X219505771Y-192857200D01*
X219577200Y-192571485D01*
X219648628Y-192428628D01*
X219720057Y-192357200D01*
X219862914Y-192285771D01*
X220862914Y-192285771D02*
X221862914Y-192285771D01*
X221220057Y-193785771D01*
D10*
D11*
X177002200Y-194507200D02*
X285002200Y-194507200D01*
D10*
D11*
X178434342Y-196585771D02*
X178434342Y-195085771D01*
X179291485Y-196585771D02*
X178648628Y-195728628D01*
X179291485Y-195085771D02*
X178434342Y-195942914D01*
X179934342Y-196585771D02*
X179934342Y-195585771D01*
X179934342Y-195085771D02*
X179862914Y-195157200D01*
X179934342Y-195228628D01*
X180005771Y-195157200D01*
X179934342Y-195085771D01*
X179934342Y-195228628D01*
X181505771Y-196442914D02*
X181434342Y-196514342D01*
X181220057Y-196585771D01*
X181077200Y-196585771D01*
X180862914Y-196514342D01*
X180720057Y-196371485D01*
X180648628Y-196228628D01*
X180577200Y-195942914D01*
X180577200Y-195728628D01*
X180648628Y-195442914D01*
X180720057Y-195300057D01*
X180862914Y-195157200D01*
X181077200Y-195085771D01*
X181220057Y-195085771D01*
X181434342Y-195157200D01*
X181505771Y-195228628D01*
X182791485Y-196585771D02*
X182791485Y-195800057D01*
X182720057Y-195657200D01*
X182577200Y-195585771D01*
X182291485Y-195585771D01*
X182148628Y-195657200D01*
X182791485Y-196514342D02*
X182648628Y-196585771D01*
X182291485Y-196585771D01*
X182148628Y-196514342D01*
X182077200Y-196371485D01*
X182077200Y-196228628D01*
X182148628Y-196085771D01*
X182291485Y-196014342D01*
X182648628Y-196014342D01*
X182791485Y-195942914D01*
X184148628Y-196585771D02*
X184148628Y-195085771D01*
X184148628Y-196514342D02*
X184005771Y-196585771D01*
X183720057Y-196585771D01*
X183577200Y-196514342D01*
X183505771Y-196442914D01*
X183434342Y-196300057D01*
X183434342Y-195871485D01*
X183505771Y-195728628D01*
X183577200Y-195657200D01*
X183720057Y-195585771D01*
X184005771Y-195585771D01*
X184148628Y-195657200D01*
X186005771Y-195800057D02*
X186505771Y-195800057D01*
X186720057Y-196585771D02*
X186005771Y-196585771D01*
X186005771Y-195085771D01*
X186720057Y-195085771D01*
X187362914Y-196442914D02*
X187434342Y-196514342D01*
X187362914Y-196585771D01*
X187291485Y-196514342D01*
X187362914Y-196442914D01*
X187362914Y-196585771D01*
X188077200Y-196585771D02*
X188077200Y-195085771D01*
X188434342Y-195085771D01*
X188648628Y-195157200D01*
X188791485Y-195300057D01*
X188862914Y-195442914D01*
X188934342Y-195728628D01*
X188934342Y-195942914D01*
X188862914Y-196228628D01*
X188791485Y-196371485D01*
X188648628Y-196514342D01*
X188434342Y-196585771D01*
X188077200Y-196585771D01*
X189577200Y-196442914D02*
X189648628Y-196514342D01*
X189577200Y-196585771D01*
X189505771Y-196514342D01*
X189577200Y-196442914D01*
X189577200Y-196585771D01*
X190220057Y-196157200D02*
X190934342Y-196157200D01*
X190077200Y-196585771D02*
X190577200Y-195085771D01*
X191077200Y-196585771D01*
X191577200Y-196442914D02*
X191648628Y-196514342D01*
X191577200Y-196585771D01*
X191505771Y-196514342D01*
X191577200Y-196442914D01*
X191577200Y-196585771D01*
X194577200Y-196585771D02*
X194577200Y-195085771D01*
X194720057Y-196014342D02*
X195148628Y-196585771D01*
X195148628Y-195585771D02*
X194577200Y-196157200D01*
X195791485Y-196585771D02*
X195791485Y-195585771D01*
X195791485Y-195085771D02*
X195720057Y-195157200D01*
X195791485Y-195228628D01*
X195862914Y-195157200D01*
X195791485Y-195085771D01*
X195791485Y-195228628D01*
X197148628Y-196514342D02*
X197005771Y-196585771D01*
X196720057Y-196585771D01*
X196577200Y-196514342D01*
X196505771Y-196442914D01*
X196434342Y-196300057D01*
X196434342Y-195871485D01*
X196505771Y-195728628D01*
X196577200Y-195657200D01*
X196720057Y-195585771D01*
X197005771Y-195585771D01*
X197148628Y-195657200D01*
X198434342Y-196585771D02*
X198434342Y-195800057D01*
X198362914Y-195657200D01*
X198220057Y-195585771D01*
X197934342Y-195585771D01*
X197791485Y-195657200D01*
X198434342Y-196514342D02*
X198291485Y-196585771D01*
X197934342Y-196585771D01*
X197791485Y-196514342D01*
X197720057Y-196371485D01*
X197720057Y-196228628D01*
X197791485Y-196085771D01*
X197934342Y-196014342D01*
X198291485Y-196014342D01*
X198434342Y-195942914D01*
X199791485Y-196585771D02*
X199791485Y-195085771D01*
X199791485Y-196514342D02*
X199648628Y-196585771D01*
X199362914Y-196585771D01*
X199220057Y-196514342D01*
X199148628Y-196442914D01*
X199077200Y-196300057D01*
X199077200Y-195871485D01*
X199148628Y-195728628D01*
X199220057Y-195657200D01*
X199362914Y-195585771D01*
X199648628Y-195585771D01*
X199791485Y-195657200D01*
X202077200Y-197157200D02*
X202005771Y-197085771D01*
X201862914Y-196871485D01*
X201791485Y-196728628D01*
X201720057Y-196514342D01*
X201648628Y-196157200D01*
X201648628Y-195871485D01*
X201720057Y-195514342D01*
X201791485Y-195300057D01*
X201862914Y-195157200D01*
X202005771Y-194942914D01*
X202077200Y-194871485D01*
X203362914Y-195085771D02*
X202648628Y-195085771D01*
X202577200Y-195800057D01*
X202648628Y-195728628D01*
X202791485Y-195657200D01*
X203148628Y-195657200D01*
X203291485Y-195728628D01*
X203362914Y-195800057D01*
X203434342Y-195942914D01*
X203434342Y-196300057D01*
X203362914Y-196442914D01*
X203291485Y-196514342D01*
X203148628Y-196585771D01*
X202791485Y-196585771D01*
X202648628Y-196514342D01*
X202577200Y-196442914D01*
X204077200Y-196442914D02*
X204148628Y-196514342D01*
X204077200Y-196585771D01*
X204005771Y-196514342D01*
X204077200Y-196442914D01*
X204077200Y-196585771D01*
X205577200Y-196585771D02*
X204720057Y-196585771D01*
X205148628Y-196585771D02*
X205148628Y-195085771D01*
X205005771Y-195300057D01*
X204862914Y-195442914D01*
X204720057Y-195514342D01*
X206220057Y-196442914D02*
X206291485Y-196514342D01*
X206220057Y-196585771D01*
X206148628Y-196514342D01*
X206220057Y-196442914D01*
X206220057Y-196585771D01*
X207577200Y-195585771D02*
X207577200Y-196585771D01*
X207220057Y-195014342D02*
X206862914Y-196085771D01*
X207791485Y-196085771D01*
X208220057Y-197157200D02*
X208291485Y-197085771D01*
X208434342Y-196871485D01*
X208505771Y-196728628D01*
X208577200Y-196514342D01*
X208648628Y-196157200D01*
X208648628Y-195871485D01*
X208577200Y-195514342D01*
X208505771Y-195300057D01*
X208434342Y-195157200D01*
X208291485Y-194942914D01*
X208220057Y-194871485D01*
X209362914Y-196014342D02*
X210505771Y-196014342D01*
X212005771Y-196585771D02*
X211148628Y-196585771D01*
X211577200Y-196585771D02*
X211577200Y-195085771D01*
X211434342Y-195300057D01*
X211291485Y-195442914D01*
X211148628Y-195514342D01*
D10*
D11*
X177002200Y-191507200D02*
X285002200Y-191507200D01*
D10*
D12*
X264411485Y-193785771D02*
X263911485Y-193071485D01*
X263554342Y-193785771D02*
X263554342Y-192285771D01*
X264125771Y-192285771D01*
X264268628Y-192357200D01*
X264340057Y-192428628D01*
X264411485Y-192571485D01*
X264411485Y-192785771D01*
X264340057Y-192928628D01*
X264268628Y-193000057D01*
X264125771Y-193071485D01*
X263554342Y-193071485D01*
X265625771Y-193714342D02*
X265482914Y-193785771D01*
X265197200Y-193785771D01*
X265054342Y-193714342D01*
X264982914Y-193571485D01*
X264982914Y-193000057D01*
X265054342Y-192857200D01*
X265197200Y-192785771D01*
X265482914Y-192785771D01*
X265625771Y-192857200D01*
X265697200Y-193000057D01*
X265697200Y-193142914D01*
X264982914Y-193285771D01*
X266197200Y-192785771D02*
X266554342Y-193785771D01*
X266911485Y-192785771D01*
X267482914Y-193642914D02*
X267554342Y-193714342D01*
X267482914Y-193785771D01*
X267411485Y-193714342D01*
X267482914Y-193642914D01*
X267482914Y-193785771D01*
X267482914Y-192857200D02*
X267554342Y-192928628D01*
X267482914Y-193000057D01*
X267411485Y-192928628D01*
X267482914Y-192857200D01*
X267482914Y-193000057D01*
D10*
D11*
X178362914Y-193714342D02*
X178577200Y-193785771D01*
X178934342Y-193785771D01*
X179077200Y-193714342D01*
X179148628Y-193642914D01*
X179220057Y-193500057D01*
X179220057Y-193357200D01*
X179148628Y-193214342D01*
X179077200Y-193142914D01*
X178934342Y-193071485D01*
X178648628Y-193000057D01*
X178505771Y-192928628D01*
X178434342Y-192857200D01*
X178362914Y-192714342D01*
X178362914Y-192571485D01*
X178434342Y-192428628D01*
X178505771Y-192357200D01*
X178648628Y-192285771D01*
X179005771Y-192285771D01*
X179220057Y-192357200D01*
X179862914Y-193785771D02*
X179862914Y-192785771D01*
X179862914Y-192285771D02*
X179791485Y-192357200D01*
X179862914Y-192428628D01*
X179934342Y-192357200D01*
X179862914Y-192285771D01*
X179862914Y-192428628D01*
X180434342Y-192785771D02*
X181220057Y-192785771D01*
X180434342Y-193785771D01*
X181220057Y-193785771D01*
X182362914Y-193714342D02*
X182220057Y-193785771D01*
X181934342Y-193785771D01*
X181791485Y-193714342D01*
X181720057Y-193571485D01*
X181720057Y-193000057D01*
X181791485Y-192857200D01*
X181934342Y-192785771D01*
X182220057Y-192785771D01*
X182362914Y-192857200D01*
X182434342Y-193000057D01*
X182434342Y-193142914D01*
X181720057Y-193285771D01*
X183077200Y-193642914D02*
X183148628Y-193714342D01*
X183077200Y-193785771D01*
X183005771Y-193714342D01*
X183077200Y-193642914D01*
X183077200Y-193785771D01*
X183077200Y-192857200D02*
X183148628Y-192928628D01*
X183077200Y-193000057D01*
X183005771Y-192928628D01*
X183077200Y-192857200D01*
X183077200Y-193000057D01*
X184862914Y-193357200D02*
X185577200Y-193357200D01*
X184720057Y-193785771D02*
X185220057Y-192285771D01*
X185720057Y-193785771D01*
X186862914Y-192785771D02*
X186862914Y-193785771D01*
X186505771Y-192214342D02*
X186148628Y-193285771D01*
X187077200Y-193285771D01*
D10*
D11*
X263434342Y-196585771D02*
X263434342Y-195085771D01*
X264791485Y-196585771D02*
X264791485Y-195085771D01*
X264791485Y-196514342D02*
X264648628Y-196585771D01*
X264362914Y-196585771D01*
X264220057Y-196514342D01*
X264148628Y-196442914D01*
X264077200Y-196300057D01*
X264077200Y-195871485D01*
X264148628Y-195728628D01*
X264220057Y-195657200D01*
X264362914Y-195585771D01*
X264648628Y-195585771D01*
X264791485Y-195657200D01*
X265505771Y-196442914D02*
X265577200Y-196514342D01*
X265505771Y-196585771D01*
X265434342Y-196514342D01*
X265505771Y-196442914D01*
X265505771Y-196585771D01*
X265505771Y-195657200D02*
X265577200Y-195728628D01*
X265505771Y-195800057D01*
X265434342Y-195728628D01*
X265505771Y-195657200D01*
X265505771Y-195800057D01*
X268148628Y-196585771D02*
X267291485Y-196585771D01*
X267720057Y-196585771D02*
X267720057Y-195085771D01*
X267577200Y-195300057D01*
X267434342Y-195442914D01*
X267291485Y-195514342D01*
X269862914Y-195014342D02*
X268577200Y-196942914D01*
X271148628Y-196585771D02*
X270291485Y-196585771D01*
X270720057Y-196585771D02*
X270720057Y-195085771D01*
X270577200Y-195300057D01*
X270434342Y-195442914D01*
X270291485Y-195514342D01*
D10*
D11*
X177002200Y-187507200D02*
X285002200Y-187507200D01*
D10*
D13*
X178714580Y-188211961D02*
X179857438Y-188211961D01*
X179036009Y-190211961D02*
X179286009Y-188211961D01*
X180274104Y-190211961D02*
X180440771Y-188878628D01*
X180524104Y-188211961D02*
X180416961Y-188307200D01*
X180500295Y-188402438D01*
X180607438Y-188307200D01*
X180524104Y-188211961D01*
X180500295Y-188402438D01*
X181107438Y-188878628D02*
X181869342Y-188878628D01*
X181476485Y-188211961D02*
X181262200Y-189926247D01*
X181333628Y-190116723D01*
X181512200Y-190211961D01*
X181702676Y-190211961D01*
X182655057Y-190211961D02*
X182476485Y-190116723D01*
X182405057Y-189926247D01*
X182619342Y-188211961D01*
X184190771Y-190116723D02*
X183988390Y-190211961D01*
X183607438Y-190211961D01*
X183428866Y-190116723D01*
X183357438Y-189926247D01*
X183452676Y-189164342D01*
X183571723Y-188973866D01*
X183774104Y-188878628D01*
X184155057Y-188878628D01*
X184333628Y-188973866D01*
X184405057Y-189164342D01*
X184381247Y-189354819D01*
X183405057Y-189545295D01*
X185155057Y-190021485D02*
X185238390Y-190116723D01*
X185131247Y-190211961D01*
X185047914Y-190116723D01*
X185155057Y-190021485D01*
X185131247Y-190211961D01*
X185286009Y-188973866D02*
X185369342Y-189069104D01*
X185262200Y-189164342D01*
X185178866Y-189069104D01*
X185286009Y-188973866D01*
X185262200Y-189164342D01*
X188750295Y-190211961D02*
X188202676Y-189259580D01*
X187607438Y-190211961D02*
X187857438Y-188211961D01*
X188619342Y-188211961D01*
X188797914Y-188307200D01*
X188881247Y-188402438D01*
X188952676Y-188592914D01*
X188916961Y-188878628D01*
X188797914Y-189069104D01*
X188690771Y-189164342D01*
X188488390Y-189259580D01*
X187726485Y-189259580D01*
X189738390Y-189164342D02*
X190405057Y-189164342D01*
X190559819Y-190211961D02*
X189607438Y-190211961D01*
X189857438Y-188211961D01*
X190809819Y-188211961D01*
X192369342Y-190211961D02*
X191416961Y-190211961D01*
X191666961Y-188211961D01*
X193012200Y-189640533D02*
X193964580Y-189640533D01*
X192750295Y-190211961D02*
X193666961Y-188211961D01*
X194083628Y-190211961D01*
X195250295Y-189259580D02*
X195131247Y-190211961D01*
X194714580Y-188211961D02*
X195250295Y-189259580D01*
X196047914Y-188211961D01*
D10*
D11*
X178934342Y-185600057D02*
X178434342Y-185600057D01*
X178434342Y-186385771D02*
X178434342Y-184885771D01*
X179148628Y-184885771D01*
X179720057Y-186385771D02*
X179720057Y-185385771D01*
X179720057Y-184885771D02*
X179648628Y-184957200D01*
X179720057Y-185028628D01*
X179791485Y-184957200D01*
X179720057Y-184885771D01*
X179720057Y-185028628D01*
X180648628Y-186385771D02*
X180505771Y-186314342D01*
X180434342Y-186171485D01*
X180434342Y-184885771D01*
X181791485Y-186314342D02*
X181648628Y-186385771D01*
X181362914Y-186385771D01*
X181220057Y-186314342D01*
X181148628Y-186171485D01*
X181148628Y-185600057D01*
X181220057Y-185457200D01*
X181362914Y-185385771D01*
X181648628Y-185385771D01*
X181791485Y-185457200D01*
X181862914Y-185600057D01*
X181862914Y-185742914D01*
X181148628Y-185885771D01*
X182505771Y-186242914D02*
X182577200Y-186314342D01*
X182505771Y-186385771D01*
X182434342Y-186314342D01*
X182505771Y-186242914D01*
X182505771Y-186385771D01*
X182505771Y-185457200D02*
X182577200Y-185528628D01*
X182505771Y-185600057D01*
X182434342Y-185528628D01*
X182505771Y-185457200D01*
X182505771Y-185600057D01*
X184577200Y-186385771D02*
X184434342Y-186314342D01*
X184362914Y-186242914D01*
X184291485Y-186100057D01*
X184291485Y-185671485D01*
X184362914Y-185528628D01*
X184434342Y-185457200D01*
X184577200Y-185385771D01*
X184791485Y-185385771D01*
X184934342Y-185457200D01*
X185005771Y-185528628D01*
X185077200Y-185671485D01*
X185077200Y-186100057D01*
X185005771Y-186242914D01*
X184934342Y-186314342D01*
X184791485Y-186385771D01*
X184577200Y-186385771D01*
X186362914Y-186385771D02*
X186362914Y-184885771D01*
X186362914Y-186314342D02*
X186220057Y-186385771D01*
X185934342Y-186385771D01*
X185791485Y-186314342D01*
X185720057Y-186242914D01*
X185648628Y-186100057D01*
X185648628Y-185671485D01*
X185720057Y-185528628D01*
X185791485Y-185457200D01*
X185934342Y-185385771D01*
X186220057Y-185385771D01*
X186362914Y-185457200D01*
X187077200Y-186385771D02*
X187077200Y-185385771D01*
X187077200Y-184885771D02*
X187005771Y-184957200D01*
X187077200Y-185028628D01*
X187148628Y-184957200D01*
X187077200Y-184885771D01*
X187077200Y-185028628D01*
X187791485Y-185385771D02*
X187791485Y-186385771D01*
X187791485Y-185528628D02*
X187862914Y-185457200D01*
X188005771Y-185385771D01*
X188220057Y-185385771D01*
X188362914Y-185457200D01*
X188434342Y-185600057D01*
X188434342Y-186385771D01*
X188791485Y-186528628D02*
X189934342Y-186528628D01*
X190934342Y-186385771D02*
X190934342Y-184885771D01*
X190934342Y-186314342D02*
X190791485Y-186385771D01*
X190505771Y-186385771D01*
X190362914Y-186314342D01*
X190291485Y-186242914D01*
X190220057Y-186100057D01*
X190220057Y-185671485D01*
X190291485Y-185528628D01*
X190362914Y-185457200D01*
X190505771Y-185385771D01*
X190791485Y-185385771D01*
X190934342Y-185457200D01*
X191648628Y-186242914D02*
X191720057Y-186314342D01*
X191648628Y-186385771D01*
X191577200Y-186314342D01*
X191648628Y-186242914D01*
X191648628Y-186385771D01*
X192362914Y-186385771D02*
X192362914Y-184885771D01*
X192505771Y-185814342D02*
X192934342Y-186385771D01*
X192934342Y-185385771D02*
X192362914Y-185957200D01*
X193577200Y-186385771D02*
X193577200Y-185385771D01*
X193577200Y-184885771D02*
X193505771Y-184957200D01*
X193577200Y-185028628D01*
X193648628Y-184957200D01*
X193577200Y-184885771D01*
X193577200Y-185028628D01*
X194934342Y-186314342D02*
X194791485Y-186385771D01*
X194505771Y-186385771D01*
X194362914Y-186314342D01*
X194291485Y-186242914D01*
X194220057Y-186100057D01*
X194220057Y-185671485D01*
X194291485Y-185528628D01*
X194362914Y-185457200D01*
X194505771Y-185385771D01*
X194791485Y-185385771D01*
X194934342Y-185457200D01*
X196220057Y-186385771D02*
X196220057Y-185600057D01*
X196148628Y-185457200D01*
X196005771Y-185385771D01*
X195720057Y-185385771D01*
X195577200Y-185457200D01*
X196220057Y-186314342D02*
X196077200Y-186385771D01*
X195720057Y-186385771D01*
X195577200Y-186314342D01*
X195505771Y-186171485D01*
X195505771Y-186028628D01*
X195577200Y-185885771D01*
X195720057Y-185814342D01*
X196077200Y-185814342D01*
X196220057Y-185742914D01*
X197577200Y-186385771D02*
X197577200Y-184885771D01*
X197577200Y-186314342D02*
X197434342Y-186385771D01*
X197148628Y-186385771D01*
X197005771Y-186314342D01*
X196934342Y-186242914D01*
X196862914Y-186100057D01*
X196862914Y-185671485D01*
X196934342Y-185528628D01*
X197005771Y-185457200D01*
X197148628Y-185385771D01*
X197434342Y-185385771D01*
X197577200Y-185457200D01*
X197934342Y-186528628D02*
X199077200Y-186528628D01*
X199434342Y-185385771D02*
X199434342Y-186885771D01*
X199434342Y-185457200D02*
X199577200Y-185385771D01*
X199862914Y-185385771D01*
X200005771Y-185457200D01*
X200077200Y-185528628D01*
X200148628Y-185671485D01*
X200148628Y-186100057D01*
X200077200Y-186242914D01*
X200005771Y-186314342D01*
X199862914Y-186385771D01*
X199577200Y-186385771D01*
X199434342Y-186314342D01*
X201434342Y-186314342D02*
X201291485Y-186385771D01*
X201005771Y-186385771D01*
X200862914Y-186314342D01*
X200791485Y-186242914D01*
X200720057Y-186100057D01*
X200720057Y-185671485D01*
X200791485Y-185528628D01*
X200862914Y-185457200D01*
X201005771Y-185385771D01*
X201291485Y-185385771D01*
X201434342Y-185457200D01*
X202077200Y-186385771D02*
X202077200Y-184885771D01*
X202077200Y-185457200D02*
X202220057Y-185385771D01*
X202505771Y-185385771D01*
X202648628Y-185457200D01*
X202720057Y-185528628D01*
X202791485Y-185671485D01*
X202791485Y-186100057D01*
X202720057Y-186242914D01*
X202648628Y-186314342D01*
X202505771Y-186385771D01*
X202220057Y-186385771D01*
X202077200Y-186314342D01*
D10*
D11*
X177002200Y-181507200D02*
X285002200Y-181507200D01*
D10*
D11*
X178362914Y-183614342D02*
X178577200Y-183685771D01*
X178934342Y-183685771D01*
X179077200Y-183614342D01*
X179148628Y-183542914D01*
X179220057Y-183400057D01*
X179220057Y-183257200D01*
X179148628Y-183114342D01*
X179077200Y-183042914D01*
X178934342Y-182971485D01*
X178648628Y-182900057D01*
X178505771Y-182828628D01*
X178434342Y-182757200D01*
X178362914Y-182614342D01*
X178362914Y-182471485D01*
X178434342Y-182328628D01*
X178505771Y-182257200D01*
X178648628Y-182185771D01*
X179005771Y-182185771D01*
X179220057Y-182257200D01*
X179862914Y-183685771D02*
X179862914Y-182185771D01*
X180505771Y-183685771D02*
X180505771Y-182900057D01*
X180434342Y-182757200D01*
X180291485Y-182685771D01*
X180077200Y-182685771D01*
X179934342Y-182757200D01*
X179862914Y-182828628D01*
X181791485Y-183614342D02*
X181648628Y-183685771D01*
X181362914Y-183685771D01*
X181220057Y-183614342D01*
X181148628Y-183471485D01*
X181148628Y-182900057D01*
X181220057Y-182757200D01*
X181362914Y-182685771D01*
X181648628Y-182685771D01*
X181791485Y-182757200D01*
X181862914Y-182900057D01*
X181862914Y-183042914D01*
X181148628Y-183185771D01*
X183077200Y-183614342D02*
X182934342Y-183685771D01*
X182648628Y-183685771D01*
X182505771Y-183614342D01*
X182434342Y-183471485D01*
X182434342Y-182900057D01*
X182505771Y-182757200D01*
X182648628Y-182685771D01*
X182934342Y-182685771D01*
X183077200Y-182757200D01*
X183148628Y-182900057D01*
X183148628Y-183042914D01*
X182434342Y-183185771D01*
X183577200Y-182685771D02*
X184148628Y-182685771D01*
X183791485Y-182185771D02*
X183791485Y-183471485D01*
X183862914Y-183614342D01*
X184005771Y-183685771D01*
X184148628Y-183685771D01*
X184648628Y-183542914D02*
X184720057Y-183614342D01*
X184648628Y-183685771D01*
X184577200Y-183614342D01*
X184648628Y-183542914D01*
X184648628Y-183685771D01*
X184648628Y-182757200D02*
X184720057Y-182828628D01*
X184648628Y-182900057D01*
X184577200Y-182828628D01*
X184648628Y-182757200D01*
X184648628Y-182900057D01*
D10*
D12*
X178411485Y-179185771D02*
X178768628Y-180685771D01*
X179054342Y-179614342D01*
X179340057Y-180685771D01*
X179697200Y-179185771D01*
X180911485Y-179685771D02*
X180911485Y-180685771D01*
X180554342Y-179114342D02*
X180197200Y-180185771D01*
X181125771Y-180185771D01*
X182554342Y-180542914D02*
X182482914Y-180614342D01*
X182268628Y-180685771D01*
X182125771Y-180685771D01*
X181911485Y-180614342D01*
X181768628Y-180471485D01*
X181697200Y-180328628D01*
X181625771Y-180042914D01*
X181625771Y-179828628D01*
X181697200Y-179542914D01*
X181768628Y-179400057D01*
X181911485Y-179257200D01*
X182125771Y-179185771D01*
X182268628Y-179185771D01*
X182482914Y-179257200D01*
X182554342Y-179328628D01*
X183482914Y-179185771D02*
X183768628Y-179185771D01*
X183911485Y-179257200D01*
X184054342Y-179400057D01*
X184125771Y-179685771D01*
X184125771Y-180185771D01*
X184054342Y-180471485D01*
X183911485Y-180614342D01*
X183768628Y-180685771D01*
X183482914Y-180685771D01*
X183340057Y-180614342D01*
X183197200Y-180471485D01*
X183125771Y-180185771D01*
X183125771Y-179685771D01*
X183197200Y-179400057D01*
X183340057Y-179257200D01*
X183482914Y-179185771D01*
X184768628Y-180685771D02*
X184768628Y-179185771D01*
X185268628Y-180257200D01*
X185768628Y-179185771D01*
X185768628Y-180685771D01*
X188482914Y-180542914D02*
X188411485Y-180614342D01*
X188197200Y-180685771D01*
X188054342Y-180685771D01*
X187840057Y-180614342D01*
X187697200Y-180471485D01*
X187625771Y-180328628D01*
X187554342Y-180042914D01*
X187554342Y-179828628D01*
X187625771Y-179542914D01*
X187697200Y-179400057D01*
X187840057Y-179257200D01*
X188054342Y-179185771D01*
X188197200Y-179185771D01*
X188411485Y-179257200D01*
X188482914Y-179328628D01*
X189411485Y-179185771D02*
X189697200Y-179185771D01*
X189840057Y-179257200D01*
X189982914Y-179400057D01*
X190054342Y-179685771D01*
X190054342Y-180185771D01*
X189982914Y-180471485D01*
X189840057Y-180614342D01*
X189697200Y-180685771D01*
X189411485Y-180685771D01*
X189268628Y-180614342D01*
X189125771Y-180471485D01*
X189054342Y-180185771D01*
X189054342Y-179685771D01*
X189125771Y-179400057D01*
X189268628Y-179257200D01*
X189411485Y-179185771D01*
X190697200Y-180685771D02*
X190697200Y-179185771D01*
X191554342Y-180685771D01*
X191554342Y-179185771D01*
X192768628Y-179900057D02*
X192268628Y-179900057D01*
X192268628Y-180685771D02*
X192268628Y-179185771D01*
X192982914Y-179185771D01*
X193554342Y-180685771D02*
X193554342Y-179185771D01*
X194268628Y-180685771D02*
X194268628Y-179185771D01*
X194625771Y-179185771D01*
X194840057Y-179257200D01*
X194982914Y-179400057D01*
X195054342Y-179542914D01*
X195125771Y-179828628D01*
X195125771Y-180042914D01*
X195054342Y-180328628D01*
X194982914Y-180471485D01*
X194840057Y-180614342D01*
X194625771Y-180685771D01*
X194268628Y-180685771D01*
X195768628Y-179900057D02*
X196268628Y-179900057D01*
X196482914Y-180685771D02*
X195768628Y-180685771D01*
X195768628Y-179185771D01*
X196482914Y-179185771D01*
X197125771Y-180685771D02*
X197125771Y-179185771D01*
X197982914Y-180685771D01*
X197982914Y-179185771D01*
X199554342Y-180542914D02*
X199482914Y-180614342D01*
X199268628Y-180685771D01*
X199125771Y-180685771D01*
X198911485Y-180614342D01*
X198768628Y-180471485D01*
X198697200Y-180328628D01*
X198625771Y-180042914D01*
X198625771Y-179828628D01*
X198697200Y-179542914D01*
X198768628Y-179400057D01*
X198911485Y-179257200D01*
X199125771Y-179185771D01*
X199268628Y-179185771D01*
X199482914Y-179257200D01*
X199554342Y-179328628D01*
X200197200Y-180685771D02*
X200197200Y-179185771D01*
X200840057Y-180257200D02*
X201554342Y-180257200D01*
X200697200Y-180685771D02*
X201197200Y-179185771D01*
X201697200Y-180685771D01*
X202911485Y-180685771D02*
X202197200Y-180685771D01*
X202197200Y-179185771D01*
D10*
D11*
X197002200Y-191507200D02*
X197002200Y-194507200D01*
D10*
D11*
X261002200Y-191507200D02*
X261002200Y-198007200D01*
D14*
X132890000Y-83920000D02*
X133460000Y-83920000D01*
X132900000Y-83420000D02*
X133240000Y-83420000D01*
X137060000Y-81280000D02*
X137060000Y-83280000D01*
X144680000Y-81240000D02*
X144680000Y-83240000D01*
X143180000Y-88490000D02*
X141180000Y-88490000D01*
D11*
X163610000Y-85820000D02*
X162110000Y-85820000D01*
X162110000Y-85820000D02*
X162110000Y-86090000D01*
X162110000Y-86090000D02*
X159280000Y-86090000D01*
X163610000Y-92720000D02*
X162110000Y-92720000D01*
X162110000Y-92720000D02*
X162110000Y-92450000D01*
X162110000Y-92450000D02*
X161010000Y-92450000D01*
X141798578Y-89860000D02*
X141281422Y-89860000D01*
X141798578Y-88440000D02*
X141281422Y-88440000D01*
X141798578Y-86160000D02*
X141281422Y-86160000D01*
X141798578Y-87580000D02*
X141281422Y-87580000D01*
X141798578Y-85360000D02*
X141281422Y-85360000D01*
X141798578Y-83940000D02*
X141281422Y-83940000D01*
X148300000Y-102331422D02*
X148300000Y-102848578D01*
X149720000Y-102331422D02*
X149720000Y-102848578D01*
X156400000Y-99480000D02*
X155470000Y-99480000D01*
X153240000Y-99480000D02*
X154170000Y-99480000D01*
X153240000Y-99480000D02*
X153240000Y-101640000D01*
X156400000Y-99480000D02*
X156400000Y-100940000D01*
X135550000Y-81280000D02*
X135550000Y-83280000D01*
X135550000Y-83280000D02*
X139450000Y-83280000D01*
X135550000Y-81280000D02*
X139450000Y-81280000D01*
X146170000Y-83230000D02*
X142270000Y-83230000D01*
X146170000Y-81230000D02*
X142270000Y-81230000D01*
X146170000Y-83230000D02*
X146170000Y-81230000D01*
X158180000Y-100670000D02*
X159640000Y-100670000D01*
X158180000Y-103830000D02*
X160340000Y-103830000D01*
X158180000Y-103830000D02*
X158180000Y-102900000D01*
X158180000Y-100670000D02*
X158180000Y-101600000D01*
D14*
X146851422Y-93550000D02*
X147368578Y-93550000D01*
X146851422Y-92130000D02*
X147368578Y-92130000D01*
X149700000Y-98761422D02*
X149700000Y-99278578D01*
X148280000Y-98761422D02*
X148280000Y-99278578D01*
X162850000Y-101951422D02*
X162850000Y-102468578D01*
X161430000Y-101951422D02*
X161430000Y-102468578D01*
X151080000Y-98781422D02*
X151080000Y-99298578D01*
X152500000Y-98781422D02*
X152500000Y-99298578D01*
X156148578Y-92090000D02*
X155631422Y-92090000D01*
X156148578Y-90670000D02*
X155631422Y-90670000D01*
X150533922Y-92100000D02*
X151051078Y-92100000D01*
X150533922Y-93520000D02*
X151051078Y-93520000D01*
X149717936Y-94780000D02*
X150922064Y-94780000D01*
X149717936Y-96600000D02*
X150922064Y-96600000D01*
X141897936Y-102240000D02*
X143102064Y-102240000D01*
X141897936Y-104960000D02*
X143102064Y-104960000D01*
X134260000Y-102257936D02*
X134260000Y-103462064D01*
X131540000Y-102257936D02*
X131540000Y-103462064D01*
X135300000Y-97057936D02*
X135300000Y-98262064D01*
X138020000Y-97057936D02*
X138020000Y-98262064D01*
X134210000Y-92627936D02*
X134210000Y-93832064D01*
X131490000Y-92627936D02*
X131490000Y-93832064D01*
X135300000Y-87637936D02*
X135300000Y-88842064D01*
X138020000Y-87637936D02*
X138020000Y-88842064D01*
X134260000Y-83067936D02*
X134260000Y-84272064D01*
X131540000Y-83067936D02*
X131540000Y-84272064D01*
D11*
X162497995Y-93200017D02*
X162897995Y-93200017D01*
X162697995Y-93900017D02*
X162697995Y-93200017D01*
X163497995Y-93900017D02*
X163097995Y-93900017D01*
X163297995Y-93900017D02*
X163297995Y-93200017D01*
X163231329Y-93300017D01*
X163164662Y-93366684D01*
X163097995Y-93400017D01*
X144093333Y-89380000D02*
X144060000Y-89413333D01*
X143960000Y-89446666D01*
X143893333Y-89446666D01*
X143793333Y-89413333D01*
X143726666Y-89346666D01*
X143693333Y-89280000D01*
X143660000Y-89146666D01*
X143660000Y-89046666D01*
X143693333Y-88913333D01*
X143726666Y-88846666D01*
X143793333Y-88780000D01*
X143893333Y-88746666D01*
X143960000Y-88746666D01*
X144060000Y-88780000D01*
X144093333Y-88813333D01*
X144760000Y-89446666D02*
X144360000Y-89446666D01*
X144560000Y-89446666D02*
X144560000Y-88746666D01*
X144493333Y-88846666D01*
X144426666Y-88913333D01*
X144360000Y-88946666D01*
X144207333Y-87132000D02*
X144174000Y-87165333D01*
X144074000Y-87198666D01*
X144007333Y-87198666D01*
X143907333Y-87165333D01*
X143840666Y-87098666D01*
X143807333Y-87032000D01*
X143774000Y-86898666D01*
X143774000Y-86798666D01*
X143807333Y-86665333D01*
X143840666Y-86598666D01*
X143907333Y-86532000D01*
X144007333Y-86498666D01*
X144074000Y-86498666D01*
X144174000Y-86532000D01*
X144207333Y-86565333D01*
X144474000Y-86565333D02*
X144507333Y-86532000D01*
X144574000Y-86498666D01*
X144740666Y-86498666D01*
X144807333Y-86532000D01*
X144840666Y-86565333D01*
X144874000Y-86632000D01*
X144874000Y-86698666D01*
X144840666Y-86798666D01*
X144440666Y-87198666D01*
X144874000Y-87198666D01*
X144227333Y-84802000D02*
X144194000Y-84835333D01*
X144094000Y-84868666D01*
X144027333Y-84868666D01*
X143927333Y-84835333D01*
X143860666Y-84768666D01*
X143827333Y-84702000D01*
X143794000Y-84568666D01*
X143794000Y-84468666D01*
X143827333Y-84335333D01*
X143860666Y-84268666D01*
X143927333Y-84202000D01*
X144027333Y-84168666D01*
X144094000Y-84168666D01*
X144194000Y-84202000D01*
X144227333Y-84235333D01*
X144460666Y-84168666D02*
X144894000Y-84168666D01*
X144660666Y-84435333D01*
X144760666Y-84435333D01*
X144827333Y-84468666D01*
X144860666Y-84502000D01*
X144894000Y-84568666D01*
X144894000Y-84735333D01*
X144860666Y-84802000D01*
X144827333Y-84835333D01*
X144760666Y-84868666D01*
X144560666Y-84868666D01*
X144494000Y-84835333D01*
X144460666Y-84802000D01*
X147650000Y-102736666D02*
X147683333Y-102770000D01*
X147716666Y-102870000D01*
X147716666Y-102936666D01*
X147683333Y-103036666D01*
X147616666Y-103103333D01*
X147550000Y-103136666D01*
X147416666Y-103170000D01*
X147316666Y-103170000D01*
X147183333Y-103136666D01*
X147116666Y-103103333D01*
X147050000Y-103036666D01*
X147016666Y-102936666D01*
X147016666Y-102870000D01*
X147050000Y-102770000D01*
X147083333Y-102736666D01*
X147250000Y-102136666D02*
X147716666Y-102136666D01*
X146983333Y-102303333D02*
X147483333Y-102470000D01*
X147483333Y-102036666D01*
X155323333Y-102816666D02*
X155290000Y-102883333D01*
X155223333Y-102950000D01*
X155123333Y-103050000D01*
X155090000Y-103116666D01*
X155090000Y-103183333D01*
X155256666Y-103150000D02*
X155223333Y-103216666D01*
X155156666Y-103283333D01*
X155023333Y-103316666D01*
X154790000Y-103316666D01*
X154656666Y-103283333D01*
X154590000Y-103216666D01*
X154556666Y-103150000D01*
X154556666Y-103016666D01*
X154590000Y-102950000D01*
X154656666Y-102883333D01*
X154790000Y-102850000D01*
X155023333Y-102850000D01*
X155156666Y-102883333D01*
X155223333Y-102950000D01*
X155256666Y-103016666D01*
X155256666Y-103150000D01*
X154556666Y-102216666D02*
X154556666Y-102550000D01*
X154890000Y-102583333D01*
X154856666Y-102550000D01*
X154823333Y-102483333D01*
X154823333Y-102316666D01*
X154856666Y-102250000D01*
X154890000Y-102216666D01*
X154956666Y-102183333D01*
X155123333Y-102183333D01*
X155190000Y-102216666D01*
X155223333Y-102250000D01*
X155256666Y-102316666D01*
X155256666Y-102483333D01*
X155223333Y-102550000D01*
X155190000Y-102583333D01*
X137443333Y-84556666D02*
X137443333Y-83856666D01*
X137610000Y-83856666D01*
X137710000Y-83890000D01*
X137776666Y-83956666D01*
X137810000Y-84023333D01*
X137843333Y-84156666D01*
X137843333Y-84256666D01*
X137810000Y-84390000D01*
X137776666Y-84456666D01*
X137710000Y-84523333D01*
X137610000Y-84556666D01*
X137443333Y-84556666D01*
X138510000Y-84556666D02*
X138110000Y-84556666D01*
X138310000Y-84556666D02*
X138310000Y-83856666D01*
X138243333Y-83956666D01*
X138176666Y-84023333D01*
X138110000Y-84056666D01*
X146603333Y-82516666D02*
X146603333Y-81816666D01*
X146770000Y-81816666D01*
X146870000Y-81850000D01*
X146936666Y-81916666D01*
X146970000Y-81983333D01*
X147003333Y-82116666D01*
X147003333Y-82216666D01*
X146970000Y-82350000D01*
X146936666Y-82416666D01*
X146870000Y-82483333D01*
X146770000Y-82516666D01*
X146603333Y-82516666D01*
X147270000Y-81883333D02*
X147303333Y-81850000D01*
X147370000Y-81816666D01*
X147536666Y-81816666D01*
X147603333Y-81850000D01*
X147636666Y-81883333D01*
X147670000Y-81950000D01*
X147670000Y-82016666D01*
X147636666Y-82116666D01*
X147236666Y-82516666D01*
X147670000Y-82516666D01*
X159223333Y-100263333D02*
X159156666Y-100230000D01*
X159090000Y-100163333D01*
X158990000Y-100063333D01*
X158923333Y-100030000D01*
X158856666Y-100030000D01*
X158890000Y-100196666D02*
X158823333Y-100163333D01*
X158756666Y-100096666D01*
X158723333Y-99963333D01*
X158723333Y-99730000D01*
X158756666Y-99596666D01*
X158823333Y-99530000D01*
X158890000Y-99496666D01*
X159023333Y-99496666D01*
X159090000Y-99530000D01*
X159156666Y-99596666D01*
X159190000Y-99730000D01*
X159190000Y-99963333D01*
X159156666Y-100096666D01*
X159090000Y-100163333D01*
X159023333Y-100196666D01*
X158890000Y-100196666D01*
X159790000Y-99730000D02*
X159790000Y-100196666D01*
X159623333Y-99463333D02*
X159456666Y-99963333D01*
X159890000Y-99963333D01*
X161527142Y-95042380D02*
X161050952Y-95042380D01*
X161050952Y-94042380D01*
X162003333Y-95042380D02*
X161908095Y-94994761D01*
X161860476Y-94947142D01*
X161812857Y-94851904D01*
X161812857Y-94566190D01*
X161860476Y-94470952D01*
X161908095Y-94423333D01*
X162003333Y-94375714D01*
X162146190Y-94375714D01*
X162241428Y-94423333D01*
X162289047Y-94470952D01*
X162336666Y-94566190D01*
X162336666Y-94851904D01*
X162289047Y-94947142D01*
X162241428Y-94994761D01*
X162146190Y-95042380D01*
X162003333Y-95042380D01*
X144684285Y-95822380D02*
X144684285Y-94822380D01*
X145255714Y-95822380D01*
X145255714Y-94822380D01*
X152971428Y-82702380D02*
X152495238Y-82702380D01*
X152495238Y-81702380D01*
X153304761Y-82702380D02*
X153304761Y-82035714D01*
X153304761Y-81702380D02*
X153257142Y-81750000D01*
X153304761Y-81797619D01*
X153352380Y-81750000D01*
X153304761Y-81702380D01*
X153304761Y-81797619D01*
X146993333Y-94846666D02*
X146760000Y-94513333D01*
X146593333Y-94846666D02*
X146593333Y-94146666D01*
X146860000Y-94146666D01*
X146926666Y-94180000D01*
X146960000Y-94213333D01*
X146993333Y-94280000D01*
X146993333Y-94380000D01*
X146960000Y-94446666D01*
X146926666Y-94480000D01*
X146860000Y-94513333D01*
X146593333Y-94513333D01*
X147593333Y-94146666D02*
X147460000Y-94146666D01*
X147393333Y-94180000D01*
X147360000Y-94213333D01*
X147293333Y-94313333D01*
X147260000Y-94446666D01*
X147260000Y-94713333D01*
X147293333Y-94780000D01*
X147326666Y-94813333D01*
X147393333Y-94846666D01*
X147526666Y-94846666D01*
X147593333Y-94813333D01*
X147626666Y-94780000D01*
X147660000Y-94713333D01*
X147660000Y-94546666D01*
X147626666Y-94480000D01*
X147593333Y-94446666D01*
X147526666Y-94413333D01*
X147393333Y-94413333D01*
X147326666Y-94446666D01*
X147293333Y-94480000D01*
X147260000Y-94546666D01*
X147836666Y-99076666D02*
X147503333Y-99310000D01*
X147836666Y-99476666D02*
X147136666Y-99476666D01*
X147136666Y-99210000D01*
X147170000Y-99143333D01*
X147203333Y-99110000D01*
X147270000Y-99076666D01*
X147370000Y-99076666D01*
X147436666Y-99110000D01*
X147470000Y-99143333D01*
X147503333Y-99210000D01*
X147503333Y-99476666D01*
X147136666Y-98843333D02*
X147136666Y-98376666D01*
X147836666Y-98676666D01*
X164106666Y-102326666D02*
X163773333Y-102560000D01*
X164106666Y-102726666D02*
X163406666Y-102726666D01*
X163406666Y-102460000D01*
X163440000Y-102393333D01*
X163473333Y-102360000D01*
X163540000Y-102326666D01*
X163640000Y-102326666D01*
X163706666Y-102360000D01*
X163740000Y-102393333D01*
X163773333Y-102460000D01*
X163773333Y-102726666D01*
X164106666Y-101993333D02*
X164106666Y-101860000D01*
X164073333Y-101793333D01*
X164040000Y-101760000D01*
X163940000Y-101693333D01*
X163806666Y-101660000D01*
X163540000Y-101660000D01*
X163473333Y-101693333D01*
X163440000Y-101726666D01*
X163406666Y-101793333D01*
X163406666Y-101926666D01*
X163440000Y-101993333D01*
X163473333Y-102026666D01*
X163540000Y-102060000D01*
X163706666Y-102060000D01*
X163773333Y-102026666D01*
X163806666Y-101993333D01*
X163840000Y-101926666D01*
X163840000Y-101793333D01*
X163806666Y-101726666D01*
X163773333Y-101693333D01*
X163706666Y-101660000D01*
X153796666Y-98566666D02*
X153463333Y-98800000D01*
X153796666Y-98966666D02*
X153096666Y-98966666D01*
X153096666Y-98700000D01*
X153130000Y-98633333D01*
X153163333Y-98600000D01*
X153230000Y-98566666D01*
X153330000Y-98566666D01*
X153396666Y-98600000D01*
X153430000Y-98633333D01*
X153463333Y-98700000D01*
X153463333Y-98966666D01*
X153396666Y-98166666D02*
X153363333Y-98233333D01*
X153330000Y-98266666D01*
X153263333Y-98300000D01*
X153230000Y-98300000D01*
X153163333Y-98266666D01*
X153130000Y-98233333D01*
X153096666Y-98166666D01*
X153096666Y-98033333D01*
X153130000Y-97966666D01*
X153163333Y-97933333D01*
X153230000Y-97900000D01*
X153263333Y-97900000D01*
X153330000Y-97933333D01*
X153363333Y-97966666D01*
X153396666Y-98033333D01*
X153396666Y-98166666D01*
X153430000Y-98233333D01*
X153463333Y-98266666D01*
X153530000Y-98300000D01*
X153663333Y-98300000D01*
X153730000Y-98266666D01*
X153763333Y-98233333D01*
X153796666Y-98166666D01*
X153796666Y-98033333D01*
X153763333Y-97966666D01*
X153730000Y-97933333D01*
X153663333Y-97900000D01*
X153530000Y-97900000D01*
X153463333Y-97933333D01*
X153430000Y-97966666D01*
X153396666Y-98033333D01*
X155440000Y-93346666D02*
X155206666Y-93013333D01*
X155040000Y-93346666D02*
X155040000Y-92646666D01*
X155306666Y-92646666D01*
X155373333Y-92680000D01*
X155406666Y-92713333D01*
X155440000Y-92780000D01*
X155440000Y-92880000D01*
X155406666Y-92946666D01*
X155373333Y-92980000D01*
X155306666Y-93013333D01*
X155040000Y-93013333D01*
X156106666Y-93346666D02*
X155706666Y-93346666D01*
X155906666Y-93346666D02*
X155906666Y-92646666D01*
X155840000Y-92746666D01*
X155773333Y-92813333D01*
X155706666Y-92846666D01*
X156540000Y-92646666D02*
X156606666Y-92646666D01*
X156673333Y-92680000D01*
X156706666Y-92713333D01*
X156740000Y-92780000D01*
X156773333Y-92913333D01*
X156773333Y-93080000D01*
X156740000Y-93213333D01*
X156706666Y-93280000D01*
X156673333Y-93313333D01*
X156606666Y-93346666D01*
X156540000Y-93346666D01*
X156473333Y-93313333D01*
X156440000Y-93280000D01*
X156406666Y-93213333D01*
X156373333Y-93080000D01*
X156373333Y-92913333D01*
X156406666Y-92780000D01*
X156440000Y-92713333D01*
X156473333Y-92680000D01*
X156540000Y-92646666D01*
X149889166Y-91481666D02*
X149889166Y-90781666D01*
X150155833Y-90781666D01*
X150222500Y-90815000D01*
X150255833Y-90848333D01*
X150289166Y-90915000D01*
X150289166Y-91015000D01*
X150255833Y-91081666D01*
X150222500Y-91115000D01*
X150155833Y-91148333D01*
X149889166Y-91148333D01*
X150589166Y-91481666D02*
X150589166Y-90781666D01*
X150589166Y-91115000D02*
X150989166Y-91115000D01*
X150989166Y-91481666D02*
X150989166Y-90781666D01*
X151689166Y-91481666D02*
X151289166Y-91481666D01*
X151489166Y-91481666D02*
X151489166Y-90781666D01*
X151422500Y-90881666D01*
X151355833Y-90948333D01*
X151289166Y-90981666D01*
X152886666Y-95346666D02*
X152886666Y-94646666D01*
X153153333Y-94646666D01*
X153220000Y-94680000D01*
X153253333Y-94713333D01*
X153286666Y-94780000D01*
X153286666Y-94880000D01*
X153253333Y-94946666D01*
X153220000Y-94980000D01*
X153153333Y-95013333D01*
X152886666Y-95013333D01*
X153586666Y-95346666D02*
X153586666Y-94646666D01*
X153586666Y-94980000D02*
X153986666Y-94980000D01*
X153986666Y-95346666D02*
X153986666Y-94646666D01*
X154253333Y-94646666D02*
X154686666Y-94646666D01*
X154453333Y-94913333D01*
X154553333Y-94913333D01*
X154620000Y-94946666D01*
X154653333Y-94980000D01*
X154686666Y-95046666D01*
X154686666Y-95213333D01*
X154653333Y-95280000D01*
X154620000Y-95313333D01*
X154553333Y-95346666D01*
X154353333Y-95346666D01*
X154286666Y-95313333D01*
X154253333Y-95280000D01*
X142383333Y-101636666D02*
X142150000Y-101303333D01*
X141983333Y-101636666D02*
X141983333Y-100936666D01*
X142250000Y-100936666D01*
X142316666Y-100970000D01*
X142350000Y-101003333D01*
X142383333Y-101070000D01*
X142383333Y-101170000D01*
X142350000Y-101236666D01*
X142316666Y-101270000D01*
X142250000Y-101303333D01*
X141983333Y-101303333D01*
X142816666Y-100936666D02*
X142883333Y-100936666D01*
X142950000Y-100970000D01*
X142983333Y-101003333D01*
X143016666Y-101070000D01*
X143050000Y-101203333D01*
X143050000Y-101370000D01*
X143016666Y-101503333D01*
X142983333Y-101570000D01*
X142950000Y-101603333D01*
X142883333Y-101636666D01*
X142816666Y-101636666D01*
X142750000Y-101603333D01*
X142716666Y-101570000D01*
X142683333Y-101503333D01*
X142650000Y-101370000D01*
X142650000Y-101203333D01*
X142683333Y-101070000D01*
X142716666Y-101003333D01*
X142750000Y-100970000D01*
X142816666Y-100936666D01*
X135496666Y-102976666D02*
X135163333Y-103210000D01*
X135496666Y-103376666D02*
X134796666Y-103376666D01*
X134796666Y-103110000D01*
X134830000Y-103043333D01*
X134863333Y-103010000D01*
X134930000Y-102976666D01*
X135030000Y-102976666D01*
X135096666Y-103010000D01*
X135130000Y-103043333D01*
X135163333Y-103110000D01*
X135163333Y-103376666D01*
X135496666Y-102310000D02*
X135496666Y-102710000D01*
X135496666Y-102510000D02*
X134796666Y-102510000D01*
X134896666Y-102576666D01*
X134963333Y-102643333D01*
X134996666Y-102710000D01*
X139256666Y-97776666D02*
X138923333Y-98010000D01*
X139256666Y-98176666D02*
X138556666Y-98176666D01*
X138556666Y-97910000D01*
X138590000Y-97843333D01*
X138623333Y-97810000D01*
X138690000Y-97776666D01*
X138790000Y-97776666D01*
X138856666Y-97810000D01*
X138890000Y-97843333D01*
X138923333Y-97910000D01*
X138923333Y-98176666D01*
X138623333Y-97510000D02*
X138590000Y-97476666D01*
X138556666Y-97410000D01*
X138556666Y-97243333D01*
X138590000Y-97176666D01*
X138623333Y-97143333D01*
X138690000Y-97110000D01*
X138756666Y-97110000D01*
X138856666Y-97143333D01*
X139256666Y-97543333D01*
X139256666Y-97110000D01*
X135446666Y-93346666D02*
X135113333Y-93580000D01*
X135446666Y-93746666D02*
X134746666Y-93746666D01*
X134746666Y-93480000D01*
X134780000Y-93413333D01*
X134813333Y-93380000D01*
X134880000Y-93346666D01*
X134980000Y-93346666D01*
X135046666Y-93380000D01*
X135080000Y-93413333D01*
X135113333Y-93480000D01*
X135113333Y-93746666D01*
X134746666Y-93113333D02*
X134746666Y-92680000D01*
X135013333Y-92913333D01*
X135013333Y-92813333D01*
X135046666Y-92746666D01*
X135080000Y-92713333D01*
X135146666Y-92680000D01*
X135313333Y-92680000D01*
X135380000Y-92713333D01*
X135413333Y-92746666D01*
X135446666Y-92813333D01*
X135446666Y-93013333D01*
X135413333Y-93080000D01*
X135380000Y-93113333D01*
X139256666Y-88356666D02*
X138923333Y-88590000D01*
X139256666Y-88756666D02*
X138556666Y-88756666D01*
X138556666Y-88490000D01*
X138590000Y-88423333D01*
X138623333Y-88390000D01*
X138690000Y-88356666D01*
X138790000Y-88356666D01*
X138856666Y-88390000D01*
X138890000Y-88423333D01*
X138923333Y-88490000D01*
X138923333Y-88756666D01*
X138790000Y-87756666D02*
X139256666Y-87756666D01*
X138523333Y-87923333D02*
X139023333Y-88090000D01*
X139023333Y-87656666D01*
X135546666Y-84586666D02*
X135213333Y-84820000D01*
X135546666Y-84986666D02*
X134846666Y-84986666D01*
X134846666Y-84720000D01*
X134880000Y-84653333D01*
X134913333Y-84620000D01*
X134980000Y-84586666D01*
X135080000Y-84586666D01*
X135146666Y-84620000D01*
X135180000Y-84653333D01*
X135213333Y-84720000D01*
X135213333Y-84986666D01*
X134846666Y-83953333D02*
X134846666Y-84286666D01*
X135180000Y-84320000D01*
X135146666Y-84286666D01*
X135113333Y-84220000D01*
X135113333Y-84053333D01*
X135146666Y-83986666D01*
X135180000Y-83953333D01*
X135246666Y-83920000D01*
X135413333Y-83920000D01*
X135480000Y-83953333D01*
X135513333Y-83986666D01*
X135546666Y-84053333D01*
X135546666Y-84220000D01*
X135513333Y-84286666D01*
X135480000Y-84320000D01*
M02*
