G04 #@! TF.GenerationSoftware,KiCad,Pcbnew,(5.1.4)-1*
G04 #@! TF.CreationDate,2021-05-06T09:23:44-03:00*
G04 #@! TF.ProjectId,odin_d,6f64696e-5f64-42e6-9b69-6361645f7063,rev?*
G04 #@! TF.SameCoordinates,Original*
G04 #@! TF.FileFunction,Soldermask,Top*
G04 #@! TF.FilePolarity,Negative*
%FSLAX46Y46*%
G04 Gerber Fmt 4.6, Leading zero omitted, Abs format (unit mm)*
G04 Created by KiCad (PCBNEW (5.1.4)-1) date 2021-05-06 09:23:44*
%MOMM*%
%LPD*%
G04 APERTURE LIST*
%ADD10C,0.100000*%
%ADD11C,0.150000*%
%ADD12C,0.300000*%
%ADD13C,0.400000*%
G04 APERTURE END LIST*
D10*
D11*
X177002200Y-166007200D02*
X177002200Y-198007200D01*
X285002200Y-198007200D01*
X285002200Y-166007200D01*
X177002200Y-166007200D01*
D10*
D11*
X10000000Y-10000000D02*
X10000000Y-200007200D01*
X287002200Y-200007200D01*
X287002200Y-10000000D01*
X10000000Y-10000000D01*
D10*
D11*
X12000000Y-12000000D02*
X12000000Y-198007200D01*
X285002200Y-198007200D01*
X285002200Y-12000000D01*
X12000000Y-12000000D01*
D10*
D11*
X60000000Y-12000000D02*
X60000000Y-10000000D01*
D10*
D11*
X110000000Y-12000000D02*
X110000000Y-10000000D01*
D10*
D11*
X160000000Y-12000000D02*
X160000000Y-10000000D01*
D10*
D11*
X210000000Y-12000000D02*
X210000000Y-10000000D01*
D10*
D11*
X260000000Y-12000000D02*
X260000000Y-10000000D01*
D10*
D11*
X36065476Y-11588095D02*
X35322619Y-11588095D01*
X35694047Y-11588095D02*
X35694047Y-10288095D01*
X35570238Y-10473809D01*
X35446428Y-10597619D01*
X35322619Y-10659523D01*
D10*
D11*
X85322619Y-10411904D02*
X85384523Y-10350000D01*
X85508333Y-10288095D01*
X85817857Y-10288095D01*
X85941666Y-10350000D01*
X86003571Y-10411904D01*
X86065476Y-10535714D01*
X86065476Y-10659523D01*
X86003571Y-10845238D01*
X85260714Y-11588095D01*
X86065476Y-11588095D01*
D10*
D11*
X135260714Y-10288095D02*
X136065476Y-10288095D01*
X135632142Y-10783333D01*
X135817857Y-10783333D01*
X135941666Y-10845238D01*
X136003571Y-10907142D01*
X136065476Y-11030952D01*
X136065476Y-11340476D01*
X136003571Y-11464285D01*
X135941666Y-11526190D01*
X135817857Y-11588095D01*
X135446428Y-11588095D01*
X135322619Y-11526190D01*
X135260714Y-11464285D01*
D10*
D11*
X185941666Y-10721428D02*
X185941666Y-11588095D01*
X185632142Y-10226190D02*
X185322619Y-11154761D01*
X186127380Y-11154761D01*
D10*
D11*
X236003571Y-10288095D02*
X235384523Y-10288095D01*
X235322619Y-10907142D01*
X235384523Y-10845238D01*
X235508333Y-10783333D01*
X235817857Y-10783333D01*
X235941666Y-10845238D01*
X236003571Y-10907142D01*
X236065476Y-11030952D01*
X236065476Y-11340476D01*
X236003571Y-11464285D01*
X235941666Y-11526190D01*
X235817857Y-11588095D01*
X235508333Y-11588095D01*
X235384523Y-11526190D01*
X235322619Y-11464285D01*
D10*
D11*
X285941666Y-10288095D02*
X285694047Y-10288095D01*
X285570238Y-10350000D01*
X285508333Y-10411904D01*
X285384523Y-10597619D01*
X285322619Y-10845238D01*
X285322619Y-11340476D01*
X285384523Y-11464285D01*
X285446428Y-11526190D01*
X285570238Y-11588095D01*
X285817857Y-11588095D01*
X285941666Y-11526190D01*
X286003571Y-11464285D01*
X286065476Y-11340476D01*
X286065476Y-11030952D01*
X286003571Y-10907142D01*
X285941666Y-10845238D01*
X285817857Y-10783333D01*
X285570238Y-10783333D01*
X285446428Y-10845238D01*
X285384523Y-10907142D01*
X285322619Y-11030952D01*
D10*
D11*
X60000000Y-198007200D02*
X60000000Y-200007200D01*
D10*
D11*
X110000000Y-198007200D02*
X110000000Y-200007200D01*
D10*
D11*
X160000000Y-198007200D02*
X160000000Y-200007200D01*
D10*
D11*
X210000000Y-198007200D02*
X210000000Y-200007200D01*
D10*
D11*
X260000000Y-198007200D02*
X260000000Y-200007200D01*
D10*
D11*
X36065476Y-199595295D02*
X35322619Y-199595295D01*
X35694047Y-199595295D02*
X35694047Y-198295295D01*
X35570238Y-198481009D01*
X35446428Y-198604819D01*
X35322619Y-198666723D01*
D10*
D11*
X85322619Y-198419104D02*
X85384523Y-198357200D01*
X85508333Y-198295295D01*
X85817857Y-198295295D01*
X85941666Y-198357200D01*
X86003571Y-198419104D01*
X86065476Y-198542914D01*
X86065476Y-198666723D01*
X86003571Y-198852438D01*
X85260714Y-199595295D01*
X86065476Y-199595295D01*
D10*
D11*
X135260714Y-198295295D02*
X136065476Y-198295295D01*
X135632142Y-198790533D01*
X135817857Y-198790533D01*
X135941666Y-198852438D01*
X136003571Y-198914342D01*
X136065476Y-199038152D01*
X136065476Y-199347676D01*
X136003571Y-199471485D01*
X135941666Y-199533390D01*
X135817857Y-199595295D01*
X135446428Y-199595295D01*
X135322619Y-199533390D01*
X135260714Y-199471485D01*
D10*
D11*
X185941666Y-198728628D02*
X185941666Y-199595295D01*
X185632142Y-198233390D02*
X185322619Y-199161961D01*
X186127380Y-199161961D01*
D10*
D11*
X236003571Y-198295295D02*
X235384523Y-198295295D01*
X235322619Y-198914342D01*
X235384523Y-198852438D01*
X235508333Y-198790533D01*
X235817857Y-198790533D01*
X235941666Y-198852438D01*
X236003571Y-198914342D01*
X236065476Y-199038152D01*
X236065476Y-199347676D01*
X236003571Y-199471485D01*
X235941666Y-199533390D01*
X235817857Y-199595295D01*
X235508333Y-199595295D01*
X235384523Y-199533390D01*
X235322619Y-199471485D01*
D10*
D11*
X285941666Y-198295295D02*
X285694047Y-198295295D01*
X285570238Y-198357200D01*
X285508333Y-198419104D01*
X285384523Y-198604819D01*
X285322619Y-198852438D01*
X285322619Y-199347676D01*
X285384523Y-199471485D01*
X285446428Y-199533390D01*
X285570238Y-199595295D01*
X285817857Y-199595295D01*
X285941666Y-199533390D01*
X286003571Y-199471485D01*
X286065476Y-199347676D01*
X286065476Y-199038152D01*
X286003571Y-198914342D01*
X285941666Y-198852438D01*
X285817857Y-198790533D01*
X285570238Y-198790533D01*
X285446428Y-198852438D01*
X285384523Y-198914342D01*
X285322619Y-199038152D01*
D10*
D11*
X10000000Y-60000000D02*
X12000000Y-60000000D01*
D10*
D11*
X10000000Y-110000000D02*
X12000000Y-110000000D01*
D10*
D11*
X10000000Y-160000000D02*
X12000000Y-160000000D01*
D10*
D11*
X10690476Y-35216666D02*
X11309523Y-35216666D01*
X10566666Y-35588095D02*
X11000000Y-34288095D01*
X11433333Y-35588095D01*
D10*
D11*
X11092857Y-84907142D02*
X11278571Y-84969047D01*
X11340476Y-85030952D01*
X11402380Y-85154761D01*
X11402380Y-85340476D01*
X11340476Y-85464285D01*
X11278571Y-85526190D01*
X11154761Y-85588095D01*
X10659523Y-85588095D01*
X10659523Y-84288095D01*
X11092857Y-84288095D01*
X11216666Y-84350000D01*
X11278571Y-84411904D01*
X11340476Y-84535714D01*
X11340476Y-84659523D01*
X11278571Y-84783333D01*
X11216666Y-84845238D01*
X11092857Y-84907142D01*
X10659523Y-84907142D01*
D10*
D11*
X11402380Y-135464285D02*
X11340476Y-135526190D01*
X11154761Y-135588095D01*
X11030952Y-135588095D01*
X10845238Y-135526190D01*
X10721428Y-135402380D01*
X10659523Y-135278571D01*
X10597619Y-135030952D01*
X10597619Y-134845238D01*
X10659523Y-134597619D01*
X10721428Y-134473809D01*
X10845238Y-134350000D01*
X11030952Y-134288095D01*
X11154761Y-134288095D01*
X11340476Y-134350000D01*
X11402380Y-134411904D01*
D10*
D11*
X10659523Y-185588095D02*
X10659523Y-184288095D01*
X10969047Y-184288095D01*
X11154761Y-184350000D01*
X11278571Y-184473809D01*
X11340476Y-184597619D01*
X11402380Y-184845238D01*
X11402380Y-185030952D01*
X11340476Y-185278571D01*
X11278571Y-185402380D01*
X11154761Y-185526190D01*
X10969047Y-185588095D01*
X10659523Y-185588095D01*
D10*
D11*
X287002200Y-60000000D02*
X285002200Y-60000000D01*
D10*
D11*
X287002200Y-110000000D02*
X285002200Y-110000000D01*
D10*
D11*
X287002200Y-160000000D02*
X285002200Y-160000000D01*
D10*
D11*
X285692676Y-35216666D02*
X286311723Y-35216666D01*
X285568866Y-35588095D02*
X286002200Y-34288095D01*
X286435533Y-35588095D01*
D10*
D11*
X286095057Y-84907142D02*
X286280771Y-84969047D01*
X286342676Y-85030952D01*
X286404580Y-85154761D01*
X286404580Y-85340476D01*
X286342676Y-85464285D01*
X286280771Y-85526190D01*
X286156961Y-85588095D01*
X285661723Y-85588095D01*
X285661723Y-84288095D01*
X286095057Y-84288095D01*
X286218866Y-84350000D01*
X286280771Y-84411904D01*
X286342676Y-84535714D01*
X286342676Y-84659523D01*
X286280771Y-84783333D01*
X286218866Y-84845238D01*
X286095057Y-84907142D01*
X285661723Y-84907142D01*
D10*
D11*
X286404580Y-135464285D02*
X286342676Y-135526190D01*
X286156961Y-135588095D01*
X286033152Y-135588095D01*
X285847438Y-135526190D01*
X285723628Y-135402380D01*
X285661723Y-135278571D01*
X285599819Y-135030952D01*
X285599819Y-134845238D01*
X285661723Y-134597619D01*
X285723628Y-134473809D01*
X285847438Y-134350000D01*
X286033152Y-134288095D01*
X286156961Y-134288095D01*
X286342676Y-134350000D01*
X286404580Y-134411904D01*
D10*
D11*
X285661723Y-185588095D02*
X285661723Y-184288095D01*
X285971247Y-184288095D01*
X286156961Y-184350000D01*
X286280771Y-184473809D01*
X286342676Y-184597619D01*
X286404580Y-184845238D01*
X286404580Y-185030952D01*
X286342676Y-185278571D01*
X286280771Y-185402380D01*
X286156961Y-185526190D01*
X285971247Y-185588095D01*
X285661723Y-185588095D01*
D10*
D11*
X200434342Y-193785771D02*
X200434342Y-192285771D01*
X200791485Y-192285771D01*
X201005771Y-192357200D01*
X201148628Y-192500057D01*
X201220057Y-192642914D01*
X201291485Y-192928628D01*
X201291485Y-193142914D01*
X201220057Y-193428628D01*
X201148628Y-193571485D01*
X201005771Y-193714342D01*
X200791485Y-193785771D01*
X200434342Y-193785771D01*
X202577200Y-193785771D02*
X202577200Y-193000057D01*
X202505771Y-192857200D01*
X202362914Y-192785771D01*
X202077200Y-192785771D01*
X201934342Y-192857200D01*
X202577200Y-193714342D02*
X202434342Y-193785771D01*
X202077200Y-193785771D01*
X201934342Y-193714342D01*
X201862914Y-193571485D01*
X201862914Y-193428628D01*
X201934342Y-193285771D01*
X202077200Y-193214342D01*
X202434342Y-193214342D01*
X202577200Y-193142914D01*
X203077200Y-192785771D02*
X203648628Y-192785771D01*
X203291485Y-192285771D02*
X203291485Y-193571485D01*
X203362914Y-193714342D01*
X203505771Y-193785771D01*
X203648628Y-193785771D01*
X204720057Y-193714342D02*
X204577200Y-193785771D01*
X204291485Y-193785771D01*
X204148628Y-193714342D01*
X204077200Y-193571485D01*
X204077200Y-193000057D01*
X204148628Y-192857200D01*
X204291485Y-192785771D01*
X204577200Y-192785771D01*
X204720057Y-192857200D01*
X204791485Y-193000057D01*
X204791485Y-193142914D01*
X204077200Y-193285771D01*
X205434342Y-193642914D02*
X205505771Y-193714342D01*
X205434342Y-193785771D01*
X205362914Y-193714342D01*
X205434342Y-193642914D01*
X205434342Y-193785771D01*
X205434342Y-192857200D02*
X205505771Y-192928628D01*
X205434342Y-193000057D01*
X205362914Y-192928628D01*
X205434342Y-192857200D01*
X205434342Y-193000057D01*
X207220057Y-192428628D02*
X207291485Y-192357200D01*
X207434342Y-192285771D01*
X207791485Y-192285771D01*
X207934342Y-192357200D01*
X208005771Y-192428628D01*
X208077200Y-192571485D01*
X208077200Y-192714342D01*
X208005771Y-192928628D01*
X207148628Y-193785771D01*
X208077200Y-193785771D01*
X209005771Y-192285771D02*
X209148628Y-192285771D01*
X209291485Y-192357200D01*
X209362914Y-192428628D01*
X209434342Y-192571485D01*
X209505771Y-192857200D01*
X209505771Y-193214342D01*
X209434342Y-193500057D01*
X209362914Y-193642914D01*
X209291485Y-193714342D01*
X209148628Y-193785771D01*
X209005771Y-193785771D01*
X208862914Y-193714342D01*
X208791485Y-193642914D01*
X208720057Y-193500057D01*
X208648628Y-193214342D01*
X208648628Y-192857200D01*
X208720057Y-192571485D01*
X208791485Y-192428628D01*
X208862914Y-192357200D01*
X209005771Y-192285771D01*
X210077200Y-192428628D02*
X210148628Y-192357200D01*
X210291485Y-192285771D01*
X210648628Y-192285771D01*
X210791485Y-192357200D01*
X210862914Y-192428628D01*
X210934342Y-192571485D01*
X210934342Y-192714342D01*
X210862914Y-192928628D01*
X210005771Y-193785771D01*
X210934342Y-193785771D01*
X211862914Y-192285771D02*
X212005771Y-192285771D01*
X212148628Y-192357200D01*
X212220057Y-192428628D01*
X212291485Y-192571485D01*
X212362914Y-192857200D01*
X212362914Y-193214342D01*
X212291485Y-193500057D01*
X212220057Y-193642914D01*
X212148628Y-193714342D01*
X212005771Y-193785771D01*
X211862914Y-193785771D01*
X211720057Y-193714342D01*
X211648628Y-193642914D01*
X211577200Y-193500057D01*
X211505771Y-193214342D01*
X211505771Y-192857200D01*
X211577200Y-192571485D01*
X211648628Y-192428628D01*
X211720057Y-192357200D01*
X211862914Y-192285771D01*
X213005771Y-193214342D02*
X214148628Y-193214342D01*
X215148628Y-192285771D02*
X215291485Y-192285771D01*
X215434342Y-192357200D01*
X215505771Y-192428628D01*
X215577200Y-192571485D01*
X215648628Y-192857200D01*
X215648628Y-193214342D01*
X215577200Y-193500057D01*
X215505771Y-193642914D01*
X215434342Y-193714342D01*
X215291485Y-193785771D01*
X215148628Y-193785771D01*
X215005771Y-193714342D01*
X214934342Y-193642914D01*
X214862914Y-193500057D01*
X214791485Y-193214342D01*
X214791485Y-192857200D01*
X214862914Y-192571485D01*
X214934342Y-192428628D01*
X215005771Y-192357200D01*
X215148628Y-192285771D01*
X216148628Y-192285771D02*
X217148628Y-192285771D01*
X216505771Y-193785771D01*
X217720057Y-193214342D02*
X218862914Y-193214342D01*
X219862914Y-192285771D02*
X220005771Y-192285771D01*
X220148628Y-192357200D01*
X220220057Y-192428628D01*
X220291485Y-192571485D01*
X220362914Y-192857200D01*
X220362914Y-193214342D01*
X220291485Y-193500057D01*
X220220057Y-193642914D01*
X220148628Y-193714342D01*
X220005771Y-193785771D01*
X219862914Y-193785771D01*
X219720057Y-193714342D01*
X219648628Y-193642914D01*
X219577200Y-193500057D01*
X219505771Y-193214342D01*
X219505771Y-192857200D01*
X219577200Y-192571485D01*
X219648628Y-192428628D01*
X219720057Y-192357200D01*
X219862914Y-192285771D01*
X220862914Y-192285771D02*
X221862914Y-192285771D01*
X221220057Y-193785771D01*
D10*
D11*
X177002200Y-194507200D02*
X285002200Y-194507200D01*
D10*
D11*
X178434342Y-196585771D02*
X178434342Y-195085771D01*
X179291485Y-196585771D02*
X178648628Y-195728628D01*
X179291485Y-195085771D02*
X178434342Y-195942914D01*
X179934342Y-196585771D02*
X179934342Y-195585771D01*
X179934342Y-195085771D02*
X179862914Y-195157200D01*
X179934342Y-195228628D01*
X180005771Y-195157200D01*
X179934342Y-195085771D01*
X179934342Y-195228628D01*
X181505771Y-196442914D02*
X181434342Y-196514342D01*
X181220057Y-196585771D01*
X181077200Y-196585771D01*
X180862914Y-196514342D01*
X180720057Y-196371485D01*
X180648628Y-196228628D01*
X180577200Y-195942914D01*
X180577200Y-195728628D01*
X180648628Y-195442914D01*
X180720057Y-195300057D01*
X180862914Y-195157200D01*
X181077200Y-195085771D01*
X181220057Y-195085771D01*
X181434342Y-195157200D01*
X181505771Y-195228628D01*
X182791485Y-196585771D02*
X182791485Y-195800057D01*
X182720057Y-195657200D01*
X182577200Y-195585771D01*
X182291485Y-195585771D01*
X182148628Y-195657200D01*
X182791485Y-196514342D02*
X182648628Y-196585771D01*
X182291485Y-196585771D01*
X182148628Y-196514342D01*
X182077200Y-196371485D01*
X182077200Y-196228628D01*
X182148628Y-196085771D01*
X182291485Y-196014342D01*
X182648628Y-196014342D01*
X182791485Y-195942914D01*
X184148628Y-196585771D02*
X184148628Y-195085771D01*
X184148628Y-196514342D02*
X184005771Y-196585771D01*
X183720057Y-196585771D01*
X183577200Y-196514342D01*
X183505771Y-196442914D01*
X183434342Y-196300057D01*
X183434342Y-195871485D01*
X183505771Y-195728628D01*
X183577200Y-195657200D01*
X183720057Y-195585771D01*
X184005771Y-195585771D01*
X184148628Y-195657200D01*
X186005771Y-195800057D02*
X186505771Y-195800057D01*
X186720057Y-196585771D02*
X186005771Y-196585771D01*
X186005771Y-195085771D01*
X186720057Y-195085771D01*
X187362914Y-196442914D02*
X187434342Y-196514342D01*
X187362914Y-196585771D01*
X187291485Y-196514342D01*
X187362914Y-196442914D01*
X187362914Y-196585771D01*
X188077200Y-196585771D02*
X188077200Y-195085771D01*
X188434342Y-195085771D01*
X188648628Y-195157200D01*
X188791485Y-195300057D01*
X188862914Y-195442914D01*
X188934342Y-195728628D01*
X188934342Y-195942914D01*
X188862914Y-196228628D01*
X188791485Y-196371485D01*
X188648628Y-196514342D01*
X188434342Y-196585771D01*
X188077200Y-196585771D01*
X189577200Y-196442914D02*
X189648628Y-196514342D01*
X189577200Y-196585771D01*
X189505771Y-196514342D01*
X189577200Y-196442914D01*
X189577200Y-196585771D01*
X190220057Y-196157200D02*
X190934342Y-196157200D01*
X190077200Y-196585771D02*
X190577200Y-195085771D01*
X191077200Y-196585771D01*
X191577200Y-196442914D02*
X191648628Y-196514342D01*
X191577200Y-196585771D01*
X191505771Y-196514342D01*
X191577200Y-196442914D01*
X191577200Y-196585771D01*
X194577200Y-196585771D02*
X194577200Y-195085771D01*
X194720057Y-196014342D02*
X195148628Y-196585771D01*
X195148628Y-195585771D02*
X194577200Y-196157200D01*
X195791485Y-196585771D02*
X195791485Y-195585771D01*
X195791485Y-195085771D02*
X195720057Y-195157200D01*
X195791485Y-195228628D01*
X195862914Y-195157200D01*
X195791485Y-195085771D01*
X195791485Y-195228628D01*
X197148628Y-196514342D02*
X197005771Y-196585771D01*
X196720057Y-196585771D01*
X196577200Y-196514342D01*
X196505771Y-196442914D01*
X196434342Y-196300057D01*
X196434342Y-195871485D01*
X196505771Y-195728628D01*
X196577200Y-195657200D01*
X196720057Y-195585771D01*
X197005771Y-195585771D01*
X197148628Y-195657200D01*
X198434342Y-196585771D02*
X198434342Y-195800057D01*
X198362914Y-195657200D01*
X198220057Y-195585771D01*
X197934342Y-195585771D01*
X197791485Y-195657200D01*
X198434342Y-196514342D02*
X198291485Y-196585771D01*
X197934342Y-196585771D01*
X197791485Y-196514342D01*
X197720057Y-196371485D01*
X197720057Y-196228628D01*
X197791485Y-196085771D01*
X197934342Y-196014342D01*
X198291485Y-196014342D01*
X198434342Y-195942914D01*
X199791485Y-196585771D02*
X199791485Y-195085771D01*
X199791485Y-196514342D02*
X199648628Y-196585771D01*
X199362914Y-196585771D01*
X199220057Y-196514342D01*
X199148628Y-196442914D01*
X199077200Y-196300057D01*
X199077200Y-195871485D01*
X199148628Y-195728628D01*
X199220057Y-195657200D01*
X199362914Y-195585771D01*
X199648628Y-195585771D01*
X199791485Y-195657200D01*
X202077200Y-197157200D02*
X202005771Y-197085771D01*
X201862914Y-196871485D01*
X201791485Y-196728628D01*
X201720057Y-196514342D01*
X201648628Y-196157200D01*
X201648628Y-195871485D01*
X201720057Y-195514342D01*
X201791485Y-195300057D01*
X201862914Y-195157200D01*
X202005771Y-194942914D01*
X202077200Y-194871485D01*
X203362914Y-195085771D02*
X202648628Y-195085771D01*
X202577200Y-195800057D01*
X202648628Y-195728628D01*
X202791485Y-195657200D01*
X203148628Y-195657200D01*
X203291485Y-195728628D01*
X203362914Y-195800057D01*
X203434342Y-195942914D01*
X203434342Y-196300057D01*
X203362914Y-196442914D01*
X203291485Y-196514342D01*
X203148628Y-196585771D01*
X202791485Y-196585771D01*
X202648628Y-196514342D01*
X202577200Y-196442914D01*
X204077200Y-196442914D02*
X204148628Y-196514342D01*
X204077200Y-196585771D01*
X204005771Y-196514342D01*
X204077200Y-196442914D01*
X204077200Y-196585771D01*
X205577200Y-196585771D02*
X204720057Y-196585771D01*
X205148628Y-196585771D02*
X205148628Y-195085771D01*
X205005771Y-195300057D01*
X204862914Y-195442914D01*
X204720057Y-195514342D01*
X206220057Y-196442914D02*
X206291485Y-196514342D01*
X206220057Y-196585771D01*
X206148628Y-196514342D01*
X206220057Y-196442914D01*
X206220057Y-196585771D01*
X207577200Y-195585771D02*
X207577200Y-196585771D01*
X207220057Y-195014342D02*
X206862914Y-196085771D01*
X207791485Y-196085771D01*
X208220057Y-197157200D02*
X208291485Y-197085771D01*
X208434342Y-196871485D01*
X208505771Y-196728628D01*
X208577200Y-196514342D01*
X208648628Y-196157200D01*
X208648628Y-195871485D01*
X208577200Y-195514342D01*
X208505771Y-195300057D01*
X208434342Y-195157200D01*
X208291485Y-194942914D01*
X208220057Y-194871485D01*
X209362914Y-196014342D02*
X210505771Y-196014342D01*
X212005771Y-196585771D02*
X211148628Y-196585771D01*
X211577200Y-196585771D02*
X211577200Y-195085771D01*
X211434342Y-195300057D01*
X211291485Y-195442914D01*
X211148628Y-195514342D01*
D10*
D11*
X177002200Y-191507200D02*
X285002200Y-191507200D01*
D10*
D12*
X264411485Y-193785771D02*
X263911485Y-193071485D01*
X263554342Y-193785771D02*
X263554342Y-192285771D01*
X264125771Y-192285771D01*
X264268628Y-192357200D01*
X264340057Y-192428628D01*
X264411485Y-192571485D01*
X264411485Y-192785771D01*
X264340057Y-192928628D01*
X264268628Y-193000057D01*
X264125771Y-193071485D01*
X263554342Y-193071485D01*
X265625771Y-193714342D02*
X265482914Y-193785771D01*
X265197200Y-193785771D01*
X265054342Y-193714342D01*
X264982914Y-193571485D01*
X264982914Y-193000057D01*
X265054342Y-192857200D01*
X265197200Y-192785771D01*
X265482914Y-192785771D01*
X265625771Y-192857200D01*
X265697200Y-193000057D01*
X265697200Y-193142914D01*
X264982914Y-193285771D01*
X266197200Y-192785771D02*
X266554342Y-193785771D01*
X266911485Y-192785771D01*
X267482914Y-193642914D02*
X267554342Y-193714342D01*
X267482914Y-193785771D01*
X267411485Y-193714342D01*
X267482914Y-193642914D01*
X267482914Y-193785771D01*
X267482914Y-192857200D02*
X267554342Y-192928628D01*
X267482914Y-193000057D01*
X267411485Y-192928628D01*
X267482914Y-192857200D01*
X267482914Y-193000057D01*
D10*
D11*
X178362914Y-193714342D02*
X178577200Y-193785771D01*
X178934342Y-193785771D01*
X179077200Y-193714342D01*
X179148628Y-193642914D01*
X179220057Y-193500057D01*
X179220057Y-193357200D01*
X179148628Y-193214342D01*
X179077200Y-193142914D01*
X178934342Y-193071485D01*
X178648628Y-193000057D01*
X178505771Y-192928628D01*
X178434342Y-192857200D01*
X178362914Y-192714342D01*
X178362914Y-192571485D01*
X178434342Y-192428628D01*
X178505771Y-192357200D01*
X178648628Y-192285771D01*
X179005771Y-192285771D01*
X179220057Y-192357200D01*
X179862914Y-193785771D02*
X179862914Y-192785771D01*
X179862914Y-192285771D02*
X179791485Y-192357200D01*
X179862914Y-192428628D01*
X179934342Y-192357200D01*
X179862914Y-192285771D01*
X179862914Y-192428628D01*
X180434342Y-192785771D02*
X181220057Y-192785771D01*
X180434342Y-193785771D01*
X181220057Y-193785771D01*
X182362914Y-193714342D02*
X182220057Y-193785771D01*
X181934342Y-193785771D01*
X181791485Y-193714342D01*
X181720057Y-193571485D01*
X181720057Y-193000057D01*
X181791485Y-192857200D01*
X181934342Y-192785771D01*
X182220057Y-192785771D01*
X182362914Y-192857200D01*
X182434342Y-193000057D01*
X182434342Y-193142914D01*
X181720057Y-193285771D01*
X183077200Y-193642914D02*
X183148628Y-193714342D01*
X183077200Y-193785771D01*
X183005771Y-193714342D01*
X183077200Y-193642914D01*
X183077200Y-193785771D01*
X183077200Y-192857200D02*
X183148628Y-192928628D01*
X183077200Y-193000057D01*
X183005771Y-192928628D01*
X183077200Y-192857200D01*
X183077200Y-193000057D01*
X184862914Y-193357200D02*
X185577200Y-193357200D01*
X184720057Y-193785771D02*
X185220057Y-192285771D01*
X185720057Y-193785771D01*
X186862914Y-192785771D02*
X186862914Y-193785771D01*
X186505771Y-192214342D02*
X186148628Y-193285771D01*
X187077200Y-193285771D01*
D10*
D11*
X263434342Y-196585771D02*
X263434342Y-195085771D01*
X264791485Y-196585771D02*
X264791485Y-195085771D01*
X264791485Y-196514342D02*
X264648628Y-196585771D01*
X264362914Y-196585771D01*
X264220057Y-196514342D01*
X264148628Y-196442914D01*
X264077200Y-196300057D01*
X264077200Y-195871485D01*
X264148628Y-195728628D01*
X264220057Y-195657200D01*
X264362914Y-195585771D01*
X264648628Y-195585771D01*
X264791485Y-195657200D01*
X265505771Y-196442914D02*
X265577200Y-196514342D01*
X265505771Y-196585771D01*
X265434342Y-196514342D01*
X265505771Y-196442914D01*
X265505771Y-196585771D01*
X265505771Y-195657200D02*
X265577200Y-195728628D01*
X265505771Y-195800057D01*
X265434342Y-195728628D01*
X265505771Y-195657200D01*
X265505771Y-195800057D01*
X268148628Y-196585771D02*
X267291485Y-196585771D01*
X267720057Y-196585771D02*
X267720057Y-195085771D01*
X267577200Y-195300057D01*
X267434342Y-195442914D01*
X267291485Y-195514342D01*
X269862914Y-195014342D02*
X268577200Y-196942914D01*
X271148628Y-196585771D02*
X270291485Y-196585771D01*
X270720057Y-196585771D02*
X270720057Y-195085771D01*
X270577200Y-195300057D01*
X270434342Y-195442914D01*
X270291485Y-195514342D01*
D10*
D11*
X177002200Y-187507200D02*
X285002200Y-187507200D01*
D10*
D13*
X178714580Y-188211961D02*
X179857438Y-188211961D01*
X179036009Y-190211961D02*
X179286009Y-188211961D01*
X180274104Y-190211961D02*
X180440771Y-188878628D01*
X180524104Y-188211961D02*
X180416961Y-188307200D01*
X180500295Y-188402438D01*
X180607438Y-188307200D01*
X180524104Y-188211961D01*
X180500295Y-188402438D01*
X181107438Y-188878628D02*
X181869342Y-188878628D01*
X181476485Y-188211961D02*
X181262200Y-189926247D01*
X181333628Y-190116723D01*
X181512200Y-190211961D01*
X181702676Y-190211961D01*
X182655057Y-190211961D02*
X182476485Y-190116723D01*
X182405057Y-189926247D01*
X182619342Y-188211961D01*
X184190771Y-190116723D02*
X183988390Y-190211961D01*
X183607438Y-190211961D01*
X183428866Y-190116723D01*
X183357438Y-189926247D01*
X183452676Y-189164342D01*
X183571723Y-188973866D01*
X183774104Y-188878628D01*
X184155057Y-188878628D01*
X184333628Y-188973866D01*
X184405057Y-189164342D01*
X184381247Y-189354819D01*
X183405057Y-189545295D01*
X185155057Y-190021485D02*
X185238390Y-190116723D01*
X185131247Y-190211961D01*
X185047914Y-190116723D01*
X185155057Y-190021485D01*
X185131247Y-190211961D01*
X185286009Y-188973866D02*
X185369342Y-189069104D01*
X185262200Y-189164342D01*
X185178866Y-189069104D01*
X185286009Y-188973866D01*
X185262200Y-189164342D01*
X188750295Y-190211961D02*
X188202676Y-189259580D01*
X187607438Y-190211961D02*
X187857438Y-188211961D01*
X188619342Y-188211961D01*
X188797914Y-188307200D01*
X188881247Y-188402438D01*
X188952676Y-188592914D01*
X188916961Y-188878628D01*
X188797914Y-189069104D01*
X188690771Y-189164342D01*
X188488390Y-189259580D01*
X187726485Y-189259580D01*
X189738390Y-189164342D02*
X190405057Y-189164342D01*
X190559819Y-190211961D02*
X189607438Y-190211961D01*
X189857438Y-188211961D01*
X190809819Y-188211961D01*
X192369342Y-190211961D02*
X191416961Y-190211961D01*
X191666961Y-188211961D01*
X193012200Y-189640533D02*
X193964580Y-189640533D01*
X192750295Y-190211961D02*
X193666961Y-188211961D01*
X194083628Y-190211961D01*
X195250295Y-189259580D02*
X195131247Y-190211961D01*
X194714580Y-188211961D02*
X195250295Y-189259580D01*
X196047914Y-188211961D01*
D10*
D11*
X178934342Y-185600057D02*
X178434342Y-185600057D01*
X178434342Y-186385771D02*
X178434342Y-184885771D01*
X179148628Y-184885771D01*
X179720057Y-186385771D02*
X179720057Y-185385771D01*
X179720057Y-184885771D02*
X179648628Y-184957200D01*
X179720057Y-185028628D01*
X179791485Y-184957200D01*
X179720057Y-184885771D01*
X179720057Y-185028628D01*
X180648628Y-186385771D02*
X180505771Y-186314342D01*
X180434342Y-186171485D01*
X180434342Y-184885771D01*
X181791485Y-186314342D02*
X181648628Y-186385771D01*
X181362914Y-186385771D01*
X181220057Y-186314342D01*
X181148628Y-186171485D01*
X181148628Y-185600057D01*
X181220057Y-185457200D01*
X181362914Y-185385771D01*
X181648628Y-185385771D01*
X181791485Y-185457200D01*
X181862914Y-185600057D01*
X181862914Y-185742914D01*
X181148628Y-185885771D01*
X182505771Y-186242914D02*
X182577200Y-186314342D01*
X182505771Y-186385771D01*
X182434342Y-186314342D01*
X182505771Y-186242914D01*
X182505771Y-186385771D01*
X182505771Y-185457200D02*
X182577200Y-185528628D01*
X182505771Y-185600057D01*
X182434342Y-185528628D01*
X182505771Y-185457200D01*
X182505771Y-185600057D01*
X184577200Y-186385771D02*
X184434342Y-186314342D01*
X184362914Y-186242914D01*
X184291485Y-186100057D01*
X184291485Y-185671485D01*
X184362914Y-185528628D01*
X184434342Y-185457200D01*
X184577200Y-185385771D01*
X184791485Y-185385771D01*
X184934342Y-185457200D01*
X185005771Y-185528628D01*
X185077200Y-185671485D01*
X185077200Y-186100057D01*
X185005771Y-186242914D01*
X184934342Y-186314342D01*
X184791485Y-186385771D01*
X184577200Y-186385771D01*
X186362914Y-186385771D02*
X186362914Y-184885771D01*
X186362914Y-186314342D02*
X186220057Y-186385771D01*
X185934342Y-186385771D01*
X185791485Y-186314342D01*
X185720057Y-186242914D01*
X185648628Y-186100057D01*
X185648628Y-185671485D01*
X185720057Y-185528628D01*
X185791485Y-185457200D01*
X185934342Y-185385771D01*
X186220057Y-185385771D01*
X186362914Y-185457200D01*
X187077200Y-186385771D02*
X187077200Y-185385771D01*
X187077200Y-184885771D02*
X187005771Y-184957200D01*
X187077200Y-185028628D01*
X187148628Y-184957200D01*
X187077200Y-184885771D01*
X187077200Y-185028628D01*
X187791485Y-185385771D02*
X187791485Y-186385771D01*
X187791485Y-185528628D02*
X187862914Y-185457200D01*
X188005771Y-185385771D01*
X188220057Y-185385771D01*
X188362914Y-185457200D01*
X188434342Y-185600057D01*
X188434342Y-186385771D01*
X188791485Y-186528628D02*
X189934342Y-186528628D01*
X190934342Y-186385771D02*
X190934342Y-184885771D01*
X190934342Y-186314342D02*
X190791485Y-186385771D01*
X190505771Y-186385771D01*
X190362914Y-186314342D01*
X190291485Y-186242914D01*
X190220057Y-186100057D01*
X190220057Y-185671485D01*
X190291485Y-185528628D01*
X190362914Y-185457200D01*
X190505771Y-185385771D01*
X190791485Y-185385771D01*
X190934342Y-185457200D01*
X191648628Y-186242914D02*
X191720057Y-186314342D01*
X191648628Y-186385771D01*
X191577200Y-186314342D01*
X191648628Y-186242914D01*
X191648628Y-186385771D01*
X192362914Y-186385771D02*
X192362914Y-184885771D01*
X192505771Y-185814342D02*
X192934342Y-186385771D01*
X192934342Y-185385771D02*
X192362914Y-185957200D01*
X193577200Y-186385771D02*
X193577200Y-185385771D01*
X193577200Y-184885771D02*
X193505771Y-184957200D01*
X193577200Y-185028628D01*
X193648628Y-184957200D01*
X193577200Y-184885771D01*
X193577200Y-185028628D01*
X194934342Y-186314342D02*
X194791485Y-186385771D01*
X194505771Y-186385771D01*
X194362914Y-186314342D01*
X194291485Y-186242914D01*
X194220057Y-186100057D01*
X194220057Y-185671485D01*
X194291485Y-185528628D01*
X194362914Y-185457200D01*
X194505771Y-185385771D01*
X194791485Y-185385771D01*
X194934342Y-185457200D01*
X196220057Y-186385771D02*
X196220057Y-185600057D01*
X196148628Y-185457200D01*
X196005771Y-185385771D01*
X195720057Y-185385771D01*
X195577200Y-185457200D01*
X196220057Y-186314342D02*
X196077200Y-186385771D01*
X195720057Y-186385771D01*
X195577200Y-186314342D01*
X195505771Y-186171485D01*
X195505771Y-186028628D01*
X195577200Y-185885771D01*
X195720057Y-185814342D01*
X196077200Y-185814342D01*
X196220057Y-185742914D01*
X197577200Y-186385771D02*
X197577200Y-184885771D01*
X197577200Y-186314342D02*
X197434342Y-186385771D01*
X197148628Y-186385771D01*
X197005771Y-186314342D01*
X196934342Y-186242914D01*
X196862914Y-186100057D01*
X196862914Y-185671485D01*
X196934342Y-185528628D01*
X197005771Y-185457200D01*
X197148628Y-185385771D01*
X197434342Y-185385771D01*
X197577200Y-185457200D01*
X197934342Y-186528628D02*
X199077200Y-186528628D01*
X199434342Y-185385771D02*
X199434342Y-186885771D01*
X199434342Y-185457200D02*
X199577200Y-185385771D01*
X199862914Y-185385771D01*
X200005771Y-185457200D01*
X200077200Y-185528628D01*
X200148628Y-185671485D01*
X200148628Y-186100057D01*
X200077200Y-186242914D01*
X200005771Y-186314342D01*
X199862914Y-186385771D01*
X199577200Y-186385771D01*
X199434342Y-186314342D01*
X201434342Y-186314342D02*
X201291485Y-186385771D01*
X201005771Y-186385771D01*
X200862914Y-186314342D01*
X200791485Y-186242914D01*
X200720057Y-186100057D01*
X200720057Y-185671485D01*
X200791485Y-185528628D01*
X200862914Y-185457200D01*
X201005771Y-185385771D01*
X201291485Y-185385771D01*
X201434342Y-185457200D01*
X202077200Y-186385771D02*
X202077200Y-184885771D01*
X202077200Y-185457200D02*
X202220057Y-185385771D01*
X202505771Y-185385771D01*
X202648628Y-185457200D01*
X202720057Y-185528628D01*
X202791485Y-185671485D01*
X202791485Y-186100057D01*
X202720057Y-186242914D01*
X202648628Y-186314342D01*
X202505771Y-186385771D01*
X202220057Y-186385771D01*
X202077200Y-186314342D01*
D10*
D11*
X177002200Y-181507200D02*
X285002200Y-181507200D01*
D10*
D11*
X178362914Y-183614342D02*
X178577200Y-183685771D01*
X178934342Y-183685771D01*
X179077200Y-183614342D01*
X179148628Y-183542914D01*
X179220057Y-183400057D01*
X179220057Y-183257200D01*
X179148628Y-183114342D01*
X179077200Y-183042914D01*
X178934342Y-182971485D01*
X178648628Y-182900057D01*
X178505771Y-182828628D01*
X178434342Y-182757200D01*
X178362914Y-182614342D01*
X178362914Y-182471485D01*
X178434342Y-182328628D01*
X178505771Y-182257200D01*
X178648628Y-182185771D01*
X179005771Y-182185771D01*
X179220057Y-182257200D01*
X179862914Y-183685771D02*
X179862914Y-182185771D01*
X180505771Y-183685771D02*
X180505771Y-182900057D01*
X180434342Y-182757200D01*
X180291485Y-182685771D01*
X180077200Y-182685771D01*
X179934342Y-182757200D01*
X179862914Y-182828628D01*
X181791485Y-183614342D02*
X181648628Y-183685771D01*
X181362914Y-183685771D01*
X181220057Y-183614342D01*
X181148628Y-183471485D01*
X181148628Y-182900057D01*
X181220057Y-182757200D01*
X181362914Y-182685771D01*
X181648628Y-182685771D01*
X181791485Y-182757200D01*
X181862914Y-182900057D01*
X181862914Y-183042914D01*
X181148628Y-183185771D01*
X183077200Y-183614342D02*
X182934342Y-183685771D01*
X182648628Y-183685771D01*
X182505771Y-183614342D01*
X182434342Y-183471485D01*
X182434342Y-182900057D01*
X182505771Y-182757200D01*
X182648628Y-182685771D01*
X182934342Y-182685771D01*
X183077200Y-182757200D01*
X183148628Y-182900057D01*
X183148628Y-183042914D01*
X182434342Y-183185771D01*
X183577200Y-182685771D02*
X184148628Y-182685771D01*
X183791485Y-182185771D02*
X183791485Y-183471485D01*
X183862914Y-183614342D01*
X184005771Y-183685771D01*
X184148628Y-183685771D01*
X184648628Y-183542914D02*
X184720057Y-183614342D01*
X184648628Y-183685771D01*
X184577200Y-183614342D01*
X184648628Y-183542914D01*
X184648628Y-183685771D01*
X184648628Y-182757200D02*
X184720057Y-182828628D01*
X184648628Y-182900057D01*
X184577200Y-182828628D01*
X184648628Y-182757200D01*
X184648628Y-182900057D01*
D10*
D12*
X178411485Y-179185771D02*
X178768628Y-180685771D01*
X179054342Y-179614342D01*
X179340057Y-180685771D01*
X179697200Y-179185771D01*
X180911485Y-179685771D02*
X180911485Y-180685771D01*
X180554342Y-179114342D02*
X180197200Y-180185771D01*
X181125771Y-180185771D01*
X182554342Y-180542914D02*
X182482914Y-180614342D01*
X182268628Y-180685771D01*
X182125771Y-180685771D01*
X181911485Y-180614342D01*
X181768628Y-180471485D01*
X181697200Y-180328628D01*
X181625771Y-180042914D01*
X181625771Y-179828628D01*
X181697200Y-179542914D01*
X181768628Y-179400057D01*
X181911485Y-179257200D01*
X182125771Y-179185771D01*
X182268628Y-179185771D01*
X182482914Y-179257200D01*
X182554342Y-179328628D01*
X183482914Y-179185771D02*
X183768628Y-179185771D01*
X183911485Y-179257200D01*
X184054342Y-179400057D01*
X184125771Y-179685771D01*
X184125771Y-180185771D01*
X184054342Y-180471485D01*
X183911485Y-180614342D01*
X183768628Y-180685771D01*
X183482914Y-180685771D01*
X183340057Y-180614342D01*
X183197200Y-180471485D01*
X183125771Y-180185771D01*
X183125771Y-179685771D01*
X183197200Y-179400057D01*
X183340057Y-179257200D01*
X183482914Y-179185771D01*
X184768628Y-180685771D02*
X184768628Y-179185771D01*
X185268628Y-180257200D01*
X185768628Y-179185771D01*
X185768628Y-180685771D01*
X188482914Y-180542914D02*
X188411485Y-180614342D01*
X188197200Y-180685771D01*
X188054342Y-180685771D01*
X187840057Y-180614342D01*
X187697200Y-180471485D01*
X187625771Y-180328628D01*
X187554342Y-180042914D01*
X187554342Y-179828628D01*
X187625771Y-179542914D01*
X187697200Y-179400057D01*
X187840057Y-179257200D01*
X188054342Y-179185771D01*
X188197200Y-179185771D01*
X188411485Y-179257200D01*
X188482914Y-179328628D01*
X189411485Y-179185771D02*
X189697200Y-179185771D01*
X189840057Y-179257200D01*
X189982914Y-179400057D01*
X190054342Y-179685771D01*
X190054342Y-180185771D01*
X189982914Y-180471485D01*
X189840057Y-180614342D01*
X189697200Y-180685771D01*
X189411485Y-180685771D01*
X189268628Y-180614342D01*
X189125771Y-180471485D01*
X189054342Y-180185771D01*
X189054342Y-179685771D01*
X189125771Y-179400057D01*
X189268628Y-179257200D01*
X189411485Y-179185771D01*
X190697200Y-180685771D02*
X190697200Y-179185771D01*
X191554342Y-180685771D01*
X191554342Y-179185771D01*
X192768628Y-179900057D02*
X192268628Y-179900057D01*
X192268628Y-180685771D02*
X192268628Y-179185771D01*
X192982914Y-179185771D01*
X193554342Y-180685771D02*
X193554342Y-179185771D01*
X194268628Y-180685771D02*
X194268628Y-179185771D01*
X194625771Y-179185771D01*
X194840057Y-179257200D01*
X194982914Y-179400057D01*
X195054342Y-179542914D01*
X195125771Y-179828628D01*
X195125771Y-180042914D01*
X195054342Y-180328628D01*
X194982914Y-180471485D01*
X194840057Y-180614342D01*
X194625771Y-180685771D01*
X194268628Y-180685771D01*
X195768628Y-179900057D02*
X196268628Y-179900057D01*
X196482914Y-180685771D02*
X195768628Y-180685771D01*
X195768628Y-179185771D01*
X196482914Y-179185771D01*
X197125771Y-180685771D02*
X197125771Y-179185771D01*
X197982914Y-180685771D01*
X197982914Y-179185771D01*
X199554342Y-180542914D02*
X199482914Y-180614342D01*
X199268628Y-180685771D01*
X199125771Y-180685771D01*
X198911485Y-180614342D01*
X198768628Y-180471485D01*
X198697200Y-180328628D01*
X198625771Y-180042914D01*
X198625771Y-179828628D01*
X198697200Y-179542914D01*
X198768628Y-179400057D01*
X198911485Y-179257200D01*
X199125771Y-179185771D01*
X199268628Y-179185771D01*
X199482914Y-179257200D01*
X199554342Y-179328628D01*
X200197200Y-180685771D02*
X200197200Y-179185771D01*
X200840057Y-180257200D02*
X201554342Y-180257200D01*
X200697200Y-180685771D02*
X201197200Y-179185771D01*
X201697200Y-180685771D01*
X202911485Y-180685771D02*
X202197200Y-180685771D01*
X202197200Y-179185771D01*
D10*
D11*
X197002200Y-191507200D02*
X197002200Y-194507200D01*
D10*
D11*
X261002200Y-191507200D02*
X261002200Y-198007200D01*
D10*
G36*
X144418604Y-102228347D02*
G01*
X144455144Y-102239432D01*
X144488821Y-102257433D01*
X144518341Y-102281659D01*
X144542567Y-102311179D01*
X144560568Y-102344856D01*
X144571653Y-102381396D01*
X144576000Y-102425538D01*
X144576000Y-104774462D01*
X144571653Y-104818604D01*
X144560568Y-104855144D01*
X144542567Y-104888821D01*
X144518341Y-104918341D01*
X144488821Y-104942567D01*
X144455144Y-104960568D01*
X144418604Y-104971653D01*
X144374462Y-104976000D01*
X143425538Y-104976000D01*
X143381396Y-104971653D01*
X143344856Y-104960568D01*
X143311179Y-104942567D01*
X143281659Y-104918341D01*
X143257433Y-104888821D01*
X143239432Y-104855144D01*
X143228347Y-104818604D01*
X143224000Y-104774462D01*
X143224000Y-102425538D01*
X143228347Y-102381396D01*
X143239432Y-102344856D01*
X143257433Y-102311179D01*
X143281659Y-102281659D01*
X143311179Y-102257433D01*
X143344856Y-102239432D01*
X143381396Y-102228347D01*
X143425538Y-102224000D01*
X144374462Y-102224000D01*
X144418604Y-102228347D01*
X144418604Y-102228347D01*
G37*
G36*
X141618604Y-102228347D02*
G01*
X141655144Y-102239432D01*
X141688821Y-102257433D01*
X141718341Y-102281659D01*
X141742567Y-102311179D01*
X141760568Y-102344856D01*
X141771653Y-102381396D01*
X141776000Y-102425538D01*
X141776000Y-104774462D01*
X141771653Y-104818604D01*
X141760568Y-104855144D01*
X141742567Y-104888821D01*
X141718341Y-104918341D01*
X141688821Y-104942567D01*
X141655144Y-104960568D01*
X141618604Y-104971653D01*
X141574462Y-104976000D01*
X140625538Y-104976000D01*
X140581396Y-104971653D01*
X140544856Y-104960568D01*
X140511179Y-104942567D01*
X140481659Y-104918341D01*
X140457433Y-104888821D01*
X140439432Y-104855144D01*
X140428347Y-104818604D01*
X140424000Y-104774462D01*
X140424000Y-102425538D01*
X140428347Y-102381396D01*
X140439432Y-102344856D01*
X140457433Y-102311179D01*
X140481659Y-102281659D01*
X140511179Y-102257433D01*
X140544856Y-102239432D01*
X140581396Y-102228347D01*
X140625538Y-102224000D01*
X141574462Y-102224000D01*
X141618604Y-102228347D01*
X141618604Y-102228347D01*
G37*
G36*
X134118604Y-103588347D02*
G01*
X134155144Y-103599432D01*
X134188821Y-103617433D01*
X134218341Y-103641659D01*
X134242567Y-103671179D01*
X134260568Y-103704856D01*
X134271653Y-103741396D01*
X134276000Y-103785538D01*
X134276000Y-104734462D01*
X134271653Y-104778604D01*
X134260568Y-104815144D01*
X134242567Y-104848821D01*
X134218341Y-104878341D01*
X134188821Y-104902567D01*
X134155144Y-104920568D01*
X134118604Y-104931653D01*
X134074462Y-104936000D01*
X131725538Y-104936000D01*
X131681396Y-104931653D01*
X131644856Y-104920568D01*
X131611179Y-104902567D01*
X131581659Y-104878341D01*
X131557433Y-104848821D01*
X131539432Y-104815144D01*
X131528347Y-104778604D01*
X131524000Y-104734462D01*
X131524000Y-103785538D01*
X131528347Y-103741396D01*
X131539432Y-103704856D01*
X131557433Y-103671179D01*
X131581659Y-103641659D01*
X131611179Y-103617433D01*
X131644856Y-103599432D01*
X131681396Y-103588347D01*
X131725538Y-103584000D01*
X134074462Y-103584000D01*
X134118604Y-103588347D01*
X134118604Y-103588347D01*
G37*
G36*
X149594468Y-102993565D02*
G01*
X149633138Y-103005296D01*
X149668777Y-103024346D01*
X149700017Y-103049983D01*
X149725654Y-103081223D01*
X149744704Y-103116862D01*
X149756435Y-103155532D01*
X149761000Y-103201888D01*
X149761000Y-103853112D01*
X149756435Y-103899468D01*
X149744704Y-103938138D01*
X149725654Y-103973777D01*
X149700017Y-104005017D01*
X149668777Y-104030654D01*
X149633138Y-104049704D01*
X149594468Y-104061435D01*
X149548112Y-104066000D01*
X148471888Y-104066000D01*
X148425532Y-104061435D01*
X148386862Y-104049704D01*
X148351223Y-104030654D01*
X148319983Y-104005017D01*
X148294346Y-103973777D01*
X148275296Y-103938138D01*
X148263565Y-103899468D01*
X148259000Y-103853112D01*
X148259000Y-103201888D01*
X148263565Y-103155532D01*
X148275296Y-103116862D01*
X148294346Y-103081223D01*
X148319983Y-103049983D01*
X148351223Y-103024346D01*
X148386862Y-103005296D01*
X148425532Y-102993565D01*
X148471888Y-102989000D01*
X149548112Y-102989000D01*
X149594468Y-102993565D01*
X149594468Y-102993565D01*
G37*
G36*
X162724468Y-102613565D02*
G01*
X162763138Y-102625296D01*
X162798777Y-102644346D01*
X162830017Y-102669983D01*
X162855654Y-102701223D01*
X162874704Y-102736862D01*
X162886435Y-102775532D01*
X162891000Y-102821888D01*
X162891000Y-103473112D01*
X162886435Y-103519468D01*
X162874704Y-103558138D01*
X162855654Y-103593777D01*
X162830017Y-103625017D01*
X162798777Y-103650654D01*
X162763138Y-103669704D01*
X162724468Y-103681435D01*
X162678112Y-103686000D01*
X161601888Y-103686000D01*
X161555532Y-103681435D01*
X161516862Y-103669704D01*
X161481223Y-103650654D01*
X161449983Y-103625017D01*
X161424346Y-103593777D01*
X161405296Y-103558138D01*
X161393565Y-103519468D01*
X161389000Y-103473112D01*
X161389000Y-102821888D01*
X161393565Y-102775532D01*
X161405296Y-102736862D01*
X161424346Y-102701223D01*
X161449983Y-102669983D01*
X161481223Y-102644346D01*
X161516862Y-102625296D01*
X161555532Y-102613565D01*
X161601888Y-102609000D01*
X162678112Y-102609000D01*
X162724468Y-102613565D01*
X162724468Y-102613565D01*
G37*
G36*
X160441000Y-103651000D02*
G01*
X159439000Y-103651000D01*
X159439000Y-102749000D01*
X160441000Y-102749000D01*
X160441000Y-103651000D01*
X160441000Y-103651000D01*
G37*
G36*
X158441000Y-102701000D02*
G01*
X157439000Y-102701000D01*
X157439000Y-101799000D01*
X158441000Y-101799000D01*
X158441000Y-102701000D01*
X158441000Y-102701000D01*
G37*
G36*
X149594468Y-101118565D02*
G01*
X149633138Y-101130296D01*
X149668777Y-101149346D01*
X149700017Y-101174983D01*
X149725654Y-101206223D01*
X149744704Y-101241862D01*
X149756435Y-101280532D01*
X149761000Y-101326888D01*
X149761000Y-101978112D01*
X149756435Y-102024468D01*
X149744704Y-102063138D01*
X149725654Y-102098777D01*
X149700017Y-102130017D01*
X149668777Y-102155654D01*
X149633138Y-102174704D01*
X149594468Y-102186435D01*
X149548112Y-102191000D01*
X148471888Y-102191000D01*
X148425532Y-102186435D01*
X148386862Y-102174704D01*
X148351223Y-102155654D01*
X148319983Y-102130017D01*
X148294346Y-102098777D01*
X148275296Y-102063138D01*
X148263565Y-102024468D01*
X148259000Y-101978112D01*
X148259000Y-101326888D01*
X148263565Y-101280532D01*
X148275296Y-101241862D01*
X148294346Y-101206223D01*
X148319983Y-101174983D01*
X148351223Y-101149346D01*
X148386862Y-101130296D01*
X148425532Y-101118565D01*
X148471888Y-101114000D01*
X149548112Y-101114000D01*
X149594468Y-101118565D01*
X149594468Y-101118565D01*
G37*
G36*
X134118604Y-100788347D02*
G01*
X134155144Y-100799432D01*
X134188821Y-100817433D01*
X134218341Y-100841659D01*
X134242567Y-100871179D01*
X134260568Y-100904856D01*
X134271653Y-100941396D01*
X134276000Y-100985538D01*
X134276000Y-101934462D01*
X134271653Y-101978604D01*
X134260568Y-102015144D01*
X134242567Y-102048821D01*
X134218341Y-102078341D01*
X134188821Y-102102567D01*
X134155144Y-102120568D01*
X134118604Y-102131653D01*
X134074462Y-102136000D01*
X131725538Y-102136000D01*
X131681396Y-102131653D01*
X131644856Y-102120568D01*
X131611179Y-102102567D01*
X131581659Y-102078341D01*
X131557433Y-102048821D01*
X131539432Y-102015144D01*
X131528347Y-101978604D01*
X131524000Y-101934462D01*
X131524000Y-100985538D01*
X131528347Y-100941396D01*
X131539432Y-100904856D01*
X131557433Y-100871179D01*
X131581659Y-100841659D01*
X131611179Y-100817433D01*
X131644856Y-100799432D01*
X131681396Y-100788347D01*
X131725538Y-100784000D01*
X134074462Y-100784000D01*
X134118604Y-100788347D01*
X134118604Y-100788347D01*
G37*
G36*
X162724468Y-100738565D02*
G01*
X162763138Y-100750296D01*
X162798777Y-100769346D01*
X162830017Y-100794983D01*
X162855654Y-100826223D01*
X162874704Y-100861862D01*
X162886435Y-100900532D01*
X162891000Y-100946888D01*
X162891000Y-101598112D01*
X162886435Y-101644468D01*
X162874704Y-101683138D01*
X162855654Y-101718777D01*
X162830017Y-101750017D01*
X162798777Y-101775654D01*
X162763138Y-101794704D01*
X162724468Y-101806435D01*
X162678112Y-101811000D01*
X161601888Y-101811000D01*
X161555532Y-101806435D01*
X161516862Y-101794704D01*
X161481223Y-101775654D01*
X161449983Y-101750017D01*
X161424346Y-101718777D01*
X161405296Y-101683138D01*
X161393565Y-101644468D01*
X161389000Y-101598112D01*
X161389000Y-100946888D01*
X161393565Y-100900532D01*
X161405296Y-100861862D01*
X161424346Y-100826223D01*
X161449983Y-100794983D01*
X161481223Y-100769346D01*
X161516862Y-100750296D01*
X161555532Y-100738565D01*
X161601888Y-100734000D01*
X162678112Y-100734000D01*
X162724468Y-100738565D01*
X162724468Y-100738565D01*
G37*
G36*
X160441000Y-101751000D02*
G01*
X159439000Y-101751000D01*
X159439000Y-100849000D01*
X160441000Y-100849000D01*
X160441000Y-101751000D01*
X160441000Y-101751000D01*
G37*
G36*
X154321000Y-101741000D02*
G01*
X153419000Y-101741000D01*
X153419000Y-100739000D01*
X154321000Y-100739000D01*
X154321000Y-101741000D01*
X154321000Y-101741000D01*
G37*
G36*
X156221000Y-101741000D02*
G01*
X155319000Y-101741000D01*
X155319000Y-100739000D01*
X156221000Y-100739000D01*
X156221000Y-101741000D01*
X156221000Y-101741000D01*
G37*
G36*
X152374468Y-99443565D02*
G01*
X152413138Y-99455296D01*
X152448777Y-99474346D01*
X152480017Y-99499983D01*
X152505654Y-99531223D01*
X152524704Y-99566862D01*
X152536435Y-99605532D01*
X152541000Y-99651888D01*
X152541000Y-100303112D01*
X152536435Y-100349468D01*
X152524704Y-100388138D01*
X152505654Y-100423777D01*
X152480017Y-100455017D01*
X152448777Y-100480654D01*
X152413138Y-100499704D01*
X152374468Y-100511435D01*
X152328112Y-100516000D01*
X151251888Y-100516000D01*
X151205532Y-100511435D01*
X151166862Y-100499704D01*
X151131223Y-100480654D01*
X151099983Y-100455017D01*
X151074346Y-100423777D01*
X151055296Y-100388138D01*
X151043565Y-100349468D01*
X151039000Y-100303112D01*
X151039000Y-99651888D01*
X151043565Y-99605532D01*
X151055296Y-99566862D01*
X151074346Y-99531223D01*
X151099983Y-99499983D01*
X151131223Y-99474346D01*
X151166862Y-99455296D01*
X151205532Y-99443565D01*
X151251888Y-99439000D01*
X152328112Y-99439000D01*
X152374468Y-99443565D01*
X152374468Y-99443565D01*
G37*
G36*
X149574468Y-99423565D02*
G01*
X149613138Y-99435296D01*
X149648777Y-99454346D01*
X149680017Y-99479983D01*
X149705654Y-99511223D01*
X149724704Y-99546862D01*
X149736435Y-99585532D01*
X149741000Y-99631888D01*
X149741000Y-100283112D01*
X149736435Y-100329468D01*
X149724704Y-100368138D01*
X149705654Y-100403777D01*
X149680017Y-100435017D01*
X149648777Y-100460654D01*
X149613138Y-100479704D01*
X149574468Y-100491435D01*
X149528112Y-100496000D01*
X148451888Y-100496000D01*
X148405532Y-100491435D01*
X148366862Y-100479704D01*
X148331223Y-100460654D01*
X148299983Y-100435017D01*
X148274346Y-100403777D01*
X148255296Y-100368138D01*
X148243565Y-100329468D01*
X148239000Y-100283112D01*
X148239000Y-99631888D01*
X148243565Y-99585532D01*
X148255296Y-99546862D01*
X148274346Y-99511223D01*
X148299983Y-99479983D01*
X148331223Y-99454346D01*
X148366862Y-99435296D01*
X148405532Y-99423565D01*
X148451888Y-99419000D01*
X149528112Y-99419000D01*
X149574468Y-99423565D01*
X149574468Y-99423565D01*
G37*
G36*
X143998254Y-96117818D02*
G01*
X144371511Y-96272426D01*
X144371513Y-96272427D01*
X144707436Y-96496884D01*
X144993116Y-96782564D01*
X145085328Y-96920568D01*
X145217574Y-97118489D01*
X145372182Y-97491746D01*
X145451000Y-97887993D01*
X145451000Y-98292007D01*
X145372182Y-98688254D01*
X145351162Y-98739000D01*
X145217573Y-99061513D01*
X144993116Y-99397436D01*
X144707436Y-99683116D01*
X144371513Y-99907573D01*
X144371512Y-99907574D01*
X144371511Y-99907574D01*
X143998254Y-100062182D01*
X143602007Y-100141000D01*
X143197993Y-100141000D01*
X142801746Y-100062182D01*
X142428489Y-99907574D01*
X142428488Y-99907574D01*
X142428487Y-99907573D01*
X142092564Y-99683116D01*
X141806884Y-99397436D01*
X141582427Y-99061513D01*
X141448838Y-98739000D01*
X141427818Y-98688254D01*
X141349000Y-98292007D01*
X141349000Y-97887993D01*
X141427818Y-97491746D01*
X141582426Y-97118489D01*
X141714673Y-96920568D01*
X141806884Y-96782564D01*
X142092564Y-96496884D01*
X142428487Y-96272427D01*
X142428489Y-96272426D01*
X142801746Y-96117818D01*
X143197993Y-96039000D01*
X143602007Y-96039000D01*
X143998254Y-96117818D01*
X143998254Y-96117818D01*
G37*
G36*
X155271000Y-99741000D02*
G01*
X154369000Y-99741000D01*
X154369000Y-98739000D01*
X155271000Y-98739000D01*
X155271000Y-99741000D01*
X155271000Y-99741000D01*
G37*
G36*
X137878604Y-98388347D02*
G01*
X137915144Y-98399432D01*
X137948821Y-98417433D01*
X137978341Y-98441659D01*
X138002567Y-98471179D01*
X138020568Y-98504856D01*
X138031653Y-98541396D01*
X138036000Y-98585538D01*
X138036000Y-99534462D01*
X138031653Y-99578604D01*
X138020568Y-99615144D01*
X138002567Y-99648821D01*
X137978341Y-99678341D01*
X137948821Y-99702567D01*
X137915144Y-99720568D01*
X137878604Y-99731653D01*
X137834462Y-99736000D01*
X135485538Y-99736000D01*
X135441396Y-99731653D01*
X135404856Y-99720568D01*
X135371179Y-99702567D01*
X135341659Y-99678341D01*
X135317433Y-99648821D01*
X135299432Y-99615144D01*
X135288347Y-99578604D01*
X135284000Y-99534462D01*
X135284000Y-98585538D01*
X135288347Y-98541396D01*
X135299432Y-98504856D01*
X135317433Y-98471179D01*
X135341659Y-98441659D01*
X135371179Y-98417433D01*
X135404856Y-98399432D01*
X135441396Y-98388347D01*
X135485538Y-98384000D01*
X137834462Y-98384000D01*
X137878604Y-98388347D01*
X137878604Y-98388347D01*
G37*
G36*
X152374468Y-97568565D02*
G01*
X152413138Y-97580296D01*
X152448777Y-97599346D01*
X152480017Y-97624983D01*
X152505654Y-97656223D01*
X152524704Y-97691862D01*
X152536435Y-97730532D01*
X152541000Y-97776888D01*
X152541000Y-98428112D01*
X152536435Y-98474468D01*
X152524704Y-98513138D01*
X152505654Y-98548777D01*
X152480017Y-98580017D01*
X152448777Y-98605654D01*
X152413138Y-98624704D01*
X152374468Y-98636435D01*
X152328112Y-98641000D01*
X151251888Y-98641000D01*
X151205532Y-98636435D01*
X151166862Y-98624704D01*
X151131223Y-98605654D01*
X151099983Y-98580017D01*
X151074346Y-98548777D01*
X151055296Y-98513138D01*
X151043565Y-98474468D01*
X151039000Y-98428112D01*
X151039000Y-97776888D01*
X151043565Y-97730532D01*
X151055296Y-97691862D01*
X151074346Y-97656223D01*
X151099983Y-97624983D01*
X151131223Y-97599346D01*
X151166862Y-97580296D01*
X151205532Y-97568565D01*
X151251888Y-97564000D01*
X152328112Y-97564000D01*
X152374468Y-97568565D01*
X152374468Y-97568565D01*
G37*
G36*
X149574468Y-97548565D02*
G01*
X149613138Y-97560296D01*
X149648777Y-97579346D01*
X149680017Y-97604983D01*
X149705654Y-97636223D01*
X149724704Y-97671862D01*
X149736435Y-97710532D01*
X149741000Y-97756888D01*
X149741000Y-98408112D01*
X149736435Y-98454468D01*
X149724704Y-98493138D01*
X149705654Y-98528777D01*
X149680017Y-98560017D01*
X149648777Y-98585654D01*
X149613138Y-98604704D01*
X149574468Y-98616435D01*
X149528112Y-98621000D01*
X148451888Y-98621000D01*
X148405532Y-98616435D01*
X148366862Y-98604704D01*
X148331223Y-98585654D01*
X148299983Y-98560017D01*
X148274346Y-98528777D01*
X148255296Y-98493138D01*
X148243565Y-98454468D01*
X148239000Y-98408112D01*
X148239000Y-97756888D01*
X148243565Y-97710532D01*
X148255296Y-97671862D01*
X148274346Y-97636223D01*
X148299983Y-97604983D01*
X148331223Y-97579346D01*
X148366862Y-97560296D01*
X148405532Y-97548565D01*
X148451888Y-97544000D01*
X149528112Y-97544000D01*
X149574468Y-97548565D01*
X149574468Y-97548565D01*
G37*
G36*
X159138254Y-93987818D02*
G01*
X159511511Y-94142426D01*
X159511513Y-94142427D01*
X159847436Y-94366884D01*
X160133116Y-94652564D01*
X160265827Y-94851179D01*
X160357574Y-94988489D01*
X160512182Y-95361746D01*
X160591000Y-95757993D01*
X160591000Y-96162007D01*
X160512182Y-96558254D01*
X160369563Y-96902567D01*
X160357573Y-96931513D01*
X160133116Y-97267436D01*
X159847436Y-97553116D01*
X159511513Y-97777573D01*
X159511512Y-97777574D01*
X159511511Y-97777574D01*
X159138254Y-97932182D01*
X158742007Y-98011000D01*
X158337993Y-98011000D01*
X157941746Y-97932182D01*
X157568489Y-97777574D01*
X157568488Y-97777574D01*
X157568487Y-97777573D01*
X157232564Y-97553116D01*
X156946884Y-97267436D01*
X156722427Y-96931513D01*
X156710437Y-96902567D01*
X156567818Y-96558254D01*
X156489000Y-96162007D01*
X156489000Y-95757993D01*
X156567818Y-95361746D01*
X156722426Y-94988489D01*
X156814174Y-94851179D01*
X156946884Y-94652564D01*
X157232564Y-94366884D01*
X157568487Y-94142427D01*
X157568489Y-94142426D01*
X157941746Y-93987818D01*
X158337993Y-93909000D01*
X158742007Y-93909000D01*
X159138254Y-93987818D01*
X159138254Y-93987818D01*
G37*
G36*
X137878604Y-95588347D02*
G01*
X137915144Y-95599432D01*
X137948821Y-95617433D01*
X137978341Y-95641659D01*
X138002567Y-95671179D01*
X138020568Y-95704856D01*
X138031653Y-95741396D01*
X138036000Y-95785538D01*
X138036000Y-96734462D01*
X138031653Y-96778604D01*
X138020568Y-96815144D01*
X138002567Y-96848821D01*
X137978341Y-96878341D01*
X137948821Y-96902567D01*
X137915144Y-96920568D01*
X137878604Y-96931653D01*
X137834462Y-96936000D01*
X135485538Y-96936000D01*
X135441396Y-96931653D01*
X135404856Y-96920568D01*
X135371179Y-96902567D01*
X135341659Y-96878341D01*
X135317433Y-96848821D01*
X135299432Y-96815144D01*
X135288347Y-96778604D01*
X135284000Y-96734462D01*
X135284000Y-95785538D01*
X135288347Y-95741396D01*
X135299432Y-95704856D01*
X135317433Y-95671179D01*
X135341659Y-95641659D01*
X135371179Y-95617433D01*
X135404856Y-95599432D01*
X135441396Y-95588347D01*
X135485538Y-95584000D01*
X137834462Y-95584000D01*
X137878604Y-95588347D01*
X137878604Y-95588347D01*
G37*
G36*
X149438604Y-94768347D02*
G01*
X149475144Y-94779432D01*
X149508821Y-94797433D01*
X149538341Y-94821659D01*
X149562567Y-94851179D01*
X149580568Y-94884856D01*
X149591653Y-94921396D01*
X149596000Y-94965538D01*
X149596000Y-96414462D01*
X149591653Y-96458604D01*
X149580568Y-96495144D01*
X149562567Y-96528821D01*
X149538341Y-96558341D01*
X149508821Y-96582567D01*
X149475144Y-96600568D01*
X149438604Y-96611653D01*
X149394462Y-96616000D01*
X148445538Y-96616000D01*
X148401396Y-96611653D01*
X148364856Y-96600568D01*
X148331179Y-96582567D01*
X148301659Y-96558341D01*
X148277433Y-96528821D01*
X148259432Y-96495144D01*
X148248347Y-96458604D01*
X148244000Y-96414462D01*
X148244000Y-94965538D01*
X148248347Y-94921396D01*
X148259432Y-94884856D01*
X148277433Y-94851179D01*
X148301659Y-94821659D01*
X148331179Y-94797433D01*
X148364856Y-94779432D01*
X148401396Y-94768347D01*
X148445538Y-94764000D01*
X149394462Y-94764000D01*
X149438604Y-94768347D01*
X149438604Y-94768347D01*
G37*
G36*
X152238604Y-94768347D02*
G01*
X152275144Y-94779432D01*
X152308821Y-94797433D01*
X152338341Y-94821659D01*
X152362567Y-94851179D01*
X152380568Y-94884856D01*
X152391653Y-94921396D01*
X152396000Y-94965538D01*
X152396000Y-96414462D01*
X152391653Y-96458604D01*
X152380568Y-96495144D01*
X152362567Y-96528821D01*
X152338341Y-96558341D01*
X152308821Y-96582567D01*
X152275144Y-96600568D01*
X152238604Y-96611653D01*
X152194462Y-96616000D01*
X151245538Y-96616000D01*
X151201396Y-96611653D01*
X151164856Y-96600568D01*
X151131179Y-96582567D01*
X151101659Y-96558341D01*
X151077433Y-96528821D01*
X151059432Y-96495144D01*
X151048347Y-96458604D01*
X151044000Y-96414462D01*
X151044000Y-94965538D01*
X151048347Y-94921396D01*
X151059432Y-94884856D01*
X151077433Y-94851179D01*
X151101659Y-94821659D01*
X151131179Y-94797433D01*
X151164856Y-94779432D01*
X151201396Y-94768347D01*
X151245538Y-94764000D01*
X152194462Y-94764000D01*
X152238604Y-94768347D01*
X152238604Y-94768347D01*
G37*
G36*
X134068604Y-93958347D02*
G01*
X134105144Y-93969432D01*
X134138821Y-93987433D01*
X134168341Y-94011659D01*
X134192567Y-94041179D01*
X134210568Y-94074856D01*
X134221653Y-94111396D01*
X134226000Y-94155538D01*
X134226000Y-95104462D01*
X134221653Y-95148604D01*
X134210568Y-95185144D01*
X134192567Y-95218821D01*
X134168341Y-95248341D01*
X134138821Y-95272567D01*
X134105144Y-95290568D01*
X134068604Y-95301653D01*
X134024462Y-95306000D01*
X131675538Y-95306000D01*
X131631396Y-95301653D01*
X131594856Y-95290568D01*
X131561179Y-95272567D01*
X131531659Y-95248341D01*
X131507433Y-95218821D01*
X131489432Y-95185144D01*
X131478347Y-95148604D01*
X131474000Y-95104462D01*
X131474000Y-94155538D01*
X131478347Y-94111396D01*
X131489432Y-94074856D01*
X131507433Y-94041179D01*
X131531659Y-94011659D01*
X131561179Y-93987433D01*
X131594856Y-93969432D01*
X131631396Y-93958347D01*
X131675538Y-93954000D01*
X134024462Y-93954000D01*
X134068604Y-93958347D01*
X134068604Y-93958347D01*
G37*
G36*
X143371569Y-92829991D02*
G01*
X143544640Y-92901679D01*
X143595177Y-92935447D01*
X143700401Y-93005755D01*
X143702142Y-93007496D01*
X143721076Y-93023034D01*
X143738553Y-93034712D01*
X143871016Y-93167175D01*
X143871017Y-93167177D01*
X143975092Y-93322936D01*
X144046780Y-93496007D01*
X144083326Y-93679735D01*
X144083326Y-93867069D01*
X144046780Y-94050797D01*
X143975092Y-94223868D01*
X143971877Y-94228679D01*
X143871016Y-94379629D01*
X143738553Y-94512092D01*
X143738550Y-94512094D01*
X143736482Y-94514162D01*
X143732383Y-94516901D01*
X143732382Y-94516902D01*
X143641893Y-94577365D01*
X143576621Y-94620978D01*
X143403550Y-94692666D01*
X143219822Y-94729212D01*
X143032488Y-94729212D01*
X142848760Y-94692666D01*
X142675689Y-94620978D01*
X142598337Y-94569293D01*
X142519928Y-94516902D01*
X142387465Y-94384439D01*
X142387463Y-94384436D01*
X142383335Y-94380308D01*
X142375169Y-94370357D01*
X142355484Y-94350672D01*
X142270757Y-94223869D01*
X142251408Y-94194911D01*
X142179720Y-94021840D01*
X142143174Y-93838112D01*
X142143174Y-93650778D01*
X142179720Y-93467050D01*
X142251408Y-93293979D01*
X142332922Y-93171985D01*
X142355484Y-93138218D01*
X142487947Y-93005755D01*
X142593171Y-92935447D01*
X142643708Y-92901679D01*
X142816779Y-92829991D01*
X143000507Y-92793445D01*
X143187841Y-92793445D01*
X143371569Y-92829991D01*
X143371569Y-92829991D01*
G37*
G36*
X148419468Y-92093565D02*
G01*
X148458138Y-92105296D01*
X148493777Y-92124346D01*
X148525017Y-92149983D01*
X148550654Y-92181223D01*
X148569704Y-92216862D01*
X148581435Y-92255532D01*
X148586000Y-92301888D01*
X148586000Y-93378112D01*
X148581435Y-93424468D01*
X148569704Y-93463138D01*
X148550654Y-93498777D01*
X148525017Y-93530017D01*
X148493777Y-93555654D01*
X148458138Y-93574704D01*
X148419468Y-93586435D01*
X148373112Y-93591000D01*
X147721888Y-93591000D01*
X147675532Y-93586435D01*
X147636862Y-93574704D01*
X147601223Y-93555654D01*
X147569983Y-93530017D01*
X147544346Y-93498777D01*
X147525296Y-93463138D01*
X147513565Y-93424468D01*
X147509000Y-93378112D01*
X147509000Y-92301888D01*
X147513565Y-92255532D01*
X147525296Y-92216862D01*
X147544346Y-92181223D01*
X147569983Y-92149983D01*
X147601223Y-92124346D01*
X147636862Y-92105296D01*
X147675532Y-92093565D01*
X147721888Y-92089000D01*
X148373112Y-92089000D01*
X148419468Y-92093565D01*
X148419468Y-92093565D01*
G37*
G36*
X146544468Y-92093565D02*
G01*
X146583138Y-92105296D01*
X146618777Y-92124346D01*
X146650017Y-92149983D01*
X146675654Y-92181223D01*
X146694704Y-92216862D01*
X146706435Y-92255532D01*
X146711000Y-92301888D01*
X146711000Y-93378112D01*
X146706435Y-93424468D01*
X146694704Y-93463138D01*
X146675654Y-93498777D01*
X146650017Y-93530017D01*
X146618777Y-93555654D01*
X146583138Y-93574704D01*
X146544468Y-93586435D01*
X146498112Y-93591000D01*
X145846888Y-93591000D01*
X145800532Y-93586435D01*
X145761862Y-93574704D01*
X145726223Y-93555654D01*
X145694983Y-93530017D01*
X145669346Y-93498777D01*
X145650296Y-93463138D01*
X145638565Y-93424468D01*
X145634000Y-93378112D01*
X145634000Y-92301888D01*
X145638565Y-92255532D01*
X145650296Y-92216862D01*
X145669346Y-92181223D01*
X145694983Y-92149983D01*
X145726223Y-92124346D01*
X145761862Y-92105296D01*
X145800532Y-92093565D01*
X145846888Y-92089000D01*
X146498112Y-92089000D01*
X146544468Y-92093565D01*
X146544468Y-92093565D01*
G37*
G36*
X152101968Y-92063565D02*
G01*
X152140638Y-92075296D01*
X152176277Y-92094346D01*
X152207517Y-92119983D01*
X152233154Y-92151223D01*
X152252204Y-92186862D01*
X152263935Y-92225532D01*
X152268500Y-92271888D01*
X152268500Y-93348112D01*
X152263935Y-93394468D01*
X152252204Y-93433138D01*
X152233154Y-93468777D01*
X152207517Y-93500017D01*
X152176277Y-93525654D01*
X152140638Y-93544704D01*
X152101968Y-93556435D01*
X152055612Y-93561000D01*
X151404388Y-93561000D01*
X151358032Y-93556435D01*
X151319362Y-93544704D01*
X151283723Y-93525654D01*
X151252483Y-93500017D01*
X151226846Y-93468777D01*
X151207796Y-93433138D01*
X151196065Y-93394468D01*
X151191500Y-93348112D01*
X151191500Y-92271888D01*
X151196065Y-92225532D01*
X151207796Y-92186862D01*
X151226846Y-92151223D01*
X151252483Y-92119983D01*
X151283723Y-92094346D01*
X151319362Y-92075296D01*
X151358032Y-92063565D01*
X151404388Y-92059000D01*
X152055612Y-92059000D01*
X152101968Y-92063565D01*
X152101968Y-92063565D01*
G37*
G36*
X150226968Y-92063565D02*
G01*
X150265638Y-92075296D01*
X150301277Y-92094346D01*
X150332517Y-92119983D01*
X150358154Y-92151223D01*
X150377204Y-92186862D01*
X150388935Y-92225532D01*
X150393500Y-92271888D01*
X150393500Y-93348112D01*
X150388935Y-93394468D01*
X150377204Y-93433138D01*
X150358154Y-93468777D01*
X150332517Y-93500017D01*
X150301277Y-93525654D01*
X150265638Y-93544704D01*
X150226968Y-93556435D01*
X150180612Y-93561000D01*
X149529388Y-93561000D01*
X149483032Y-93556435D01*
X149444362Y-93544704D01*
X149408723Y-93525654D01*
X149377483Y-93500017D01*
X149351846Y-93468777D01*
X149332796Y-93433138D01*
X149321065Y-93394468D01*
X149316500Y-93348112D01*
X149316500Y-92271888D01*
X149321065Y-92225532D01*
X149332796Y-92186862D01*
X149351846Y-92151223D01*
X149377483Y-92119983D01*
X149408723Y-92094346D01*
X149444362Y-92075296D01*
X149483032Y-92063565D01*
X149529388Y-92059000D01*
X150180612Y-92059000D01*
X150226968Y-92063565D01*
X150226968Y-92063565D01*
G37*
G36*
X134068604Y-91158347D02*
G01*
X134105144Y-91169432D01*
X134138821Y-91187433D01*
X134168341Y-91211659D01*
X134192567Y-91241179D01*
X134210568Y-91274856D01*
X134221653Y-91311396D01*
X134226000Y-91355538D01*
X134226000Y-92304462D01*
X134221653Y-92348604D01*
X134210568Y-92385144D01*
X134192567Y-92418821D01*
X134168341Y-92448341D01*
X134138821Y-92472567D01*
X134105144Y-92490568D01*
X134068604Y-92501653D01*
X134024462Y-92506000D01*
X131675538Y-92506000D01*
X131631396Y-92501653D01*
X131594856Y-92490568D01*
X131561179Y-92472567D01*
X131531659Y-92448341D01*
X131507433Y-92418821D01*
X131489432Y-92385144D01*
X131478347Y-92348604D01*
X131474000Y-92304462D01*
X131474000Y-91355538D01*
X131478347Y-91311396D01*
X131489432Y-91274856D01*
X131507433Y-91241179D01*
X131531659Y-91211659D01*
X131561179Y-91187433D01*
X131594856Y-91169432D01*
X131631396Y-91158347D01*
X131675538Y-91154000D01*
X134024462Y-91154000D01*
X134068604Y-91158347D01*
X134068604Y-91158347D01*
G37*
G36*
X169931000Y-92221000D02*
G01*
X163429000Y-92221000D01*
X163429000Y-86319000D01*
X169931000Y-86319000D01*
X169931000Y-92221000D01*
X169931000Y-92221000D01*
G37*
G36*
X161531000Y-92201000D02*
G01*
X159229000Y-92201000D01*
X159229000Y-90899000D01*
X161531000Y-90899000D01*
X161531000Y-92201000D01*
X161531000Y-92201000D01*
G37*
G36*
X155324468Y-90633565D02*
G01*
X155363138Y-90645296D01*
X155398777Y-90664346D01*
X155430017Y-90689983D01*
X155455654Y-90721223D01*
X155474704Y-90756862D01*
X155486435Y-90795532D01*
X155491000Y-90841888D01*
X155491000Y-91918112D01*
X155486435Y-91964468D01*
X155474704Y-92003138D01*
X155455654Y-92038777D01*
X155430017Y-92070017D01*
X155398777Y-92095654D01*
X155363138Y-92114704D01*
X155324468Y-92126435D01*
X155278112Y-92131000D01*
X154626888Y-92131000D01*
X154580532Y-92126435D01*
X154541862Y-92114704D01*
X154506223Y-92095654D01*
X154474983Y-92070017D01*
X154449346Y-92038777D01*
X154430296Y-92003138D01*
X154418565Y-91964468D01*
X154414000Y-91918112D01*
X154414000Y-90841888D01*
X154418565Y-90795532D01*
X154430296Y-90756862D01*
X154449346Y-90721223D01*
X154474983Y-90689983D01*
X154506223Y-90664346D01*
X154541862Y-90645296D01*
X154580532Y-90633565D01*
X154626888Y-90629000D01*
X155278112Y-90629000D01*
X155324468Y-90633565D01*
X155324468Y-90633565D01*
G37*
G36*
X157199468Y-90633565D02*
G01*
X157238138Y-90645296D01*
X157273777Y-90664346D01*
X157305017Y-90689983D01*
X157330654Y-90721223D01*
X157349704Y-90756862D01*
X157361435Y-90795532D01*
X157366000Y-90841888D01*
X157366000Y-91918112D01*
X157361435Y-91964468D01*
X157349704Y-92003138D01*
X157330654Y-92038777D01*
X157305017Y-92070017D01*
X157273777Y-92095654D01*
X157238138Y-92114704D01*
X157199468Y-92126435D01*
X157153112Y-92131000D01*
X156501888Y-92131000D01*
X156455532Y-92126435D01*
X156416862Y-92114704D01*
X156381223Y-92095654D01*
X156349983Y-92070017D01*
X156324346Y-92038777D01*
X156305296Y-92003138D01*
X156293565Y-91964468D01*
X156289000Y-91918112D01*
X156289000Y-90841888D01*
X156293565Y-90795532D01*
X156305296Y-90756862D01*
X156324346Y-90721223D01*
X156349983Y-90689983D01*
X156381223Y-90664346D01*
X156416862Y-90645296D01*
X156455532Y-90633565D01*
X156501888Y-90629000D01*
X157153112Y-90629000D01*
X157199468Y-90633565D01*
X157199468Y-90633565D01*
G37*
G36*
X147142395Y-89085546D02*
G01*
X147315466Y-89157234D01*
X147352004Y-89181648D01*
X147471227Y-89261310D01*
X147603690Y-89393773D01*
X147603691Y-89393775D01*
X147707766Y-89549534D01*
X147779454Y-89722605D01*
X147816000Y-89906333D01*
X147816000Y-90093667D01*
X147779454Y-90277395D01*
X147707766Y-90450466D01*
X147707765Y-90450467D01*
X147603690Y-90606227D01*
X147471227Y-90738690D01*
X147392818Y-90791081D01*
X147315466Y-90842766D01*
X147142395Y-90914454D01*
X146958667Y-90951000D01*
X146771333Y-90951000D01*
X146587605Y-90914454D01*
X146414534Y-90842766D01*
X146337182Y-90791081D01*
X146258773Y-90738690D01*
X146126310Y-90606227D01*
X146022235Y-90450467D01*
X146022234Y-90450466D01*
X145950546Y-90277395D01*
X145914000Y-90093667D01*
X145914000Y-89906333D01*
X145950546Y-89722605D01*
X146022234Y-89549534D01*
X146126309Y-89393775D01*
X146126310Y-89393773D01*
X146258773Y-89261310D01*
X146377996Y-89181648D01*
X146414534Y-89157234D01*
X146587605Y-89085546D01*
X146771333Y-89049000D01*
X146958667Y-89049000D01*
X147142395Y-89085546D01*
X147142395Y-89085546D01*
G37*
G36*
X137878604Y-88968347D02*
G01*
X137915144Y-88979432D01*
X137948821Y-88997433D01*
X137978341Y-89021659D01*
X138002567Y-89051179D01*
X138020568Y-89084856D01*
X138031653Y-89121396D01*
X138036000Y-89165538D01*
X138036000Y-90114462D01*
X138031653Y-90158604D01*
X138020568Y-90195144D01*
X138002567Y-90228821D01*
X137978341Y-90258341D01*
X137948821Y-90282567D01*
X137915144Y-90300568D01*
X137878604Y-90311653D01*
X137834462Y-90316000D01*
X135485538Y-90316000D01*
X135441396Y-90311653D01*
X135404856Y-90300568D01*
X135371179Y-90282567D01*
X135341659Y-90258341D01*
X135317433Y-90228821D01*
X135299432Y-90195144D01*
X135288347Y-90158604D01*
X135284000Y-90114462D01*
X135284000Y-89165538D01*
X135288347Y-89121396D01*
X135299432Y-89084856D01*
X135317433Y-89051179D01*
X135341659Y-89021659D01*
X135371179Y-88997433D01*
X135404856Y-88979432D01*
X135441396Y-88968347D01*
X135485538Y-88964000D01*
X137834462Y-88964000D01*
X137878604Y-88968347D01*
X137878604Y-88968347D01*
G37*
G36*
X140974468Y-88403565D02*
G01*
X141013138Y-88415296D01*
X141048777Y-88434346D01*
X141080017Y-88459983D01*
X141105654Y-88491223D01*
X141124704Y-88526862D01*
X141136435Y-88565532D01*
X141141000Y-88611888D01*
X141141000Y-89688112D01*
X141136435Y-89734468D01*
X141124704Y-89773138D01*
X141105654Y-89808777D01*
X141080017Y-89840017D01*
X141048777Y-89865654D01*
X141013138Y-89884704D01*
X140974468Y-89896435D01*
X140928112Y-89901000D01*
X140276888Y-89901000D01*
X140230532Y-89896435D01*
X140191862Y-89884704D01*
X140156223Y-89865654D01*
X140124983Y-89840017D01*
X140099346Y-89808777D01*
X140080296Y-89773138D01*
X140068565Y-89734468D01*
X140064000Y-89688112D01*
X140064000Y-88611888D01*
X140068565Y-88565532D01*
X140080296Y-88526862D01*
X140099346Y-88491223D01*
X140124983Y-88459983D01*
X140156223Y-88434346D01*
X140191862Y-88415296D01*
X140230532Y-88403565D01*
X140276888Y-88399000D01*
X140928112Y-88399000D01*
X140974468Y-88403565D01*
X140974468Y-88403565D01*
G37*
G36*
X142849468Y-88403565D02*
G01*
X142888138Y-88415296D01*
X142923777Y-88434346D01*
X142955017Y-88459983D01*
X142980654Y-88491223D01*
X142999704Y-88526862D01*
X143011435Y-88565532D01*
X143016000Y-88611888D01*
X143016000Y-89688112D01*
X143011435Y-89734468D01*
X142999704Y-89773138D01*
X142980654Y-89808777D01*
X142955017Y-89840017D01*
X142923777Y-89865654D01*
X142888138Y-89884704D01*
X142849468Y-89896435D01*
X142803112Y-89901000D01*
X142151888Y-89901000D01*
X142105532Y-89896435D01*
X142066862Y-89884704D01*
X142031223Y-89865654D01*
X141999983Y-89840017D01*
X141974346Y-89808777D01*
X141955296Y-89773138D01*
X141943565Y-89734468D01*
X141939000Y-89688112D01*
X141939000Y-88611888D01*
X141943565Y-88565532D01*
X141955296Y-88526862D01*
X141974346Y-88491223D01*
X141999983Y-88459983D01*
X142031223Y-88434346D01*
X142066862Y-88415296D01*
X142105532Y-88403565D01*
X142151888Y-88399000D01*
X142803112Y-88399000D01*
X142849468Y-88403565D01*
X142849468Y-88403565D01*
G37*
G36*
X148457395Y-87005546D02*
G01*
X148630466Y-87077234D01*
X148630467Y-87077235D01*
X148786227Y-87181310D01*
X148918690Y-87313773D01*
X148918691Y-87313775D01*
X149022766Y-87469534D01*
X149094454Y-87642605D01*
X149131000Y-87826333D01*
X149131000Y-88013667D01*
X149094454Y-88197395D01*
X149022766Y-88370466D01*
X148990006Y-88419495D01*
X148918690Y-88526227D01*
X148786227Y-88658690D01*
X148771919Y-88668250D01*
X148630466Y-88762766D01*
X148457395Y-88834454D01*
X148273667Y-88871000D01*
X148086333Y-88871000D01*
X147902605Y-88834454D01*
X147729534Y-88762766D01*
X147588081Y-88668250D01*
X147573773Y-88658690D01*
X147441310Y-88526227D01*
X147369994Y-88419495D01*
X147337234Y-88370466D01*
X147265546Y-88197395D01*
X147229000Y-88013667D01*
X147229000Y-87826333D01*
X147265546Y-87642605D01*
X147337234Y-87469534D01*
X147441309Y-87313775D01*
X147441310Y-87313773D01*
X147573773Y-87181310D01*
X147729533Y-87077235D01*
X147729534Y-87077234D01*
X147902605Y-87005546D01*
X148086333Y-86969000D01*
X148273667Y-86969000D01*
X148457395Y-87005546D01*
X148457395Y-87005546D01*
G37*
G36*
X151917395Y-86995546D02*
G01*
X152090466Y-87067234D01*
X152167818Y-87118919D01*
X152246227Y-87171310D01*
X152378690Y-87303773D01*
X152385373Y-87313775D01*
X152482766Y-87459534D01*
X152554454Y-87632605D01*
X152591000Y-87816333D01*
X152591000Y-88003667D01*
X152554454Y-88187395D01*
X152482766Y-88360466D01*
X152457018Y-88399000D01*
X152378690Y-88516227D01*
X152246227Y-88648690D01*
X152231259Y-88658691D01*
X152090466Y-88752766D01*
X151917395Y-88824454D01*
X151733667Y-88861000D01*
X151546333Y-88861000D01*
X151362605Y-88824454D01*
X151189534Y-88752766D01*
X151048741Y-88658691D01*
X151033773Y-88648690D01*
X150901310Y-88516227D01*
X150822982Y-88399000D01*
X150797234Y-88360466D01*
X150725546Y-88187395D01*
X150689000Y-88003667D01*
X150689000Y-87816333D01*
X150725546Y-87632605D01*
X150797234Y-87459534D01*
X150894627Y-87313775D01*
X150901310Y-87303773D01*
X151033773Y-87171310D01*
X151112182Y-87118919D01*
X151189534Y-87067234D01*
X151362605Y-86995546D01*
X151546333Y-86959000D01*
X151733667Y-86959000D01*
X151917395Y-86995546D01*
X151917395Y-86995546D01*
G37*
G36*
X161531000Y-87641000D02*
G01*
X159229000Y-87641000D01*
X159229000Y-86339000D01*
X161531000Y-86339000D01*
X161531000Y-87641000D01*
X161531000Y-87641000D01*
G37*
G36*
X142849468Y-86123565D02*
G01*
X142888138Y-86135296D01*
X142923777Y-86154346D01*
X142955017Y-86179983D01*
X142980654Y-86211223D01*
X142999704Y-86246862D01*
X143011435Y-86285532D01*
X143016000Y-86331888D01*
X143016000Y-87408112D01*
X143011435Y-87454468D01*
X142999704Y-87493138D01*
X142980654Y-87528777D01*
X142955017Y-87560017D01*
X142923777Y-87585654D01*
X142888138Y-87604704D01*
X142849468Y-87616435D01*
X142803112Y-87621000D01*
X142151888Y-87621000D01*
X142105532Y-87616435D01*
X142066862Y-87604704D01*
X142031223Y-87585654D01*
X141999983Y-87560017D01*
X141974346Y-87528777D01*
X141955296Y-87493138D01*
X141943565Y-87454468D01*
X141939000Y-87408112D01*
X141939000Y-86331888D01*
X141943565Y-86285532D01*
X141955296Y-86246862D01*
X141974346Y-86211223D01*
X141999983Y-86179983D01*
X142031223Y-86154346D01*
X142066862Y-86135296D01*
X142105532Y-86123565D01*
X142151888Y-86119000D01*
X142803112Y-86119000D01*
X142849468Y-86123565D01*
X142849468Y-86123565D01*
G37*
G36*
X140974468Y-86123565D02*
G01*
X141013138Y-86135296D01*
X141048777Y-86154346D01*
X141080017Y-86179983D01*
X141105654Y-86211223D01*
X141124704Y-86246862D01*
X141136435Y-86285532D01*
X141141000Y-86331888D01*
X141141000Y-87408112D01*
X141136435Y-87454468D01*
X141124704Y-87493138D01*
X141105654Y-87528777D01*
X141080017Y-87560017D01*
X141048777Y-87585654D01*
X141013138Y-87604704D01*
X140974468Y-87616435D01*
X140928112Y-87621000D01*
X140276888Y-87621000D01*
X140230532Y-87616435D01*
X140191862Y-87604704D01*
X140156223Y-87585654D01*
X140124983Y-87560017D01*
X140099346Y-87528777D01*
X140080296Y-87493138D01*
X140068565Y-87454468D01*
X140064000Y-87408112D01*
X140064000Y-86331888D01*
X140068565Y-86285532D01*
X140080296Y-86246862D01*
X140099346Y-86211223D01*
X140124983Y-86179983D01*
X140156223Y-86154346D01*
X140191862Y-86135296D01*
X140230532Y-86123565D01*
X140276888Y-86119000D01*
X140928112Y-86119000D01*
X140974468Y-86123565D01*
X140974468Y-86123565D01*
G37*
G36*
X137878604Y-86168347D02*
G01*
X137915144Y-86179432D01*
X137948821Y-86197433D01*
X137978341Y-86221659D01*
X138002567Y-86251179D01*
X138020568Y-86284856D01*
X138031653Y-86321396D01*
X138036000Y-86365538D01*
X138036000Y-87314462D01*
X138031653Y-87358604D01*
X138020568Y-87395144D01*
X138002567Y-87428821D01*
X137978341Y-87458341D01*
X137948821Y-87482567D01*
X137915144Y-87500568D01*
X137878604Y-87511653D01*
X137834462Y-87516000D01*
X135485538Y-87516000D01*
X135441396Y-87511653D01*
X135404856Y-87500568D01*
X135371179Y-87482567D01*
X135341659Y-87458341D01*
X135317433Y-87428821D01*
X135299432Y-87395144D01*
X135288347Y-87358604D01*
X135284000Y-87314462D01*
X135284000Y-86365538D01*
X135288347Y-86321396D01*
X135299432Y-86284856D01*
X135317433Y-86251179D01*
X135341659Y-86221659D01*
X135371179Y-86197433D01*
X135404856Y-86179432D01*
X135441396Y-86168347D01*
X135485538Y-86164000D01*
X137834462Y-86164000D01*
X137878604Y-86168347D01*
X137878604Y-86168347D01*
G37*
G36*
X150998254Y-82347818D02*
G01*
X151371511Y-82502426D01*
X151371513Y-82502427D01*
X151630684Y-82675600D01*
X151707436Y-82726884D01*
X151993116Y-83012564D01*
X152217574Y-83348489D01*
X152372182Y-83721746D01*
X152451000Y-84117993D01*
X152451000Y-84522007D01*
X152372182Y-84918254D01*
X152283749Y-85131750D01*
X152217573Y-85291513D01*
X151993116Y-85627436D01*
X151707436Y-85913116D01*
X151371513Y-86137573D01*
X151371512Y-86137574D01*
X151371511Y-86137574D01*
X150998254Y-86292182D01*
X150602007Y-86371000D01*
X150197993Y-86371000D01*
X149801746Y-86292182D01*
X149428489Y-86137574D01*
X149428488Y-86137574D01*
X149428487Y-86137573D01*
X149092564Y-85913116D01*
X148806884Y-85627436D01*
X148582427Y-85291513D01*
X148516251Y-85131750D01*
X148427818Y-84918254D01*
X148349000Y-84522007D01*
X148349000Y-84117993D01*
X148427818Y-83721746D01*
X148582426Y-83348489D01*
X148806884Y-83012564D01*
X149092564Y-82726884D01*
X149169316Y-82675600D01*
X149428487Y-82502427D01*
X149428489Y-82502426D01*
X149801746Y-82347818D01*
X150197993Y-82269000D01*
X150602007Y-82269000D01*
X150998254Y-82347818D01*
X150998254Y-82347818D01*
G37*
G36*
X134118604Y-84398347D02*
G01*
X134155144Y-84409432D01*
X134188821Y-84427433D01*
X134218341Y-84451659D01*
X134242567Y-84481179D01*
X134260568Y-84514856D01*
X134271653Y-84551396D01*
X134276000Y-84595538D01*
X134276000Y-85544462D01*
X134271653Y-85588604D01*
X134260568Y-85625144D01*
X134242567Y-85658821D01*
X134218341Y-85688341D01*
X134188821Y-85712567D01*
X134155144Y-85730568D01*
X134118604Y-85741653D01*
X134074462Y-85746000D01*
X131725538Y-85746000D01*
X131681396Y-85741653D01*
X131644856Y-85730568D01*
X131611179Y-85712567D01*
X131581659Y-85688341D01*
X131557433Y-85658821D01*
X131539432Y-85625144D01*
X131528347Y-85588604D01*
X131524000Y-85544462D01*
X131524000Y-84595538D01*
X131528347Y-84551396D01*
X131539432Y-84514856D01*
X131557433Y-84481179D01*
X131581659Y-84451659D01*
X131611179Y-84427433D01*
X131644856Y-84409432D01*
X131681396Y-84398347D01*
X131725538Y-84394000D01*
X134074462Y-84394000D01*
X134118604Y-84398347D01*
X134118604Y-84398347D01*
G37*
G36*
X142849468Y-83903565D02*
G01*
X142888138Y-83915296D01*
X142923777Y-83934346D01*
X142955017Y-83959983D01*
X142980654Y-83991223D01*
X142999704Y-84026862D01*
X143011435Y-84065532D01*
X143016000Y-84111888D01*
X143016000Y-85188112D01*
X143011435Y-85234468D01*
X142999704Y-85273138D01*
X142980654Y-85308777D01*
X142955017Y-85340017D01*
X142923777Y-85365654D01*
X142888138Y-85384704D01*
X142849468Y-85396435D01*
X142803112Y-85401000D01*
X142151888Y-85401000D01*
X142105532Y-85396435D01*
X142066862Y-85384704D01*
X142031223Y-85365654D01*
X141999983Y-85340017D01*
X141974346Y-85308777D01*
X141955296Y-85273138D01*
X141943565Y-85234468D01*
X141939000Y-85188112D01*
X141939000Y-84111888D01*
X141943565Y-84065532D01*
X141955296Y-84026862D01*
X141974346Y-83991223D01*
X141999983Y-83959983D01*
X142031223Y-83934346D01*
X142066862Y-83915296D01*
X142105532Y-83903565D01*
X142151888Y-83899000D01*
X142803112Y-83899000D01*
X142849468Y-83903565D01*
X142849468Y-83903565D01*
G37*
G36*
X140974468Y-83903565D02*
G01*
X141013138Y-83915296D01*
X141048777Y-83934346D01*
X141080017Y-83959983D01*
X141105654Y-83991223D01*
X141124704Y-84026862D01*
X141136435Y-84065532D01*
X141141000Y-84111888D01*
X141141000Y-85188112D01*
X141136435Y-85234468D01*
X141124704Y-85273138D01*
X141105654Y-85308777D01*
X141080017Y-85340017D01*
X141048777Y-85365654D01*
X141013138Y-85384704D01*
X140974468Y-85396435D01*
X140928112Y-85401000D01*
X140276888Y-85401000D01*
X140230532Y-85396435D01*
X140191862Y-85384704D01*
X140156223Y-85365654D01*
X140124983Y-85340017D01*
X140099346Y-85308777D01*
X140080296Y-85273138D01*
X140068565Y-85234468D01*
X140064000Y-85188112D01*
X140064000Y-84111888D01*
X140068565Y-84065532D01*
X140080296Y-84026862D01*
X140099346Y-83991223D01*
X140124983Y-83959983D01*
X140156223Y-83934346D01*
X140191862Y-83915296D01*
X140230532Y-83903565D01*
X140276888Y-83899000D01*
X140928112Y-83899000D01*
X140974468Y-83903565D01*
X140974468Y-83903565D01*
G37*
G36*
X134118604Y-81598347D02*
G01*
X134155144Y-81609432D01*
X134188821Y-81627433D01*
X134218341Y-81651659D01*
X134242567Y-81681179D01*
X134260568Y-81714856D01*
X134271653Y-81751396D01*
X134276000Y-81795538D01*
X134276000Y-82744462D01*
X134271653Y-82788604D01*
X134260568Y-82825144D01*
X134242567Y-82858821D01*
X134218341Y-82888341D01*
X134188821Y-82912567D01*
X134155144Y-82930568D01*
X134118604Y-82941653D01*
X134074462Y-82946000D01*
X131725538Y-82946000D01*
X131681396Y-82941653D01*
X131644856Y-82930568D01*
X131611179Y-82912567D01*
X131581659Y-82888341D01*
X131557433Y-82858821D01*
X131539432Y-82825144D01*
X131528347Y-82788604D01*
X131524000Y-82744462D01*
X131524000Y-81795538D01*
X131528347Y-81751396D01*
X131539432Y-81714856D01*
X131557433Y-81681179D01*
X131581659Y-81651659D01*
X131611179Y-81627433D01*
X131644856Y-81609432D01*
X131681396Y-81598347D01*
X131725538Y-81594000D01*
X134074462Y-81594000D01*
X134118604Y-81598347D01*
X134118604Y-81598347D01*
G37*
G36*
X139951000Y-82931000D02*
G01*
X138949000Y-82931000D01*
X138949000Y-81629000D01*
X139951000Y-81629000D01*
X139951000Y-82931000D01*
X139951000Y-82931000D01*
G37*
G36*
X136651000Y-82931000D02*
G01*
X135649000Y-82931000D01*
X135649000Y-81629000D01*
X136651000Y-81629000D01*
X136651000Y-82931000D01*
X136651000Y-82931000D01*
G37*
G36*
X146071000Y-82881000D02*
G01*
X145069000Y-82881000D01*
X145069000Y-81579000D01*
X146071000Y-81579000D01*
X146071000Y-82881000D01*
X146071000Y-82881000D01*
G37*
G36*
X142771000Y-82881000D02*
G01*
X141769000Y-82881000D01*
X141769000Y-81579000D01*
X142771000Y-81579000D01*
X142771000Y-82881000D01*
X142771000Y-82881000D01*
G37*
M02*
